<svg width="32" height="32" viewBox="0 0 32 32" fill="none" xmlns="http://www.w3.org/2000/svg">
<path d="M14.071 18.2033C14.0585 18.197 14.0459 18.1908 14.0334 18.1908L12.4461 17.6261C12.1261 17.5132 11.8877 17.3124 11.8187 17.1054C11.7811 16.9862 11.7999 16.867 11.8814 16.7477C12.1512 16.3399 12.9731 16.0764 13.726 16.3462C13.9456 16.4215 14.115 16.5533 14.1777 16.685C14.3534 17.0614 14.8051 17.2246 15.1815 17.0426C15.558 16.867 15.7211 16.4152 15.5454 16.0388C15.307 15.5369 14.8427 15.1353 14.2404 14.922C14.0773 14.8656 13.9079 14.8154 13.7323 14.784V14.119C13.7323 13.7049 13.3935 13.3661 12.9794 13.3661C12.5653 13.3661 12.2265 13.7049 12.2265 14.119V14.8405C11.5615 15.0161 10.978 15.38 10.6329 15.907C10.2941 16.4215 10.2126 17.0113 10.4008 17.5759C10.6141 18.2096 11.1474 18.7303 11.8814 19.0126C11.894 19.0189 11.9065 19.0252 11.9191 19.0252L13.5064 19.5898C13.8326 19.7028 14.0648 19.9035 14.1338 20.1106C14.1714 20.2298 14.1526 20.349 14.071 20.4682C13.8013 20.876 12.9794 21.1395 12.2265 20.8697C12.0069 20.7882 11.8375 20.6627 11.7748 20.5309C11.5991 20.1545 11.1474 19.9914 10.7709 20.167C10.3945 20.3427 10.2314 20.7944 10.4071 21.1709C10.6455 21.6728 11.1097 22.0743 11.7183 22.2876C11.8814 22.3441 12.0508 22.388 12.2265 22.4194V23.0844C12.2265 23.4985 12.5653 23.8373 12.9794 23.8373C13.3935 23.8373 13.7323 23.4985 13.7323 23.0844V22.3629C14.3973 22.1873 14.9808 21.8234 15.3258 21.2964C15.6646 20.7882 15.7462 20.1921 15.558 19.6338C15.3384 19.0064 14.8051 18.4856 14.071 18.2033Z" fill="currentColor"/>
<path d="M28.5894 20.3114H28.2067V17.5697C28.2067 17.1556 27.8679 16.8168 27.4538 16.8168H22.1084L21.9892 15.7753C21.6504 12.7826 19.442 10.3797 16.5183 9.52645C16.6815 9.21903 16.7881 8.87396 16.7881 8.49753C16.7881 7.79484 16.4493 7.17372 15.9286 6.77219L17.5159 3.48464C17.6351 3.23368 17.61 2.93253 17.4406 2.70667C17.2712 2.48081 16.9952 2.36788 16.7191 2.4118L12.9736 3.02037L9.29702 2.4118C9.0147 2.36161 8.73864 2.47454 8.56925 2.7004C8.39985 2.92626 8.37475 3.22741 8.49396 3.47837L9.99343 6.58397C9.32212 6.96041 8.85785 7.66937 8.85785 8.49753C8.85785 8.90533 8.97705 9.2755 9.16527 9.60174C6.36709 10.5177 4.27159 12.8642 3.93907 15.7753L3.23639 22.0681C3.05444 23.6742 3.56263 25.2427 4.66685 26.4787C5.86517 27.8213 7.62188 28.593 9.49152 28.593H16.4493C16.9512 28.593 17.4406 28.5302 17.9174 28.4236C18.0492 28.6432 18.2813 28.8 18.5511 28.8H27.4538C27.8679 28.8 28.2067 28.4612 28.2067 28.0471V25.3054H28.5894C29.0035 25.3054 29.3423 24.9666 29.3423 24.5526V21.058C29.3423 20.6439 29.0098 20.3114 28.5894 20.3114ZM26.701 27.2943H20.3768H19.304V26.2152V25.3117H19.6867H20.2827H22.0771H26.6947V27.2943H26.701ZM26.701 18.3225V20.3114H22.5037H20.9854H19.6867H19.304V18.3225H20.7658H22.2841H26.701ZM27.8365 21.8171V23.806H27.4538H22.6292H21.0732H20.4396V21.8171H21.1548H22.6731H27.4538H27.8365ZM12.8481 4.51984C12.9296 4.53239 13.0112 4.53239 13.0928 4.51984L15.5333 4.12458L14.4856 6.29537H11.5305L10.4828 4.13086L12.8481 4.51984ZM11.0537 9.18766C10.671 9.18766 10.3636 8.88024 10.3636 8.49753C10.3636 8.11482 10.671 7.80739 11.0537 7.80739H14.586C14.9687 7.80739 15.2761 8.11482 15.2761 8.49753C15.2761 8.88024 14.9687 9.18766 14.586 9.18766H14.1656H11.7627H11.0537ZM9.49152 27.0872C8.05478 27.0872 6.70588 26.4975 5.78989 25.4748C4.97427 24.5588 4.59784 23.4107 4.72959 22.2375L5.43855 15.9384C5.77734 12.9458 8.49396 10.6871 11.7627 10.6871H14.1656C17.4343 10.6871 20.151 12.9458 20.4897 15.9384L20.5901 16.8105H18.5511C18.137 16.8105 17.7982 17.1493 17.7982 17.5634V21.058C17.7982 21.472 18.137 21.8108 18.5511 21.8108H18.9338V23.7997H18.5511C18.137 23.7997 17.7982 24.1385 17.7982 24.5526V26.899C17.3653 27.0182 16.9073 27.081 16.4431 27.081H9.49152V27.0872Z" fill="currentColor"/>
</svg>
