<svg width="20" height="20" viewBox="0 0 20 20" fill="none" xmlns="http://www.w3.org/2000/svg">
<path d="M17.5001 20H2.50002C1.83697 20 1.20108 19.7366 0.732237 19.2678C0.263394 18.7989 0 18.163 0 17.5V4.16657C0 3.83826 0.0646648 3.51317 0.190302 3.20985C0.31594 2.90654 0.50009 2.63094 0.732237 2.39879C1.20108 1.92994 1.83697 1.66655 2.50002 1.66655H5.00003V0.833211C5.00006 0.612218 5.08788 0.400288 5.24415 0.244034C5.40043 0.0877804 5.61238 0 5.83337 0C6.05436 0 6.26631 0.0877804 6.42258 0.244034C6.57886 0.400288 6.66667 0.612218 6.66671 0.833211V1.66655H13.3334V0.833211C13.3334 0.612218 13.4213 0.400288 13.5775 0.244034C13.7338 0.0877804 13.9458 0 14.1668 0C14.3877 0 14.5997 0.0877804 14.756 0.244034C14.9122 0.400288 15.0001 0.612218 15.0001 0.833211V1.66655H17.5001C18.1632 1.66655 18.799 1.92994 19.2679 2.39879C19.7367 2.86763 20.0001 3.50352 20.0001 4.16657V17.5C20.0001 18.163 19.7367 18.7989 19.2679 19.2678C18.799 19.7366 18.1632 20 17.5001 20ZM1.66668 7.54159V17.5C1.66668 17.721 1.75447 17.933 1.91076 18.0892C2.06704 18.2455 2.279 18.3333 2.50002 18.3333H17.5001C17.7211 18.3333 17.9331 18.2455 18.0894 18.0892C18.2456 17.933 18.3334 17.721 18.3334 17.5V7.54159H1.66668ZM1.66668 5.87491H18.3334V4.16657C18.3334 3.94555 18.2456 3.73359 18.0894 3.57731C17.9331 3.42102 17.7211 3.33323 17.5001 3.33323H15.0001V4.16657C15.0001 4.38756 14.9122 4.59949 14.756 4.75574C14.5997 4.912 14.3877 4.99978 14.1668 4.99978C13.9458 4.99978 13.7338 4.912 13.5775 4.75574C13.4213 4.59949 13.3334 4.38756 13.3334 4.16657V3.33323H6.66671V4.16657C6.66667 4.38756 6.57886 4.59949 6.42258 4.75574C6.26631 4.912 6.05436 4.99978 5.83337 4.99978C5.61238 4.99978 5.40043 4.912 5.24415 4.75574C5.08788 4.59949 5.00006 4.38756 5.00003 4.16657V3.33323H2.50002C2.279 3.33323 2.06704 3.42102 1.91076 3.57731C1.75447 3.73359 1.66668 3.94555 1.66668 4.16657V5.87491ZM8.91672 15.7833C8.70619 15.7826 8.50374 15.7022 8.35005 15.5583L6.0917 13.4333C5.93516 13.2797 5.84516 13.0708 5.84104 12.8515C5.83692 12.6322 5.91902 12.42 6.06968 12.2606C6.22033 12.1012 6.42752 12.0073 6.6467 11.9991C6.86587 11.9909 7.07952 12.069 7.24171 12.2166L8.90839 13.7916L12.7501 9.99994C12.9105 9.86447 13.116 9.79452 13.3258 9.80407C13.5355 9.81363 13.7339 9.90199 13.8813 10.0515C14.0286 10.201 14.1142 10.4006 14.1208 10.6104C14.1273 10.8203 14.0545 11.0248 13.9168 11.1833L9.50839 15.5333C9.43121 15.612 9.33917 15.6747 9.23761 15.7176C9.13605 15.7605 9.02698 15.7828 8.91672 15.7833V15.7833Z" fill="currentColor"/>
</svg>
