<svg width="24" height="24" viewBox="0 0 24 24" fill="none" xmlns="http://www.w3.org/2000/svg">
<path fill-rule="evenodd" clip-rule="evenodd" d="M12 20C16.4183 20 20 16.4183 20 12C20 7.58172 16.4183 4 12 4C7.58172 4 4 7.58172 4 12C4 16.4183 7.58172 20 12 20ZM12 22C17.5228 22 22 17.5228 22 12C22 6.47715 17.5228 2 12 2C6.47715 2 2 6.47715 2 12C2 17.5228 6.47715 22 12 22ZM12 12V9C12 8.44772 11.5523 8 11 8C10.4477 8 10 8.44772 10 9V13C10 13.5523 10.4477 14 11 14H15C15.5523 14 16 13.5523 16 13C16 12.4477 15.5523 12 15 12H12Z" fill="currentColor"/>
</svg>
