<svg width="32" height="32" viewBox="0 0 32 32" fill="none" xmlns="http://www.w3.org/2000/svg">
<path fill-rule="evenodd" clip-rule="evenodd" d="M8.62615 8.62621C9.01667 8.23568 9.64983 8.23568 10.0404 8.62621L23.3737 21.9595C23.7642 22.3501 23.7642 22.9832 23.3737 23.3738C22.9832 23.7643 22.35 23.7643 21.9595 23.3738L8.62615 10.0404C8.23562 9.6499 8.23562 9.01673 8.62615 8.62621Z" fill="currentColor"/>
<path fill-rule="evenodd" clip-rule="evenodd" d="M23.3736 8.62621C23.7641 9.01673 23.7641 9.6499 23.3736 10.0404L10.0403 23.3738C9.64975 23.7643 9.01659 23.7643 8.62606 23.3738C8.23554 22.9832 8.23554 22.3501 8.62606 21.9595L21.9594 8.62621C22.3499 8.23568 22.9831 8.23568 23.3736 8.62621Z" fill="currentColor"/>
</svg>
