<svg width="16" height="16" viewBox="0 0 16 16" fill="none" xmlns="http://www.w3.org/2000/svg">
<path d="M6.60299 10.0825C6.47291 10.0826 6.34652 10.0393 6.24387 9.95937L6.13065 9.87148C5.38837 9.29551 4.91488 8.46478 4.79722 7.5327C4.67971 6.60034 4.93219 5.67828 5.5083 4.9357L7.48754 2.38536C8.67683 0.853261 10.8908 0.574433 12.423 1.76329L12.6496 1.93906C14.1818 3.1285 14.4611 5.34247 13.272 6.87484L12.2826 8.14958C12.0843 8.40578 11.716 8.45215 11.4601 8.2535C11.2043 8.05512 11.1578 7.68668 11.3563 7.43106L12.3456 6.15603C13.1384 5.13434 12.9522 3.65836 11.9308 2.8654L11.7042 2.68964C10.6828 1.89668 9.20687 2.08276 8.41391 3.10443L6.43468 5.65481C6.05065 6.14948 5.88219 6.76437 5.96062 7.38586C6.03891 8.00734 6.35466 8.56126 6.84962 8.94514L6.96297 9.03303C7.21876 9.2317 7.26513 9.59984 7.0666 9.85576C6.95096 10.0046 6.77791 10.0825 6.60299 10.0825Z" fill="currentColor"/>
<path d="M5.37733 14.8196C4.60099 14.8196 3.85095 14.5639 3.22777 14.0801L3.00091 13.9038C1.46895 12.7149 1.1897 10.501 2.37886 8.9683L3.36863 7.69356C3.56716 7.43792 3.93558 7.39155 4.1912 7.58994C4.44699 7.78861 4.49336 8.15675 4.29469 8.41267L3.30506 9.68741C2.51239 10.7088 2.69847 12.1851 3.72 12.9777L3.94686 13.1541C4.44153 13.538 5.056 13.706 5.67777 13.6278C6.29925 13.5497 6.85303 13.2339 7.23705 12.739L9.21628 10.1886C10.009 9.16725 9.82288 7.69127 8.80134 6.89831L8.68841 6.81072C8.43249 6.61263 8.38553 6.24449 8.58378 5.98828C8.78188 5.73264 9.15016 5.68541 9.40636 5.8838L9.51986 5.97169C11.0524 7.16141 11.3316 9.37539 10.1426 10.9078L8.16341 13.4578C7.5873 14.2001 6.7567 14.6739 5.82447 14.7912C5.67616 14.81 5.52682 14.8195 5.37733 14.8196Z" fill="currentColor"/>
</svg>
