<svg width="16" height="16" viewBox="0 0 24 24" fill="none"
    xmlns="http://www.w3.org/2000/svg">
    <path fill-rule="evenodd" clip-rule="evenodd" d="M1.5 5.76667C1.5 4.51482 2.49922 3.5 3.73183 3.5H16.3112C17.5439 3.5 18.5431 4.51482 18.5431 5.76667V14.2152C18.5431 15.467 17.5439 16.4819 16.3112 16.4819H3.73183C2.49922 16.4819 1.5 15.467 1.5 14.2152V5.76667ZM3.73183 5.76667L16.3112 5.76667L16.3112 14.2152L3.73183 14.2152L3.73183 5.76667Z" fill="currentColor"/>
    <path d="M22.5 6.38481C22.5 5.75888 22.0004 5.25147 21.3841 5.25147C20.7678 5.25147 20.2682 5.75888 20.2682 6.38481V17.1C20.2682 17.7259 19.7686 18.2333 19.1523 18.2333H4.34101C3.7247 18.2333 3.22509 18.7407 3.22509 19.3667C3.22509 19.9926 3.7247 20.5 4.34101 20.5H19.1523C21.0012 20.5 22.5 18.9778 22.5 17.1V6.38481Z" fill="currentColor"/>
</svg>
