<svg width="24" height="24" viewBox="0 0 24 24" fill="none" xmlns="http://www.w3.org/2000/svg">
<path d="M9.99921 6.00084C9.73399 6.00084 9.47964 6.10619 9.2921 6.29373C9.10457 6.48127 8.99921 6.73562 8.99921 7.00084L8.99921 18.5908L6.70921 16.2908C6.5209 16.1025 6.26551 15.9967 5.99921 15.9967C5.73291 15.9967 5.47751 16.1025 5.28921 16.2908C5.1009 16.4791 4.99512 16.7345 4.99512 17.0008C4.99512 17.2671 5.1009 17.5225 5.28921 17.7108L9.28921 21.7108C9.42983 21.8496 9.60841 21.9436 9.8024 21.981C9.99638 22.0183 10.1971 21.9974 10.3792 21.9208C10.5618 21.8458 10.7182 21.7184 10.8285 21.5547C10.9388 21.391 10.9982 21.1983 10.9992 21.0008L10.9992 7.00084C10.9992 6.73562 10.8939 6.48127 10.7063 6.29373C10.5188 6.10619 10.2644 6.00084 9.99921 6.00084ZM13.6192 2.08084C13.4366 2.15586 13.2803 2.28325 13.1699 2.44698C13.0596 2.6107 13.0002 2.80341 12.9992 3.00084L12.9992 17.0008C12.9992 17.2661 13.1046 17.5204 13.2921 17.7079C13.4796 17.8955 13.734 18.0008 13.9992 18.0008C14.2644 18.0008 14.5188 17.8955 14.7063 17.7079C14.8939 17.5204 14.9992 17.2661 14.9992 17.0008L14.9992 5.41084L17.2892 7.71084C17.3822 7.80456 17.4928 7.87896 17.6146 7.92973C17.7365 7.9805 17.8672 8.00664 17.9992 8.00664C18.1312 8.00664 18.2619 7.9805 18.3838 7.92973C18.5056 7.87896 18.6162 7.80456 18.7092 7.71084C18.8029 7.61787 18.8773 7.50727 18.9281 7.38541C18.9789 7.26355 19.005 7.13285 19.005 7.00084C19.005 6.86883 18.9789 6.73812 18.9281 6.61626C18.8773 6.4944 18.8029 6.3838 18.7092 6.29084L14.7092 2.29084C14.5686 2.15208 14.39 2.05808 14.196 2.02071C14.002 1.98334 13.8013 2.00426 13.6192 2.08084Z" fill="currentColor"/>
</svg>
