<svg width="12" height="12" viewBox="0 0 12 12" fill="none"
    xmlns="http://www.w3.org/2000/svg">
    <path d="M1.99999 6.00002C2.73637 6.00002 3.33332 5.40307 3.33332 4.66669C3.33332 3.93031 2.73637 3.33335 1.99999 3.33335M1.99999 6.00002C1.26361 6.00002 0.666656 5.40307 0.666656 4.66669C0.666656 3.93031 1.26361 3.33335 1.99999 3.33335M1.99999 6.00002V11.3334M1.99999 3.33335V0.666687M5.99999 10C6.73637 10 7.33332 9.40307 7.33332 8.66669C7.33332 7.93031 6.73637 7.33335 5.99999 7.33335M5.99999 10C5.26361 10 4.66666 9.40307 4.66666 8.66669C4.66666 7.93031 5.26361 7.33335 5.99999 7.33335M5.99999 10V11.3334M5.99999 7.33335V0.666687M9.99999 4.00002C10.7364 4.00002 11.3333 3.40307 11.3333 2.66669C11.3333 1.93031 10.7364 1.33335 9.99999 1.33335M9.99999 4.00002C9.26361 4.00002 8.66666 3.40307 8.66666 2.66669C8.66666 1.93031 9.26361 1.33335 9.99999 1.33335M9.99999 4.00002V11.3334M9.99999 1.33335V0.666687" stroke="currentColor" stroke-linecap="round" stroke-linejoin="round"/>
</svg>
