<svg width="24" height="24" viewBox="0 0 24 24" fill="none" xmlns="http://www.w3.org/2000/svg">
<path fill-rule="evenodd" clip-rule="evenodd" d="M14.0333 1.7542C12.6953 1.33265 11.2648 1.43854 9.99512 2.04855C8.72812 2.65726 7.71316 3.72262 7.10667 5.04164C6.76857 5.77694 6.66043 6.66774 6.6212 7.50912C6.59319 8.11005 6.59916 8.76147 6.60485 9.38136C6.60491 9.38757 6.60496 9.3938 6.60502 9.40001H5.5C4.39543 9.40001 3.5 10.2954 3.5 11.4V20.4C3.5 21.5046 4.39543 22.4 5.5 22.4H18.5C19.6046 22.4 20.5 21.5046 20.5 20.4V11.4C20.5 10.2954 19.6046 9.40001 18.5 9.40001H18.0853C18.0808 8.54045 18.0627 7.69399 17.9908 6.93242C17.9014 5.98538 17.7193 5.02853 17.2734 4.31329C16.5096 3.08822 15.369 2.17502 14.0333 1.7542ZM16.2852 9.40001C16.2807 8.56079 16.2633 7.7848 16.1988 7.10155C16.114 6.20363 15.9577 5.60519 15.7459 5.26556C15.1944 4.38089 14.3924 3.75457 13.4924 3.47101C12.5947 3.18819 11.6361 3.25711 10.7746 3.67101C9.9104 4.08621 9.18522 4.82984 8.74207 5.79361C8.55534 6.19971 8.45621 6.8001 8.41925 7.59294C8.39368 8.14134 8.39896 8.71064 8.40449 9.30775C8.40478 9.33843 8.40506 9.36918 8.40534 9.40001H16.2852ZM5.5 11.2H18.5C18.6105 11.2 18.7 11.2895 18.7 11.4V20.4C18.7 20.5105 18.6105 20.6 18.5 20.6H5.5C5.38954 20.6 5.3 20.5105 5.3 20.4V11.4C5.3 11.2895 5.38954 11.2 5.5 11.2Z" fill="#DF4F51"/>
<path d="M12.4932 16.317C13.0793 16.1131 13.5 15.5557 13.5 14.9C13.5 14.0716 12.8284 13.4 12 13.4C11.1716 13.4 10.5 14.0716 10.5 14.9C10.5 15.5557 10.9207 16.1131 11.5068 16.317C11.5023 16.344 11.5 16.3717 11.5 16.4V17.9C11.5 18.1761 11.7239 18.4 12 18.4C12.2761 18.4 12.5 18.1761 12.5 17.9V16.4C12.5 16.3717 12.4977 16.344 12.4932 16.317Z" fill="#DF4F51"/>
</svg>
