<svg width="64" height="64" viewBox="0 0 64 64" fill="none"
    xmlns="http://www.w3.org/2000/svg">
    <path fill-rule="evenodd" clip-rule="evenodd" d="M14 45.1618H50C51.1257 45.1618 52 45.9858 52 47.0424C52 48.1005 51.1257 48.9231 50 48.9231H14C12.8743 48.9231 12 48.1005 12 47.0424C12 45.9844 12.8743 45.1618 14 45.1618ZM50 33.8806H14C12.8743 33.8806 12 33.0565 12 32C12 30.9419 12.8743 30.1193 14 30.1193H50C51.1257 30.1193 52 30.9434 52 32C52 33.058 51.1257 33.8806 50 33.8806ZM14 18.8383H50C51.1257 18.8383 52 18.0157 52 16.9576C52 15.8996 51.1257 15.077 50 15.077H14C12.8743 15.077 12 15.8996 12 16.9576C12 18.0142 12.8743 18.8383 14 18.8383Z" fill="currentColor"/>
</svg>
