<svg width="36" height="36" viewBox="0 0 36 36" fill="none" xmlns="http://www.w3.org/2000/svg">
<path d="M7 18C7 16.8954 7.89543 16 9 16C10.1046 16 11 16.8954 11 18C11 19.1046 10.1046 20 9 20C7.89543 20 7 19.1046 7 18Z" fill="currentColor"/>
<path d="M16 18C16 16.8954 16.8954 16 18 16C19.1046 16 20 16.8954 20 18C20 19.1046 19.1046 20 18 20C16.8954 20 16 19.1046 16 18Z" fill="currentColor"/>
<path d="M25 18C25 16.8954 25.8954 16 27 16C28.1046 16 29 16.8954 29 18C29 19.1046 28.1046 20 27 20C25.8954 20 25 19.1046 25 18Z" fill="currentColor"/>
</svg>
