<svg width="64" height="64" viewBox="0 0 64 64" fill="none"
    xmlns="http://www.w3.org/2000/svg">
    <path fill-rule="evenodd" clip-rule="evenodd" d="M13.9981 45.4698H49.9992C51.1249 45.4698 51.9992 46.2939 51.9992 47.3505C51.9992 48.4086 51.1249 49.2312 49.9992 49.2312H13.9981C12.8724 49.2312 11.998 48.4086 11.998 47.3505C11.998 46.2924 12.8724 45.4698 13.9981 45.4698ZM50.769 33.8461H28.6145C27.9217 33.8461 27.3837 33.172 27.3837 32.3076C27.3837 31.4421 27.9217 30.7691 28.6145 30.7691H50.769C51.4617 30.7691 51.9998 31.4433 51.9998 32.3076C51.9998 33.1732 51.4617 33.8461 50.769 33.8461ZM13.9981 19.1456H49.9992C51.1249 19.1456 51.9992 18.3229 51.9992 17.2648C51.9992 16.2067 51.1249 15.3841 49.9992 15.3841H13.9981C12.8724 15.3841 11.998 16.2067 11.998 17.2648C11.998 18.3214 12.8724 19.1456 13.9981 19.1456Z" fill="currentColor"/>
    <path d="M49.9992 45.6698H13.9981V45.2698H49.9992V45.6698ZM51.7992 47.3505C51.7992 46.4156 51.0261 45.6698 49.9992 45.6698V45.2698C51.2237 45.2698 52.1992 46.1721 52.1992 47.3505H51.7992ZM49.9992 49.0312C51.0262 49.0312 51.7992 48.2867 51.7992 47.3505H52.1992C52.1992 48.5304 51.2236 49.4312 49.9992 49.4312V49.0312ZM13.9981 49.0312H49.9992V49.4312H13.9981V49.0312ZM12.198 47.3505C12.198 48.2867 12.9711 49.0312 13.9981 49.0312V49.4312C12.7736 49.4312 11.798 48.5304 11.798 47.3505H12.198ZM13.9981 45.6698C12.9711 45.6698 12.198 46.4142 12.198 47.3505H11.798C11.798 46.1705 12.7736 45.2698 13.9981 45.2698V45.6698ZM28.6145 33.6461H50.769V34.0461H28.6145V33.6461ZM27.5837 32.3076C27.5837 33.1056 28.0716 33.6461 28.6145 33.6461V34.0461C27.7718 34.0461 27.1837 33.2383 27.1837 32.3076H27.5837ZM28.6145 30.9691C28.0715 30.9691 27.5837 31.5085 27.5837 32.3076H27.1837C27.1837 31.3756 27.7719 30.5691 28.6145 30.5691V30.9691ZM50.769 30.9691H28.6145V30.5691H50.769V30.9691ZM51.7998 32.3076C51.7998 31.5096 51.3118 30.9691 50.769 30.9691V30.5691C51.6116 30.5691 52.1998 31.3769 52.1998 32.3076H51.7998ZM50.769 33.6461C51.3119 33.6461 51.7998 33.1067 51.7998 32.3076H52.1998C52.1998 33.2396 51.6116 34.0461 50.769 34.0461V33.6461ZM49.9992 19.3456H13.9981V18.9456H49.9992V19.3456ZM52.1992 17.2648C52.1992 18.4448 51.2236 19.3456 49.9992 19.3456V18.9456C51.0262 18.9456 51.7992 18.2011 51.7992 17.2648H52.1992ZM49.9992 15.1841C51.2236 15.1841 52.1992 16.0849 52.1992 17.2648H51.7992C51.7992 16.3286 51.0262 15.5841 49.9992 15.5841V15.1841ZM13.9981 15.1841H49.9992V15.5841H13.9981V15.1841ZM11.798 17.2648C11.798 16.0849 12.7736 15.1841 13.9981 15.1841V15.5841C12.9711 15.5841 12.198 16.3286 12.198 17.2648H11.798ZM13.9981 19.3456C12.7735 19.3456 11.798 18.4432 11.798 17.2648H12.198C12.198 18.1997 12.9712 18.9456 13.9981 18.9456V19.3456Z" fill="currentColor"/>
    <path d="M12.5 32.866C11.8333 32.4811 11.8333 31.5189 12.5 31.134L21.5 25.9378C22.1667 25.5529 23 26.034 23 26.8038L23 37.1962C23 37.966 22.1667 38.4471 21.5 38.0622L12.5 32.866Z" fill="currentColor"/>
</svg>
