<svg width="16" height="16" viewBox="0 0 16 16" fill="none" xmlns="http://www.w3.org/2000/svg">
<path d="M1.81963 14.6667C1.6853 14.6495 1.56178 14.5835 1.47226 14.481C1.38273 14.3785 1.33334 14.2466 1.33334 14.11C1.33334 13.9734 1.38273 13.8415 1.47226 13.7391C1.56178 13.6366 1.6853 13.5706 1.81963 13.5534H14.1804C14.3147 13.5706 14.4382 13.6366 14.5277 13.7391C14.6173 13.8415 14.6667 13.9734 14.6667 14.11C14.6667 14.2466 14.6173 14.3785 14.5277 14.481C14.4382 14.5835 14.3147 14.6495 14.1804 14.6667H1.81963ZM11.9996 1.59232L13.2445 2.8481C13.4089 3.01497 13.5012 3.2407 13.5012 3.47599C13.5012 3.71128 13.4089 3.93701 13.2445 4.10388L5.35127 12.0393C5.26877 12.1219 5.17093 12.1872 5.06336 12.2315C4.95579 12.2758 4.8406 12.2983 4.7244 12.2976H3.08219C2.96511 12.2976 2.85282 12.2507 2.77004 12.1672C2.68725 12.0837 2.64074 11.9704 2.64074 11.8523V10.1512C2.64006 10.034 2.66234 9.91781 2.70627 9.80929C2.75021 9.70078 2.81495 9.60209 2.89678 9.51887L10.7547 1.59232C10.9201 1.42644 11.1439 1.33334 11.3771 1.33334C11.6104 1.33334 11.8342 1.42644 11.9996 1.59232ZM3.74437 10.2403V11.1843H4.68026L12.3174 3.48044L11.3815 2.52748L3.74437 10.2403Z" fill="currentColor"/>
</svg>
