<svg width="24" height="24" viewBox="0 0 24 24" fill="none" xmlns="http://www.w3.org/2000/svg">
<path fill-rule="evenodd" clip-rule="evenodd" d="M7.9 2C7.40294 2 7 2.40294 7 2.9V4H4C2.89543 4 2 4.89543 2 6V20C2 21.1046 2.89543 22 4 22H20C21.1046 22 22 21.1046 22 20V6C22 4.89543 21.1046 4 20 4H16.8V2.9C16.8 2.40294 16.3971 2 15.9 2C15.4029 2 15 2.40294 15 2.9V4H8.8V2.9C8.8 2.40294 8.39706 2 7.9 2ZM7 5.8V7.1C7 7.59706 7.40294 8 7.9 8C8.39706 8 8.8 7.59706 8.8 7.1V5.8H15V7.1C15 7.59706 15.4029 8 15.9 8C16.3971 8 16.8 7.59706 16.8 7.1V5.8H20C20.1105 5.8 20.2 5.88954 20.2 6V10.0055C20.1672 10.0019 20.1338 10 20.1 10L3.9 10C3.8662 10 3.83283 10.0019 3.8 10.0055V6C3.8 5.88954 3.88954 5.8 4 5.8H7ZM3.8 11.7945V20C3.8 20.1105 3.88954 20.2 4 20.2H20C20.1105 20.2 20.2 20.1105 20.2 20V11.7945C20.1672 11.7981 20.1338 11.8 20.1 11.8L3.9 11.8C3.8662 11.8 3.83283 11.7981 3.8 11.7945Z" fill="#3F2D99"/>
</svg>
