<svg width="25" height="24" viewBox="0 0 25 24" fill="none" xmlns="http://www.w3.org/2000/svg">
<path fill-rule="evenodd" clip-rule="evenodd" d="M18.319 10.99H13.089V5.76C13.089 5.2 12.639 4.75 12.079 4.75C11.519 4.75 11.069 5.2 11.069 5.76V11H5.83898C5.27898 10.99 4.82898 11.44 4.82898 12C4.82898 12.56 5.27898 13.01 5.83898 13.01H11.079V18.25C11.079 18.81 11.529 19.26 12.089 19.26C12.649 19.26 13.099 18.81 13.099 18.25V13.01H18.339C18.899 13.01 19.349 12.56 19.349 12C19.329 11.44 18.879 10.99 18.319 10.99Z" fill="currentColor"/>
</svg>
