<svg width="16" height="16" viewBox="0 0 16 16" fill="none" xmlns="http://www.w3.org/2000/svg">
<path fill-rule="evenodd" clip-rule="evenodd" d="M8.16658 1.6665C11.7564 1.6665 14.6666 4.57665 14.6666 8.1665C14.6666 11.7564 11.7564 14.6665 8.16658 14.6665C4.57673 14.6665 1.66658 11.7564 1.66658 8.1665C1.66658 4.57665 4.57673 1.6665 8.16658 1.6665ZM8.16658 2.84832C5.22943 2.84832 2.8484 5.22935 2.8484 8.1665C2.8484 11.1037 5.22943 13.4847 8.16658 13.4847C11.1037 13.4847 13.4848 11.1037 13.4848 8.1665C13.4848 5.22935 11.1037 2.84832 8.16658 2.84832ZM8.46203 10.5301C8.62521 10.5301 8.75749 10.6624 8.75749 10.8256V11.4165C8.75749 11.5797 8.62521 11.712 8.46203 11.712H7.87113C7.70795 11.712 7.57567 11.5797 7.57567 11.4165V10.8256C7.57567 10.6624 7.70795 10.5301 7.87113 10.5301H8.46203ZM8.08266 4.62105C8.78508 4.62105 9.3686 4.79115 9.83325 5.13135C10.2979 5.47156 10.5302 5.97556 10.5302 6.64337C10.5302 7.05288 10.4292 7.3978 10.2272 7.67816C10.1091 7.84826 9.8822 8.06561 9.54653 8.33021L9.21553 8.59009C9.03527 8.73184 8.91561 8.89722 8.85656 9.08622C8.84049 9.1378 8.82636 9.23369 8.81419 9.37388C8.80094 9.52657 8.67311 9.64378 8.51984 9.64378H7.85837C7.6952 9.64377 7.56292 9.5115 7.56292 9.34832C7.56292 9.33923 7.56334 9.33015 7.56418 9.3211C7.60222 8.90989 7.64296 8.64968 7.68639 8.54048C7.7672 8.3373 7.97544 8.10341 8.3111 7.83881L8.65143 7.56948C8.76332 7.48443 9.33987 7.07843 9.33987 6.71897C9.33987 6.35951 9.27725 6.2273 9.09677 6.03002C8.91629 5.83274 8.51002 5.76924 8.14327 5.76924C7.78274 5.76924 7.47465 5.86498 7.32392 6.10753C7.2541 6.21987 7.19701 6.33972 7.15584 6.46199C7.13964 6.5101 7.12528 6.57062 7.11278 6.64355C7.08846 6.78539 6.96548 6.88907 6.82157 6.88907H6.12598C5.9628 6.88908 5.83051 6.7568 5.83051 6.59362C5.83051 6.58247 5.83115 6.57132 5.83241 6.56024C5.83991 6.4942 5.84761 6.43925 5.85548 6.39541C5.97067 5.75393 6.2624 5.28218 6.73068 4.98015C7.09743 4.74075 7.54808 4.62105 8.08266 4.62105Z" fill="currentColor"/>
</svg>
