<svg width="20" height="20" viewBox="0 0 20 20" fill="none" xmlns="http://www.w3.org/2000/svg">
<path fill-rule="evenodd" clip-rule="evenodd" d="M2.5 4.29183C2.5 3.76256 2.92906 3.3335 3.45833 3.3335H10.7083C11.2376 3.3335 11.6667 3.76256 11.6667 4.29183C11.6667 4.8211 11.2376 5.25016 10.7083 5.25016H3.45834C2.92906 5.25016 2.5 4.8211 2.5 4.29183ZM2.5 8.16687C2.5 7.70663 2.8731 7.33354 3.33333 7.33354H9.16667C9.6269 7.33354 10 7.70663 10 8.16687C10 8.62711 9.6269 9.0002 9.16667 9.0002H3.33333C2.8731 9.0002 2.5 8.62711 2.5 8.16687ZM3.33333 11.0835C2.8731 11.0835 2.5 11.4566 2.5 11.9169C2.5 12.3771 2.8731 12.7502 3.33333 12.7502H6.66667C7.1269 12.7502 7.5 12.3771 7.5 11.9169C7.5 11.4566 7.1269 11.0835 6.66667 11.0835H3.33333ZM2.5 15.6669C2.5 15.2066 2.8731 14.8335 3.33333 14.8335H6.66667C7.1269 14.8335 7.5 15.2066 7.5 15.6669C7.5 16.1271 7.1269 16.5002 6.66667 16.5002H3.33333C2.8731 16.5002 2.5 16.1271 2.5 15.6669ZM15.8333 4.16683C15.8333 3.70659 15.4602 3.3335 15 3.3335C14.5398 3.3335 14.1667 3.70659 14.1667 4.16683V14.0718L13.0176 12.9228C12.6922 12.5974 12.1646 12.5974 11.8391 12.9228C11.5137 13.2482 11.5137 13.7759 11.8391 14.1013L14.1962 16.4583C14.3772 16.6393 14.6207 16.7197 14.8573 16.6993C15.0214 16.7134 15.1889 16.679 15.3365 16.5961C15.4949 16.5261 15.6274 16.4082 15.7156 16.2608L17.8751 14.1013C18.2005 13.7758 18.2005 13.2482 17.8751 12.9228C17.5497 12.5973 17.022 12.5973 16.6966 12.9228L15.8333 13.786L15.8333 4.16683Z" fill="currentColor"/>
</svg>
