<svg width="16" height="16" viewBox="0 0 16 16" fill="none" xmlns="http://www.w3.org/2000/svg">
<path fill-rule="evenodd" clip-rule="evenodd" d="M4.53317 2.66683H11.1584C11.431 2.66683 11.6761 2.8328 11.7774 3.0859L13.644 7.75257C13.7076 7.91151 13.7076 8.08882 13.644 8.24776L11.7774 12.9144C11.6761 13.1675 11.431 13.3335 11.1584 13.3335H4.51244C4.25236 13.3335 4.01848 13.1752 3.92189 12.9337L2.04752 8.24776C1.98394 8.08882 1.98394 7.91151 2.04752 7.75257L3.91419 3.0859C4.01543 2.8328 4.26057 2.66683 4.53317 2.66683ZM2.67622 2.59072C2.97994 1.8314 3.71536 1.3335 4.53317 1.3335H11.1584C11.9762 1.3335 12.7116 1.8314 13.0153 2.59071L14.882 7.25738C15.0727 7.7342 15.0727 8.26612 14.882 8.74294L13.0153 13.4096C12.7116 14.1689 11.9762 14.6668 11.1584 14.6668H4.51244C3.70715 14.6668 2.98299 14.1766 2.68392 13.4289L0.809551 8.74294C0.618822 8.26612 0.618822 7.7342 0.80955 7.25738L2.67622 2.59072ZM9.17887 8.00016C9.17887 8.73654 8.58192 9.3335 7.84554 9.3335C7.10916 9.3335 6.51221 8.73654 6.51221 8.00016C6.51221 7.26378 7.10916 6.66683 7.84554 6.66683C8.58192 6.66683 9.17887 7.26378 9.17887 8.00016ZM10.5122 8.00016C10.5122 9.47292 9.3183 10.6668 7.84554 10.6668C6.37278 10.6668 5.17887 9.47292 5.17887 8.00016C5.17887 6.5274 6.37278 5.3335 7.84554 5.3335C9.3183 5.3335 10.5122 6.5274 10.5122 8.00016Z" fill="currentColor"/>
</svg>
