<svg width="12" height="12" viewBox="0 0 12 12" fill="none"
    xmlns="http://www.w3.org/2000/svg">

    <g mask="url(#mask0_19148_81392)">
        <path d="M10.4531 10.876H1.57031C1.33711 10.876 1.14844 10.6873 1.14844 10.4541V1.57129C1.14844 1.33809 1.33711 1.14941 1.57031 1.14941H5.25117C5.48437 1.14941 5.67305 1.33809 5.67305 1.57129C5.67305 1.80449 5.48437 1.99316 5.25117 1.99316H1.99219V10.0322H10.0313V6.79199C10.0313 6.55879 10.2199 6.37012 10.4531 6.37012C10.6863 6.37012 10.875 6.55879 10.875 6.79199V10.4541C10.875 10.6873 10.6863 10.876 10.4531 10.876Z" fill="currentColor"/>
        <path d="M10.8735 1.54219V1.53633C10.8724 1.51641 10.8688 1.49766 10.8653 1.47891C10.8653 1.47891 10.8653 1.47656 10.8642 1.47539C10.8595 1.45547 10.8536 1.43672 10.8466 1.41797V1.4168C10.8395 1.39805 10.8302 1.38047 10.8208 1.36289L10.8196 1.36055C10.8103 1.34414 10.7997 1.32773 10.788 1.3125C10.7868 1.31133 10.7856 1.30898 10.7845 1.30781C10.7786 1.30078 10.7739 1.29492 10.7681 1.28789L10.7669 1.28555C10.761 1.27852 10.7552 1.27266 10.7481 1.2668L10.7435 1.26211C10.7376 1.25625 10.7306 1.25039 10.7247 1.24453L10.7235 1.24336C10.7165 1.2375 10.7095 1.23164 10.7013 1.22695C10.7001 1.22578 10.6978 1.22461 10.6966 1.22344C10.6802 1.21172 10.6638 1.20234 10.6462 1.19297L10.645 1.1918C10.6263 1.18242 10.6075 1.17422 10.5876 1.16836C10.5688 1.1625 10.5489 1.15664 10.529 1.1543C10.529 1.1543 10.5267 1.1543 10.5255 1.15312L10.4974 1.14961H10.4938C10.4856 1.14844 10.4786 1.14844 10.4704 1.14844H7.50088C7.26768 1.14844 7.079 1.33711 7.079 1.57031C7.079 1.80352 7.26768 1.99219 7.50088 1.99219H9.43447L5.71377 5.71406C5.54854 5.8793 5.54854 6.14649 5.71377 6.31055C5.7958 6.39258 5.90361 6.43359 6.0126 6.43359C6.12041 6.43359 6.22822 6.39258 6.31143 6.31055L10.031 2.58984V4.49766C10.031 4.73086 10.2196 4.91953 10.4528 4.91953C10.686 4.91953 10.8747 4.73086 10.8747 4.49766V1.57148C10.8747 1.56211 10.8747 1.55156 10.8735 1.54219Z" fill="currentColor"/>
    </g>
</svg>
