<svg width="24" height="24" viewBox="0 0 24 24" fill="none" xmlns="http://www.w3.org/2000/svg">
<path d="M0.640535 7.69486C0.251163 8.00382 0.185974 8.56992 0.494931 8.9593C0.803888 9.34867 1.37 9.41386 1.75937 9.1049L0.640535 7.69486ZM4.61048 6.08801L4.29948 6.93257L4.61048 6.08801ZM2.33679 16.7999L1.47014 16.5572C1.36317 16.9392 1.51887 17.3461 1.85347 17.5591C2.18807 17.7722 2.62267 17.741 2.92347 17.4824L2.33679 16.7999ZM11.4315 10.5102L11.149 11.3647L11.4315 10.5102ZM13.7052 14.4567L13.9877 13.6022L13.7052 14.4567ZM23.1318 11.4349C23.5939 11.2516 23.8198 10.7284 23.6365 10.2664C23.4532 9.80438 22.9301 9.57843 22.4681 9.76173L23.1318 11.4349ZM1.75937 9.1049C2.05141 8.87318 2.35263 8.56342 2.61937 8.28653C2.90335 7.99174 3.16774 7.71308 3.43553 7.46977C3.70719 7.22295 3.92862 7.06344 4.10399 6.98251C4.18636 6.94449 4.23885 6.93327 4.26595 6.93047C4.288 6.92819 4.29499 6.93091 4.29948 6.93257L4.92147 5.24345C4.33967 5.02921 3.78576 5.14694 3.34976 5.34814C2.92614 5.54364 2.54427 5.84754 2.2251 6.13753C1.90207 6.43103 1.58812 6.76255 1.32304 7.03772C1.04073 7.33077 0.822182 7.55073 0.640535 7.69486L1.75937 9.1049ZM4.29948 6.93257C4.06833 6.84745 4.05078 6.66168 4.07443 6.76233C4.09801 6.86264 4.1123 7.06952 4.07882 7.41512C4.01313 8.09308 3.79397 9.03309 3.48433 10.1209C3.17792 11.1975 2.79838 12.3668 2.43146 13.4921C2.06785 14.6072 1.71332 15.6889 1.47014 16.5572L3.20345 17.0426C3.43395 16.2196 3.77416 15.1806 4.14278 14.0501C4.5081 12.9297 4.8983 11.7284 5.21557 10.6137C5.52962 9.51037 5.78808 8.43864 5.87043 7.58869C5.91096 7.17034 5.91686 6.73422 5.8267 6.35055C5.73662 5.96722 5.5 5.45648 4.92147 5.24345L4.29948 6.93257ZM2.92347 17.4824C4.34694 16.2588 6.28716 14.6028 8.02187 13.3052C8.89208 12.6542 9.68444 12.1134 10.3188 11.764C10.6377 11.5884 10.8874 11.4775 11.0682 11.421C11.2805 11.3546 11.2684 11.4042 11.149 11.3647L11.714 9.6557C11.2833 9.51328 10.8421 9.60579 10.5311 9.703C10.1885 9.8101 9.82049 9.98348 9.45038 10.1873C8.70677 10.5969 7.83619 11.1962 6.9437 11.8638C5.15302 13.2032 3.16875 14.898 1.75012 16.1174L2.92347 17.4824ZM11.149 11.3647C11.3064 11.4168 11.4392 11.5247 11.5715 11.7582C11.7158 12.0129 11.8222 12.352 11.9309 12.7819C12.0266 13.1604 12.1384 13.6816 12.2937 14.0892C12.4435 14.4826 12.744 15.0868 13.4227 15.3112L13.9877 13.6022C14.1272 13.6483 14.087 13.7406 13.9758 13.4486C13.8701 13.171 13.8006 12.8335 13.6759 12.3405C13.5642 11.8987 13.4109 11.3533 13.1376 10.8709C12.8522 10.3673 12.4093 9.88555 11.714 9.6557L11.149 11.3647ZM13.4227 15.3112C14.1573 15.5541 15.0166 15.3526 15.7417 15.1003C16.5181 14.8301 17.3838 14.41 18.2442 13.9588C20.029 13.023 21.7684 11.9758 23.1318 11.4349L22.4681 9.76173C20.9894 10.3484 19.034 11.5123 17.4083 12.3647C16.5635 12.8077 15.7949 13.1759 15.1503 13.4002C14.4544 13.6423 14.1058 13.6412 13.9877 13.6022L13.4227 15.3112Z" fill="black" fill-opacity="0.5"/>
</svg>
