<svg width="24" height="24" viewBox="0 0 24 24" fill="none" xmlns="http://www.w3.org/2000/svg">
<path d="M10.4603 13.1929C10.4603 13.7143 10.8916 14.0643 12.2308 14.3857C13.5624 14.7143 14.9924 15.2571 15 16.8286C14.9924 17.9786 14.0845 18.6 12.9344 18.8071V20H11.1639V18.7857C10.029 18.5643 9.07566 17.8786 9 16.6643H10.3014C10.3695 17.3214 10.8462 17.8357 12.0567 17.8357C13.3506 17.8357 13.6457 17.2214 13.6457 16.8429C13.6457 16.3286 13.3506 15.8357 11.8752 15.5071C10.2333 15.1357 9.10593 14.4929 9.10593 13.2143C9.10593 12.1357 10.0214 11.4357 11.1639 11.2071V10H12.9269V11.2214C14.1526 11.5071 14.773 12.3857 14.8108 13.3429H13.517C13.4868 12.6429 13.0933 12.1714 12.0492 12.1714C11.058 12.1714 10.4603 12.5929 10.4603 13.1929Z" fill="currentColor"/>
<path fill-rule="evenodd" clip-rule="evenodd" d="M6.98475 1.97072C8.31987 1.35451 10.094 1 12 1C13.906 1 15.6801 1.35451 17.0153 1.97072C18.2654 2.54772 19.5 3.5464 19.5 5C19.5 6.05995 18.8435 6.87801 18.0033 7.46708C19.9732 10.0765 21.3685 13.2221 22.3075 15.8639C23.6229 19.5646 20.6852 23.0001 16.9671 23.0001H7.01025C3.30208 23.0001 0.365149 19.5799 1.67499 15.8842C2.61097 13.2433 4.00851 10.0943 5.99649 7.46691C5.15633 6.87786 4.5 6.05985 4.5 5C4.5 3.5464 5.73457 2.54772 6.98475 1.97072ZM16.114 8.38364C14.9317 8.7772 13.5191 8.99759 12.0246 8.99998L12.0169 9.00004L12.0089 9.00008L12.0063 9.00008L12.0038 9.00008L12.0002 9.00008L11.9922 9.00004L11.986 8.99999C10.4796 8.99862 9.05612 8.7758 7.86729 8.37739L7.82952 8.36574C5.89854 10.8074 4.50612 13.8831 3.56009 16.5523C2.78152 18.7491 4.46688 21.0001 7.01025 21.0001H16.9671C19.5162 21.0001 21.2066 18.7383 20.423 16.5338C19.4726 13.8599 18.082 10.7876 16.171 8.36611L16.114 8.38364ZM16.1771 6.21336C15.9711 6.30847 15.7462 6.39732 15.5046 6.47855C14.7662 6.70116 14.0035 6.83135 13.3642 6.90584C12.9572 6.95327 12.6112 6.9769 12.369 6.98863C12.248 6.99449 12.1536 6.99736 12.0909 6.99875C12.0596 6.99945 12.0363 6.99979 12.0217 6.99994L12.0161 6.99999L11.994 7L11.9873 6.99994C11.9727 6.99979 11.9493 6.99945 11.9179 6.99875C11.8551 6.99735 11.7603 6.99449 11.6391 6.98863C11.3963 6.97689 11.0494 6.95325 10.6415 6.90581C9.99595 6.83074 9.22485 6.6991 8.47999 6.47335C8.24424 6.39353 8.02454 6.30644 7.82287 6.21336C6.7205 5.70458 6.5 5.20325 6.5 5C6.5 4.79674 6.7205 4.29542 7.82287 3.78664C8.84028 3.31706 10.3161 3 12 3C13.6839 3 15.1597 3.31706 16.1771 3.78664C17.2795 4.29542 17.5 4.79674 17.5 5C17.5 5.20325 17.2795 5.70458 16.1771 6.21336Z" fill="currentColor"/>
</svg>
