<svg width="24" height="24" viewBox="0 0 24 24" fill="none" xmlns="http://www.w3.org/2000/svg">
<path fill-rule="evenodd" clip-rule="evenodd" d="M4.5 2C4.02633 2 3.61763 2.33233 3.52102 2.79605L1.02531 14.7755C1.01617 14.8153 1.00942 14.856 1.00519 14.8975C1.00087 14.9389 0.999181 14.9802 1 15.021V21.5C1 22.0523 1.44772 22.5 2 22.5H22C22.5523 22.5 23 22.0523 23 21.5V15.021C23.0008 14.9802 22.9991 14.9389 22.9948 14.8975C22.9906 14.856 22.9838 14.8153 22.9747 14.7755L20.479 2.79605C20.3824 2.33233 19.9737 2 19.5 2H4.5ZM20.7702 14L18.6869 4H5.31314L3.22981 14H7.45455C7.89513 14 8.2838 14.2883 8.41158 14.71L9.10553 17H14.8945L15.5884 14.71C15.7162 14.2883 16.1049 14 16.5455 14H20.7702ZM3 20.5V16H6.71268L7.40663 18.29C7.5344 18.7117 7.92307 19 8.36365 19H15.6364C16.0769 19 16.4656 18.7117 16.5934 18.29L17.2873 16H21V20.5H3ZM8.5 7C8.5 6.44772 8.94772 6 9.5 6H14.5C15.0523 6 15.5 6.44772 15.5 7C15.5 7.55228 15.0523 8 14.5 8H9.5C8.94772 8 8.5 7.55228 8.5 7ZM8 10C7.44772 10 7 10.4477 7 11C7 11.5523 7.44772 12 8 12H16C16.5523 12 17 11.5523 17 11C17 10.4477 16.5523 10 16 10H8Z" fill="currentColor"/>
</svg>
