<svg width="24" height="24" viewBox="0 0 24 24" fill="none" xmlns="http://www.w3.org/2000/svg">
<path fill-rule="evenodd" clip-rule="evenodd" d="M6.09962 2.99998C6.09962 2.50292 6.50257 2.09998 6.99962 2.09998H10.9996C11.4967 2.09998 11.8996 2.50292 11.8996 2.99998V6.99998C11.8996 7.49703 11.4967 7.89998 10.9996 7.89998C10.5026 7.89998 10.0996 7.49703 10.0996 6.99998V5.17277L3.13602 12.1364C2.78455 12.4878 2.2147 12.4878 1.86323 12.1364C1.51176 11.7849 1.51176 11.2151 1.86323 10.8636L8.82683 3.89998H6.99962C6.50257 3.89998 6.09962 3.49703 6.09962 2.99998ZM20.2 5V20C20.2 20.1105 20.1105 20.2 20 20.2H4.00002C3.88956 20.2 3.80002 20.1105 3.80002 20V17C3.80002 16.8895 3.88956 16.8 4.00002 16.8H7.80002C8.90459 16.8 9.80002 15.9046 9.80002 14.8V12C9.80002 11.8895 9.88956 11.8 10 11.8H13.8C14.9046 11.8 15.8 10.9046 15.8 9.8V5C15.8 4.88954 15.8896 4.8 16 4.8H20C20.1105 4.8 20.2 4.88954 20.2 5ZM22 20V5C22 3.89543 21.1046 3 20 3H16C14.8954 3 14 3.89543 14 5V9.8C14 9.91046 13.9105 10 13.8 10H10C8.89545 10 8.00002 10.8954 8.00002 12V14.8C8.00002 14.9105 7.91047 15 7.80002 15H4.00002C2.89545 15 2.00002 15.8954 2.00002 17V20C2.00002 21.1046 2.89545 22 4.00002 22H20C21.1046 22 22 21.1046 22 20Z" fill="currentColor"/>
</svg>
