<svg width="20" height="20" viewBox="0 0 20 20" fill="none" xmlns="http://www.w3.org/2000/svg">
<path d="M9.99999 4.91683C10.9667 4.91683 11.75 5.70016 11.75 6.66683C11.75 7.6335 10.9667 8.41683 9.99999 8.41683C9.03333 8.41683 8.24999 7.6335 8.24999 6.66683C8.24999 5.70016 9.03333 4.91683 9.99999 4.91683ZM9.99999 12.4168C12.475 12.4168 15.0833 13.6335 15.0833 14.1668V15.0835H4.91666V14.1668C4.91666 13.6335 7.52499 12.4168 9.99999 12.4168ZM9.99999 3.3335C8.15833 3.3335 6.66666 4.82516 6.66666 6.66683C6.66666 8.5085 8.15833 10.0002 9.99999 10.0002C11.8417 10.0002 13.3333 8.5085 13.3333 6.66683C13.3333 4.82516 11.8417 3.3335 9.99999 3.3335ZM9.99999 10.8335C7.77499 10.8335 3.33333 11.9502 3.33333 14.1668V16.6668H16.6667V14.1668C16.6667 11.9502 12.225 10.8335 9.99999 10.8335Z" fill="currentColor"/>
</svg>
