;<svg width="16" height="16" viewBox="0 0 16 16" fill="none" xmlns="http://www.w3.org/2000/svg">
  <path
    d="M8 15.5C3.858 15.5 0.5 12.142 0.5 8C0.5 3.858 3.858 0.5 8 0.5C12.142 0.5 15.5 3.858 15.5 8C15.5 12.142 12.142 15.5 8 15.5ZM8 14.5C11.59 14.5 14.5 11.59 14.5 8C14.5 4.41 11.59 1.5 8 1.5C4.41 1.5 1.5 4.41 1.5 8C1.5 11.59 4.41 14.5 8 14.5Z"
    fill="currentColor"
  />
  <path
    d="M8.625 9.4015V9.752H7.375V9.4015C7.375 8.6 7.753 7.842 8.294 7.2655C8.7075 6.8245 8.696 6.837 8.814 6.697C9.126 6.3255 9.25 6.06 9.25 5.75C9.25 5.41848 9.1183 5.10054 8.88388 4.86612C8.64946 4.6317 8.33152 4.5 8 4.5C7.66848 4.5 7.35054 4.6317 7.11612 4.86612C6.8817 5.10054 6.75 5.41848 6.75 5.75H5.5C5.5 5.08696 5.76339 4.45107 6.23223 3.98223C6.70107 3.51339 7.33696 3.25 8 3.25C8.66304 3.25 9.29893 3.51339 9.76777 3.98223C10.2366 4.45107 10.5 5.08696 10.5 5.75C10.5 6.401 10.255 6.925 9.771 7.501C9.6895 7.598 9.601 7.6975 9.492 7.815C9.45 7.86 9.407 7.907 9.349 7.968L9.206 8.1205C8.863 8.4855 8.625 8.963 8.625 9.4015ZM8.529 11.2185C8.6765 11.364 8.75 11.5415 8.75 11.75C8.75 11.9625 8.6765 12.1405 8.529 12.2845C8.4598 12.3541 8.37731 12.409 8.28642 12.4461C8.19554 12.4831 8.09813 12.5014 8 12.5C7.795 12.5 7.618 12.428 7.471 12.2845C7.39904 12.2157 7.34222 12.1326 7.30417 12.0405C7.26612 11.9485 7.24767 11.8496 7.25 11.75C7.25 11.5415 7.3235 11.364 7.471 11.2185C7.53977 11.1481 7.62212 11.0925 7.71306 11.0549C7.804 11.0174 7.90162 10.9987 8 11C8.205 11 8.382 11.073 8.529 11.2185Z"
    fill="currentColor"
  />
</svg>
