<svg width="24" height="24" viewBox="0 0 24 24" fill="none" xmlns="http://www.w3.org/2000/svg">
<path d="M13.5 14.9C13.5 15.5557 13.0793 16.1131 12.4932 16.3171C12.4977 16.3441 12.5 16.3718 12.5 16.4V17.9C12.5 18.1762 12.2761 18.4 12 18.4C11.7239 18.4 11.5 18.1762 11.5 17.9V16.4C11.5 16.3718 11.5023 16.3441 11.5068 16.3171C10.9207 16.1131 10.5 15.5557 10.5 14.9C10.5 14.0716 11.1716 13.4 12 13.4C12.8284 13.4 13.5 14.0716 13.5 14.9Z" fill="#5331F4"/>
<path fill-rule="evenodd" clip-rule="evenodd" d="M10.1089 2.04855C11.3786 1.43854 12.809 1.33265 14.1471 1.7542C15.4828 2.17502 16.6234 3.08822 17.3872 4.31329C17.6502 4.73509 17.5214 5.2902 17.0996 5.55316C16.6778 5.81613 16.1227 5.68736 15.8597 5.26556C15.3082 4.38089 14.5062 3.75457 13.6062 3.47101C12.7085 3.18819 11.7499 3.25711 10.8884 3.67101C10.0242 4.08621 9.29902 4.82984 8.85586 5.79361C8.66914 6.19971 8.57001 6.8001 8.53305 7.59294C8.50748 8.14134 8.51276 8.71065 8.51829 9.30776L8.51914 9.40002H18.5C19.6046 9.40002 20.5 10.2955 20.5 11.4V20.4C20.5 21.5046 19.6046 22.4 18.5 22.4H5.5C4.39543 22.4 3.5 21.5046 3.5 20.4V11.4C3.5 10.2955 4.39543 9.40002 5.5 9.40002H6.71882L6.71865 9.38145C6.71296 8.76155 6.70698 8.11005 6.735 7.50912C6.77422 6.66774 6.88236 5.77694 7.22046 5.04164C7.82696 3.72262 8.84192 2.65726 10.1089 2.04855ZM18.5 11.2H5.5C5.38954 11.2 5.3 11.2896 5.3 11.4V20.4C5.3 20.5105 5.38954 20.6 5.5 20.6H18.5C18.6105 20.6 18.7 20.5105 18.7 20.4V11.4C18.7 11.2896 18.6105 11.2 18.5 11.2Z" fill="#5331F4"/>
</svg>
