<svg width="16" height="16" viewBox="0 0 16 16" fill="none" xmlns="http://www.w3.org/2000/svg">
<path d="M14.1063 3.01426C13.5313 2.40488 12.7485 2.06426 11.9328 2.06582H11.9297C11.1172 2.06426 10.336 2.40332 9.76252 3.00957L9.76095 3.01113L4.10002 8.96738C3.57345 9.52363 3.4172 10.358 3.70314 11.083C3.98908 11.808 4.66252 12.2799 5.40939 12.2783C5.88127 12.2783 6.35158 12.0908 6.70939 11.7127L12.3703 5.75645C12.611 5.50332 12.611 5.09395 12.3703 4.84082C12.1297 4.5877 11.7406 4.5877 11.5 4.84082L5.84064 10.7971C5.72502 10.9174 5.56877 10.9846 5.40627 10.9846C5.24377 10.9846 5.08752 10.9158 4.97345 10.7939C4.85627 10.6752 4.79064 10.5111 4.78908 10.3393C4.78908 10.1674 4.85314 10.0033 4.96877 9.88301L10.6297 3.92676C10.9735 3.5627 11.4422 3.35957 11.9297 3.36113H11.9313C12.4203 3.35957 12.8906 3.56582 13.236 3.92988C13.5844 4.29551 13.7766 4.78457 13.7766 5.30176C13.7781 5.81582 13.5844 6.30957 13.2391 6.67207L11.711 8.27988L11.7016 8.28926L7.46564 12.7486C6.26408 14.0111 4.3172 14.0127 3.11408 12.7502C2.53595 12.1439 2.21252 11.3205 2.21564 10.4627C2.21564 9.59707 2.53595 8.78301 3.1172 8.17207L8.88908 2.09863C9.1297 1.84551 9.1297 1.43613 8.88908 1.18301C8.64845 0.929883 8.25939 0.929883 8.01877 1.18301L2.24689 7.25645C1.43595 8.10488 0.981266 9.25957 0.984391 10.4627C0.984391 11.6736 1.43127 12.8127 2.24377 13.6658C3.05002 14.5158 4.14533 14.9924 5.28752 14.9893C6.43127 14.9908 7.52814 14.5143 8.33595 13.6627L14.3219 7.36426C14.3813 7.3002 14.4281 7.22363 14.4578 7.14082C14.8141 6.60332 15.0078 5.96895 15.0078 5.3002C15.0094 4.44238 14.6844 3.61895 14.1063 3.01426Z" fill="currentColor"/>
</svg>
