<svg width="24" height="24" viewBox="0 0 24 24" fill="none" xmlns="http://www.w3.org/2000/svg">
<path fill-rule="evenodd" clip-rule="evenodd" d="M15.7741 2.03098C16.007 2.0934 16.2056 2.24577 16.3261 2.45458L18.163 5.63636H20.1818C20.664 5.63636 21.1265 5.82792 21.4675 6.1689C21.8084 6.50987 22 6.97234 22 7.45455V20.1818C22 20.664 21.8084 21.1265 21.4675 21.4675C21.1265 21.8084 20.664 22 20.1818 22H3.81818C3.33597 22 2.87351 21.8084 2.53253 21.4675C2.19156 21.1265 2 20.664 2 20.1818V7.45455C2 6.97233 2.19156 6.50987 2.53253 6.1689C2.87351 5.82792 3.33597 5.63636 3.81818 5.63636H8.99674L15.0843 2.12179C15.2931 2.00124 15.5412 1.96857 15.7741 2.03098ZM20.1818 15.1818V12.4545H17.1136C16.2553 12.4545 15.6364 13.1064 15.6364 13.8182C15.6364 14.5299 16.2553 15.1818 17.1136 15.1818H20.1818ZM20.1818 10.6364H17.1136C15.3356 10.6364 13.8182 12.0199 13.8182 13.8182C13.8182 15.6164 15.3356 17 17.1136 17H20.1818V20.1818H3.81818V7.45455H20.1818V10.6364ZM12.6512 5.62595L16.0597 5.62965L15.206 4.15095L12.6512 5.62595Z" fill="currentColor"/>
</svg>
