<svg width="24" height="24" viewBox="0 0 24 24" fill="none"
    xmlns="http://www.w3.org/2000/svg">
    <circle cx="12" cy="12" r="12" fill="#65b400"/>
    <path d="M17.0001 18.6729C15.6073 19.7134 13.8761 20.3334 12.0001 20.3334C8.91558 20.3334 6.22246 18.6575 4.78162 16.1667H8.25008" stroke="white" stroke-width="1.3" stroke-linecap="round" stroke-linejoin="round"/>
    <path d="M15.3334 4.36005C18.2765 5.64598 20.3334 8.58277 20.3334 12C20.3334 13.5179 19.9276 14.9409 19.2185 16.1666L17.5342 13.25" stroke="white" stroke-width="1.3" stroke-linecap="round" stroke-linejoin="round"/>
    <path d="M3.70777 12.8334C3.68056 12.5593 3.66663 12.2813 3.66663 12C3.66663 7.39764 7.39758 3.66669 12 3.66669L10.3157 6.58335" stroke="white" stroke-width="1.3" stroke-linecap="round" stroke-linejoin="round"/>
    <mask id="path-5-inside-1_10904_93613" fill="white">
        <rect x="12.2427" y="8.75732" width="4.92898" height="4.92898" rx="1" transform="rotate(45 12.2427 8.75732)"/>
    </mask>
    <rect x="12.2427" y="8.75732" width="4.92898" height="4.92898" rx="1" transform="rotate(45 12.2427 8.75732)" stroke="white" stroke-width="1" />
</svg>
