<svg fill="none" height="20" viewBox="0 0 20 20" width="20" xmlns="http://www.w3.org/2000/svg" xmlns:xlink="http://www.w3.org/1999/xlink"><clipPath id="a"><path d="m0 0h20v20h-20z"/></clipPath><g clip-path="url(#a)"><path d="m0 10c0 2.6522 1.05357 5.1957 2.92893 7.0711 1.87537 1.8753 4.41891 2.9289 7.07107 2.9289 2.6522 0 5.1957-1.0536 7.0711-2.9289 1.8753-1.8754 2.9289-4.4189 2.9289-7.0711 0-2.65216-1.0536-5.1957-2.9289-7.07107-1.8754-1.87536-4.4189-2.92893-7.0711-2.92893-2.65216 0-5.1957 1.05357-7.07107 2.92893-1.87536 1.87537-2.92893 4.41891-2.92893 7.07107z" fill="#e84142"/><path d="m10.5984 2.96828c-.3465-.59833-.89771-.59833-1.24421 0l-6.29134 11.07882c-.34633.6062-.063 1.0867.63 1.0867h3.1575c.31333-.0192.61772-.1119.88857-.2706.27084-.1587.50051-.379.67043-.6429l3.80315-6.59052c.1361-.2811.2068-.58936.2068-.90167 0-.3123-.0707-.62056-.2068-.90166l-1.1338-1.992zm4.1811 7.29152c-.3466-.59835-.9055-.59835-1.252 0l-2.1968 3.7873c-.3387.5983-.0552 1.0867.63 1.0867h4.3463c.6929 0 .9764-.4884.6299-1.0867l-2.1574-3.7875z" fill="#fff"/></g></svg>