<svg width="20" height="20" viewBox="0 0 20 20" fill="none" xmlns="http://www.w3.org/2000/svg">
<g clip-path="url(#clip0_8909_56018)">
<path d="M0 10C0 12.6522 1.05357 15.1957 2.92893 17.0711C4.8043 18.9464 7.34784 20 10 20C12.6522 20 15.1957 18.9464 17.0711 17.0711C18.9464 15.1957 20 12.6522 20 10C20 7.34784 18.9464 4.8043 17.0711 2.92893C15.1957 1.05357 12.6522 0 10 0C7.34784 0 4.8043 1.05357 2.92893 2.92893C1.05357 4.8043 0 7.34784 0 10H0Z" fill="#EBBA4E"/>
<path d="M7.41044 8.45452L10.0001 5.8638L12.5919 8.45555L14.0991 6.94834L10.0001 2.84937L5.90322 6.9473L7.41044 8.45452ZM3.33105 9.51844L4.83827 8.01122L6.34549 9.51844L4.83827 11.0257L3.33105 9.51844ZM7.41044 10.5824L10.0001 13.1731L12.5919 10.5813L14.1001 12.0875L14.0991 12.0885L10.0001 16.1865L5.90322 12.0896L5.90116 12.0875L7.41044 10.5824ZM13.6548 9.51947L15.162 8.01225L16.6692 9.51947L15.162 11.0267L13.6548 9.51947Z" fill="white"/>
<path d="M11.5285 9.51764L9.99962 7.98877L8.86973 9.11867L8.73983 9.24856L8.47179 9.5166L8.46973 9.51867L8.47179 9.52073L9.99962 11.0486L11.5285 9.5197L11.5295 9.51867L11.5285 9.51764Z" fill="white"/>
</g>
<defs>
<clipPath id="clip0_8909_56018">
<rect width="20" height="20" fill="white"/>
</clipPath>
</defs>
</svg>
