<svg fill="none" height="20" viewBox="0 0 20 20" width="20" xmlns="http://www.w3.org/2000/svg" xmlns:xlink="http://www.w3.org/1999/xlink"><clipPath id="a"><path d="m0 0h20v20h-20z" transform="matrix(1 0 0 -1 0 20)"/></clipPath><g clip-path="url(#a)"><path d="m0 10c0-2.65217 1.05357-5.1957 2.92893-7.07107 1.87537-1.87536 4.41891-2.92893 7.07107-2.92893 2.6522 0 5.1957 1.05357 7.0711 2.92893 1.8753 1.87537 2.9289 4.4189 2.9289 7.07107 0 2.6522-1.0536 5.1957-2.9289 7.0711-1.8754 1.8753-4.4189 2.9289-7.0711 2.9289-2.65216 0-5.1957-1.0536-7.07107-2.9289-1.87536-1.8754-2.92893-4.4189-2.92893-7.0711z" fill="#607ae3"/><path d="m9.99999 17.1865-.09667-.3266v-9.50338l.09667-.09667 4.41001 2.60667z" fill="#bcc5ee"/><path d="m10.0002 17.1865-4.41329-7.31998 4.41329-2.60667v4.61335z" fill="#f7f7f7"/><path d="m10 6.42312-.05664-.06667v-3.38333l.05664-.16 4.4134 6.21667z" fill="#bcc5ee"/><path d="m10.0002 2.81312v3.61l-4.41329 2.60667z" fill="#f7f7f7"/><path d="m10 7.2602 4.41 2.60667-4.41 2.00663z" fill="#7d93e7"/><path d="m5.58691 9.86687 4.41329-2.60667v4.6133z" fill="#bcc5ee"/></g></svg>