<svg fill="none" height="20" viewBox="0 0 20 20" width="20" xmlns="http://www.w3.org/2000/svg" xmlns:xlink="http://www.w3.org/1999/xlink"><clipPath id="a"><path d="m0 0h20v20h-20z"/></clipPath><g clip-path="url(#a)"><path d="m0 10c0 2.6522 1.05357 5.1957 2.92893 7.0711 1.87537 1.8753 4.41891 2.9289 7.07107 2.9289 2.6522 0 5.1957-1.0536 7.0711-2.9289 1.8753-1.8754 2.9289-4.4189 2.9289-7.0711 0-2.65216-1.0536-5.1957-2.9289-7.07107-1.8754-1.87536-4.4189-2.92893-7.0711-2.92893-2.65216 0-5.1957 1.05357-7.07107 2.92893-1.87536 1.87537-2.92893 4.41891-2.92893 7.07107z" fill="#13b5ec"/><path d="m10.833 8.00067 2.25-1.31917v2.63833zm2.25 5.65333-3 1.7587-2.99999-1.7587v-3.078l2.99999 1.7588 3-1.7588zm-5.99999-6.97233 2.25 1.319-2.25 1.31916v-2.63833zm3.37499 1.94717 2.25 1.31899-2.25 1.31917v-2.63833zm-.74999 2.63816-2.25-1.31917 2.25-1.31899zm2.99999-5.2135-2.625 1.5075-2.62499-1.5075 2.62499-1.5705zm-6.37499-.25133v8.22863l3.74999 2.1357 3.75-2.1357v-8.22863l-3.75-2.13567z" fill="#fff"/></g></svg>