<svg width="20" height="20" viewBox="0 0 20 20" fill="none" xmlns="http://www.w3.org/2000/svg">
<path d="M0 10C0 12.6522 1.05357 15.1957 2.92893 17.0711C4.8043 18.9464 7.34784 20 10 20C12.6522 20 15.1957 18.9464 17.0711 17.0711C18.9464 15.1957 20 12.6522 20 10C20 7.34784 18.9464 4.8043 17.0711 2.92893C15.1957 1.05357 12.6522 0 10 0C7.34784 0 4.8043 1.05357 2.92893 2.92893C1.05357 4.8043 0 7.34784 0 10H0Z" fill="#9F9F9F"/>
<path d="M10.5984 2.96828C10.2519 2.36995 9.70069 2.36995 9.35419 2.96828L3.06285 14.0471C2.71652 14.6533 2.99985 15.1338 3.69285 15.1338H6.85035C7.16368 15.1146 7.46807 15.0219 7.73892 14.8632C8.00976 14.7045 8.23943 14.4842 8.40935 14.2203L12.2125 7.62978C12.3486 7.34868 12.4193 7.04042 12.4193 6.72811C12.4193 6.41581 12.3486 6.10755 12.2125 5.82645L11.0787 3.83445L10.5984 2.96828ZM14.7795 10.2598C14.4329 9.66145 13.874 9.66145 13.5275 10.2598L11.3307 14.0471C10.992 14.6454 11.2755 15.1338 11.9607 15.1338H16.307C16.9999 15.1338 17.2834 14.6454 16.9369 14.0471L14.7795 10.2596V10.2598Z" fill="white"/>
</svg>
