<svg width="20" height="20" viewBox="0 0 20 20" fill="none" xmlns="http://www.w3.org/2000/svg">
<g clip-path="url(#clip0_10530_48603)">
<path d="M0 10C0 12.6522 1.05357 15.1957 2.92893 17.0711C4.8043 18.9464 7.34784 20 10 20C12.6522 20 15.1957 18.9464 17.0711 17.0711C18.9464 15.1957 20 12.6522 20 10C20 7.34784 18.9464 4.8043 17.0711 2.92893C15.1957 1.05357 12.6522 0 10 0C7.34784 0 4.8043 1.05357 2.92893 2.92893C1.05357 4.8043 0 7.34784 0 10H0Z" fill="#9F9F9F"/>
<path d="M7.41044 8.45477L10.0001 5.86404L12.5919 8.4558L14.0991 6.94858L10.0001 2.84961L5.90322 6.94755L7.41044 8.45477ZM3.33105 9.51868L4.83827 8.01147L6.34549 9.51868L4.83827 11.0259L3.33105 9.51868ZM7.41044 10.5826L10.0001 13.1733L12.5919 10.5816L14.1001 12.0878L14.0991 12.0888L10.0001 16.1867L5.90322 12.0898L5.90116 12.0878L7.41044 10.5826ZM13.6548 9.51971L15.162 8.0125L16.6692 9.51971L15.162 11.0269L13.6548 9.51971Z" fill="white"/>
<path d="M11.529 9.51715L10.0001 7.98828L8.87022 9.11818L8.74032 9.24807L8.47228 9.51612L8.47021 9.51818L8.47228 9.52024L10.0001 11.0481L11.529 9.51921L11.53 9.51818L11.529 9.51715Z" fill="white"/>
</g>
<defs>
<clipPath id="clip0_10530_48603">
<rect width="20" height="20" fill="white"/>
</clipPath>
</defs>
</svg>
