<svg width="20" height="20" viewBox="0 0 20 20" fill="none" xmlns="http://www.w3.org/2000/svg">
<g clip-path="url(#clip0_10530_48595)">
<path d="M0 10C0 7.34783 1.05357 4.8043 2.92893 2.92893C4.8043 1.05357 7.34784 0 10 0C12.6522 0 15.1957 1.05357 17.0711 2.92893C18.9464 4.8043 20 7.34783 20 10C20 12.6522 18.9464 15.1957 17.0711 17.0711C15.1957 18.9464 12.6522 20 10 20C7.34784 20 4.8043 18.9464 2.92893 17.0711C1.05357 15.1957 0 12.6522 0 10H0Z" fill="#9F9F9F"/>
<path d="M9.99999 17.1865L9.90332 16.8599V7.35652L9.99999 7.25985L14.41 9.86652L9.99999 17.1865Z" fill="#BCC5EE"/>
<path d="M9.99976 17.1865L5.58643 9.86652L9.99976 7.25985V11.8732V17.1865Z" fill="#F7F7F7"/>
<path d="M10 6.42361L9.94336 6.35694V2.97361L10 2.81361L14.4134 9.03027L10 6.42361Z" fill="#BCC5EE"/>
<path d="M9.99976 2.81361V6.42361L5.58643 9.03027L9.99976 2.81361Z" fill="#F7F7F7"/>
<path d="M10 7.25971L14.41 9.86638L10 11.873V7.25971Z" fill="#DADADA"/>
<path d="M5.58643 9.86638L9.99976 7.25971V11.873L5.58643 9.86638Z" fill="#DADADA"/>
</g>
<defs>
<clipPath id="clip0_10530_48595">
<rect width="20" height="20" fill="white" transform="matrix(1 0 0 -1 0 20)"/>
</clipPath>
</defs>
</svg>
