<svg width="20" height="20" viewBox="0 0 20 20" fill="none" xmlns="http://www.w3.org/2000/svg">
<g clip-path="url(#clip0_10530_48586)">
<path d="M0 10C0 12.6522 1.05357 15.1957 2.92893 17.0711C4.8043 18.9464 7.34784 20 10 20C12.6522 20 15.1957 18.9464 17.0711 17.0711C18.9464 15.1957 20 12.6522 20 10C20 7.34784 18.9464 4.8043 17.0711 2.92893C15.1957 1.05357 12.6522 0 10 0C7.34784 0 4.8043 1.05357 2.92893 2.92893C1.05357 4.8043 0 7.34784 0 10H0Z" fill="#9F9F9F"/>
<path d="M10.8335 8.00116L13.0835 6.68199V9.32032L10.8335 8.00116ZM13.0835 13.6545L10.0835 15.4132L7.0835 13.6545V10.5765L10.0835 12.3353L13.0835 10.5765V13.6545ZM7.0835 6.68216L9.3335 8.00116L7.0835 9.32032V6.68199V6.68216ZM10.4585 8.62932L12.7085 9.94832L10.4585 11.2675V8.62916V8.62932ZM9.7085 11.2675L7.4585 9.94832L9.7085 8.62932V11.2675ZM12.7085 6.05399L10.0835 7.56149L7.4585 6.05399L10.0835 4.48349L12.7085 6.05399ZM6.3335 5.80266V14.0313L10.0835 16.167L13.8335 14.0313V5.80266L10.0835 3.66699L6.3335 5.80266Z" fill="white"/>
</g>
<defs>
<clipPath id="clip0_10530_48586">
<rect width="20" height="20" fill="white"/>
</clipPath>
</defs>
</svg>
