<svg width="20" height="20" viewBox="0 0 20 20" fill="none" xmlns="http://www.w3.org/2000/svg">
<g clip-path="url(#clip0_10530_48579)">
<path d="M0 10C0 12.6522 1.05357 15.1957 2.92893 17.0711C4.8043 18.9464 7.34784 20 10 20C12.6522 20 15.1957 18.9464 17.0711 17.0711C18.9464 15.1957 20 12.6522 20 10C20 7.34784 18.9464 4.8043 17.0711 2.92893C15.1957 1.05357 12.6522 0 10 0C7.34784 0 4.8043 1.05357 2.92893 2.92893C1.05357 4.8043 0 7.34784 0 10H0Z" fill="#9F9F9F"/>
<path d="M13.5646 8.66596C13.3063 8.51374 12.9705 8.51374 12.6864 8.66596L10.6716 9.83296L9.30257 10.5941L7.28782 11.7611C7.02953 11.9133 6.69373 11.9133 6.40959 11.7611L4.80812 10.8478C4.54982 10.6956 4.369 10.4165 4.369 10.112V8.31078C4.369 8.00634 4.52398 7.72727 4.80812 7.57505L6.38376 6.6871C6.64207 6.53488 6.97784 6.53488 7.262 6.6871L8.83764 7.57505C9.09593 7.72727 9.27674 8.00634 9.27674 8.31078V9.4778L10.6457 8.69133V7.52431C10.6457 7.21987 10.4908 6.9408 10.2066 6.78858L7.28782 5.11416C7.02953 4.96195 6.69373 4.96195 6.40959 5.11416L3.43912 6.78858C3.15498 6.9408 3 7.21987 3 7.52431V10.8985C3 11.2029 3.15498 11.482 3.43912 11.6342L6.40959 13.3086C6.6679 13.4609 7.00371 13.4609 7.28782 13.3086L9.30257 12.167L10.6716 11.3805L12.6864 10.2389C12.9446 10.0867 13.2804 10.0867 13.5646 10.2389L15.1402 11.1269C15.3985 11.2791 15.5793 11.5581 15.5793 11.8626V13.6638C15.5793 13.9683 15.4244 14.2473 15.1402 14.3996L13.5646 15.3129C13.3063 15.4651 12.9705 15.4651 12.6864 15.3129L11.1107 14.4249C10.8524 14.2727 10.6716 13.9937 10.6716 13.6892V12.5222L9.30257 13.3086V14.4757C9.30257 14.7801 9.45756 15.0592 9.74171 15.2114L12.7122 16.8858C12.9705 17.0381 13.3063 17.0381 13.5904 16.8858L16.5609 15.2114C16.8192 15.0592 17 14.7801 17 14.4757V11.1015C17 10.797 16.845 10.518 16.5609 10.3658L13.5646 8.66596Z" fill="white"/>
</g>
<defs>
<clipPath id="clip0_10530_48579">
<rect width="20" height="20" fill="white"/>
</clipPath>
</defs>
</svg>
