<svg width="20" height="20" viewBox="0 0 20 20" fill="none" xmlns="http://www.w3.org/2000/svg">
<g clip-path="url(#clip0_8909_56237)">
<path d="M0 10C0 12.6522 1.05357 15.1957 2.92893 17.0711C4.8043 18.9464 7.34784 20 10 20C12.6522 20 15.1957 18.9464 17.0711 17.0711C18.9464 15.1957 20 12.6522 20 10C20 7.34784 18.9464 4.8043 17.0711 2.92893C15.1957 1.05357 12.6522 0 10 0C7.34784 0 4.8043 1.05357 2.92893 2.92893C1.05357 4.8043 0 7.34784 0 10H0Z" fill="#8247E5"/>
<path d="M13.5646 7.66596C13.3063 7.51374 12.9705 7.51374 12.6864 7.66596L10.6716 8.83296L9.30257 9.59406L7.28782 10.7611C7.02953 10.9133 6.69373 10.9133 6.40959 10.7611L4.80812 9.84778C4.54982 9.69557 4.369 9.4165 4.369 9.11203V7.31078C4.369 7.00634 4.52398 6.72727 4.80812 6.57505L6.38376 5.6871C6.64207 5.53488 6.97784 5.53488 7.262 5.6871L8.83764 6.57505C9.09593 6.72727 9.27674 7.00634 9.27674 7.31078V8.4778L10.6457 7.69133V6.52431C10.6457 6.21987 10.4908 5.9408 10.2066 5.78858L7.28782 4.11416C7.02953 3.96195 6.69373 3.96195 6.40959 4.11416L3.43912 5.78858C3.15498 5.9408 3 6.21987 3 6.52431V9.89852C3 10.2029 3.15498 10.482 3.43912 10.6342L6.40959 12.3086C6.6679 12.4609 7.00371 12.4609 7.28782 12.3086L9.30257 11.167L10.6716 10.3805L12.6864 9.2389C12.9446 9.08668 13.2804 9.08668 13.5646 9.2389L15.1402 10.1269C15.3985 10.2791 15.5793 10.5581 15.5793 10.8626V12.6638C15.5793 12.9683 15.4244 13.2473 15.1402 13.3996L13.5646 14.3129C13.3063 14.4651 12.9705 14.4651 12.6864 14.3129L11.1107 13.4249C10.8524 13.2727 10.6716 12.9937 10.6716 12.6892V11.5222L9.30257 12.3086V13.4757C9.30257 13.7801 9.45756 14.0592 9.74171 14.2114L12.7122 15.8858C12.9705 16.0381 13.3063 16.0381 13.5904 15.8858L16.5609 14.2114C16.8192 14.0592 17 13.7801 17 13.4757V10.1015C17 9.79705 16.845 9.51797 16.5609 9.36576L13.5646 7.66596Z" fill="white"/>
</g>
<defs>
<clipPath id="clip0_8909_56237">
<rect width="20" height="20" fill="white"/>
</clipPath>
</defs>
</svg>
