<svg width="48" height="48" viewBox="0 0 48 48" fill="none" xmlns="http://www.w3.org/2000/svg">
<rect width="48" height="48" rx="8" fill="#F5F6FA"/>
<path d="M38.699 30.7535C38.5928 31.3146 38.2309 31.6766 37.7793 31.6766H37.7029C36.8164 31.6799 36.0992 32.3971 36.0959 33.2836C36.1092 33.4928 36.1557 33.6986 36.2387 33.8945C36.4545 34.3992 36.2885 34.9803 35.8436 35.2957L35.8004 35.3256L33.9377 36.3516C33.7783 36.4279 33.6023 36.4678 33.4264 36.4711C33.0811 36.4744 32.749 36.3316 32.5133 36.0793C32.2742 35.8203 31.6367 35.2791 31.1885 35.2791C30.7535 35.2791 30.1061 35.817 29.8803 36.0627C29.5217 36.4312 28.9738 36.5441 28.499 36.3482L26.6562 35.3223C26.1881 35.0102 26.0055 34.4092 26.2246 33.8912C26.2611 33.8016 26.3641 33.5127 26.3641 33.2836C26.3641 32.4004 25.6402 31.6799 24.757 31.6799H24.6939C24.2291 31.6799 23.8705 31.3146 23.7643 30.7535C23.7477 30.6672 23.6049 29.8902 23.6049 29.266C23.6049 28.6385 23.7443 27.8582 23.7643 27.7752C23.8705 27.2141 24.2291 26.8488 24.684 26.8488H24.7604C25.6469 26.8488 26.3641 26.135 26.3674 25.2484C26.3541 25.0359 26.3076 24.8301 26.2246 24.6342C26.0088 24.1328 26.1748 23.5451 26.623 23.2297L26.6662 23.2031L28.5754 22.1539L28.6119 22.1406C29.0834 21.9547 29.6246 22.0676 29.9799 22.4295C30.2123 22.6719 30.8365 23.1799 31.2715 23.1799C31.6965 23.1799 32.3207 22.6818 32.5531 22.4395C32.915 22.0809 33.4563 21.9746 33.9244 22.1672L35.8004 23.2031C36.2852 23.5385 36.4578 24.1461 36.2354 24.6375C36.1557 24.8301 36.1092 25.0359 36.0959 25.2451C36.0959 26.1283 36.8164 26.8455 37.6996 26.8455H37.766C38.2275 26.8455 38.5861 27.2107 38.6957 27.7719C38.709 27.8549 38.8551 28.6352 38.8551 29.2627C38.8518 29.9234 38.6957 30.7469 38.699 30.7535ZM37.2979 28.2799C35.7738 28.0807 34.635 26.7824 34.6316 25.2451C34.6383 24.9297 34.6947 24.6176 34.7943 24.3154L33.4662 23.5783C33.2936 23.7377 33.1109 23.8838 32.9184 24.0199C32.3373 24.4283 31.7828 24.6342 31.2648 24.6342C30.7369 24.6342 30.1758 24.4283 29.5947 24.01C29.3988 23.8738 29.2162 23.7211 29.0436 23.5551L27.6557 24.3188C27.732 24.5479 27.8217 24.8898 27.8217 25.2451C27.8217 26.7824 26.6795 28.0807 25.1555 28.2799C25.1023 28.6053 25.0725 28.934 25.0625 29.2627C25.0725 29.5914 25.1023 29.9168 25.1555 30.2422C26.6828 30.4414 27.8217 31.7396 27.8217 33.2803C27.8217 33.6355 27.732 33.9775 27.6557 34.21L28.9406 34.9271C29.1133 34.7611 29.2959 34.6051 29.4885 34.4623C30.0795 34.0307 30.6506 33.8115 31.1852 33.8115C31.7264 33.8115 32.3041 34.0373 32.8984 34.4756C33.091 34.6184 33.277 34.7777 33.4496 34.9471L34.7943 34.2066C34.6914 33.9078 34.635 33.5957 34.6316 33.2803C34.6316 31.7396 35.7705 30.4414 37.2979 30.2422C37.3344 29.9898 37.3908 29.5814 37.3908 29.2594C37.3908 28.9406 37.3377 28.5355 37.2979 28.2799ZM31.1984 32.085C29.6346 32.0816 28.3662 30.8133 28.3629 29.2494C28.3629 27.6822 29.6312 26.4139 31.1984 26.4139C32.7656 26.4139 34.034 27.6822 34.034 29.2494C34.0307 30.8166 32.7623 32.085 31.1984 32.085ZM31.1984 27.9346C30.4613 27.9346 29.857 28.5156 29.8238 29.2527C29.8238 30.0131 30.4414 30.6273 31.1984 30.6273C31.9555 30.6273 32.573 30.0131 32.573 29.2527C32.5398 28.5156 31.9355 27.9346 31.1984 27.9346ZM15.8785 19.2055H21.6326C22.1639 19.2055 22.5922 18.7772 22.5922 18.2459C22.5922 17.7147 22.1639 17.2863 21.6326 17.2863H15.8785C15.3473 17.2863 14.9189 17.7147 14.9189 18.2459C14.9189 18.7738 15.3506 19.2055 15.8785 19.2055ZM21.6359 24.9596H15.8785C15.3473 24.9596 14.9189 25.3879 14.9189 25.9191C14.9189 26.4504 15.3473 26.8787 15.8785 26.8787H21.6326C22.1639 26.8787 22.5922 26.4504 22.5922 25.9191C22.5955 25.3912 22.1639 24.9596 21.6359 24.9596Z" fill="#5331F4"/>
<path d="M32.1912 17.2863H28.3562V15.3672C28.3562 13.2488 26.6396 11.5322 24.5212 11.5322H14.9189C12.8005 11.5322 11.0839 13.2488 11.0839 15.3672V34.5287H10.1144C9.57983 34.5287 9.14819 34.9604 9.14819 35.4949C9.14819 36.0295 9.57983 36.4611 10.1144 36.4611H24.4947C25.0193 36.4611 25.275 35.8369 24.913 35.4584C24.7039 35.2359 24.5046 35.0035 24.3154 34.7611C24.2025 34.615 24.0332 34.5254 23.8505 34.5254H13.0031V15.3639H12.9998C12.9998 14.3047 13.8597 13.4447 14.9189 13.4447H24.5113C25.5705 13.4447 26.4304 14.3047 26.4304 15.3639V21.1711C26.4304 21.616 26.8986 21.8916 27.297 21.6924C27.5162 21.5828 27.7419 21.4799 27.971 21.3902C28.1968 21.3006 28.3496 21.0848 28.3496 20.8424V19.2055H32.1845C33.1541 19.2055 33.9609 19.9293 34.0871 20.8656C34.1103 21.0449 34.2365 21.1943 34.3958 21.2773C34.5951 21.3803 34.8673 21.5264 35.1496 21.6791C35.5447 21.8949 36.0261 21.6127 36.0261 21.1611V21.1246C36.0261 19.0029 34.3095 17.2863 32.1912 17.2863Z" fill="#5331F4"/>
<path d="M21.6359 21.1213H15.8785C15.3473 21.1213 14.9189 21.5496 14.9189 22.0809C14.9189 22.6121 15.3473 23.0404 15.8785 23.0404H21.6326C22.1639 23.0404 22.5922 22.6121 22.5922 22.0809C22.5955 21.5496 22.1639 21.1213 21.6359 21.1213Z" fill="#5331F4"/>
</svg>
