<svg width="20" height="20" viewBox="0 0 20 20" fill="none" xmlns="http://www.w3.org/2000/svg">
<path d="M10 0C4.47768 0 0 4.47768 0 10C0 15.5223 4.47768 20 10 20C15.5223 20 20 15.5223 20 10C20 4.47768 15.5223 0 10 0ZM12.1071 6.14286H15.5491V7.16964H12.1071V6.14286ZM10.3661 11.5357C10.3661 14.0804 7.71429 14 7.71429 14H3.375V5.65179H7.71429C9.03572 5.65179 10.0759 6.37946 10.0759 7.875C10.0759 9.37054 8.80357 9.46429 8.80357 9.46429C10.4821 9.46429 10.3661 11.5357 10.3661 11.5357ZM16.8036 11.3973H12.4777C12.4777 12.9464 13.9464 12.8482 13.9464 12.8482C15.3348 12.8482 15.2857 11.9509 15.2857 11.9509H16.7545C16.7545 14.3348 13.8973 14.1696 13.8973 14.1696C10.4732 14.1696 10.692 10.9777 10.692 10.9777C10.692 10.9777 10.6875 7.77232 13.8973 7.77232C17.2768 7.77679 16.8036 11.3973 16.8036 11.3973Z" fill="black" fill-opacity="0.5"/>
<path d="M13.933 9C12.6429 9 12.4643 10.2857 12.4643 10.2857H15.2054C15.2054 10.2857 15.2232 9 13.933 9ZM7.71428 10.2857H5.28571V12.5179H7.59375C7.94196 12.5089 8.59375 12.4107 8.59375 11.433C8.59375 10.2723 7.71428 10.2857 7.71428 10.2857Z" fill="black" fill-opacity="0.5"/>
<path d="M8.30357 8.00426C8.30357 7.13818 7.71428 7.13818 7.71428 7.13818H5.28571V8.99979H7.5625C7.95536 8.99979 8.30357 8.87033 8.30357 8.00426Z" fill="black" fill-opacity="0.5"/>
</svg>
