<svg fill="none" height="24" viewBox="0 0 24 24" width="24" xmlns="http://www.w3.org/2000/svg"><path d="m12 24c-6.61672 0-12-5.3833-12-12 0-6.61674 5.38328-12 12-12 6.6167 0 12 5.38328 12 12 0 6.6167-5.3833 12-12 12z" fill="currentColor"/><path d="m18.958 7.37769c-.3369-.33324-1.1067-.51342-1.4385-.17796l-7.1997 7.20037-3.83939-3.84c-.33179-.3413-1.02245-.0484-1.35934.2812-.33987.3311-.34719.8731-.01613 1.2115l4.57472 4.6684c.00148.0022.00441.0022.00652.0044.00225.0029.00225.0044.0052.0074.05271.0527.1223.0864.18455.1223.03366.019.06007.0475.09377.06.1025.0432.2138.0623.3237.0623.1084 0 .2183-.022.3223-.0623.033-.0146.0571-.0432.0908-.0579.0622-.0358.1318-.0673.1846-.1223.0029-.0021.0029-.0051.0044-.0065.0029-.003.0052-.003.0073-.0052l8.0625-8.13868c.3333-.33327.3281-.87379-.0073-1.20703z" fill="#fff"/></svg>
