<svg width="16" height="16" viewBox="0 0 16 16" fill="none" xmlns="http://www.w3.org/2000/svg">
<path d="M4.32432 16H2.16216C0.968527 15.9988 0.00119184 15.0315 0 13.8378V11.6757H1.51351C2.82706 11.6757 3.89189 10.6108 3.89189 9.2973C3.89189 7.98376 2.82706 6.91892 1.51351 6.91892H0V5.18919C0.00119185 3.99555 0.968527 3.02822 2.16216 3.02703H4.32432V2.37838C4.32432 1.06484 5.38916 0 6.7027 0C8.01624 0 9.08108 1.06484 9.08108 2.37838V3.02703H10.8108C12.0044 3.02822 12.9718 3.99555 12.973 5.18919V6.91892H13.6216C14.9352 6.91892 16 7.98376 16 9.2973C16 10.6108 14.9352 11.6757 13.6216 11.6757H12.973V13.8378C12.9718 15.0315 12.0044 15.9988 10.8108 16H9.08108V14.4865C9.08108 13.6368 8.62776 12.8516 7.89189 12.4268C7.15602 12.0019 6.24939 12.0019 5.51351 12.4268C4.77764 12.8516 4.32432 13.6368 4.32432 14.4865V16Z" fill="currentColor"/>
</svg>
