<svg width="17" height="16" viewBox="0 0 17 16" fill="none" xmlns="http://www.w3.org/2000/svg">
<path fill-rule="evenodd" clip-rule="evenodd" d="M15.9259 14.7989H16.3752C16.715 14.7989 17 15.067 17 15.3995C17 15.7319 16.726 16 16.3862 16H0.613798C0.274017 16 0 15.7319 0 15.3995C0 15.067 0.274017 14.7989 0.613798 14.7989H1.0303V0.9437C1.0303 0.428954 1.46873 0 1.99484 0H9.99613C10.5222 0 10.9607 0.428954 10.9607 0.9437V14.7882H11.695V4.81501C11.695 4.72922 11.7608 4.65416 11.8594 4.65416H15.2353C15.619 4.65416 15.9259 4.96515 15.9259 5.32976V14.7989ZM7.86976 3.82842H4.13217C3.83623 3.82842 3.5951 4.06434 3.58414 4.36461C3.58414 4.66488 3.82527 4.9008 4.13217 4.9008H7.86976C8.17666 4.9008 8.4178 4.66488 8.4178 4.36461C8.4178 4.06434 8.17666 3.82842 7.86976 3.82842ZM4.13217 6.76676H7.86976C8.17666 6.76676 8.4178 7.00268 8.4178 7.30295C8.4178 7.60322 8.17666 7.83914 7.86976 7.83914H4.13217C3.82527 7.83914 3.58414 7.60322 3.58414 7.30295C3.58414 7.00268 3.83623 6.76676 4.13217 6.76676ZM7.86976 9.72654H4.13217C3.83623 9.72654 3.58414 9.96247 3.58414 10.2627C3.58414 10.563 3.82527 10.7989 4.13217 10.7989H7.86976C8.17666 10.7989 8.4178 10.563 8.4178 10.2627C8.4178 9.96247 8.17666 9.72654 7.86976 9.72654Z" fill="currentColor"/>
</svg>
