<svg width="34" height="35" viewBox="0 0 34 35" fill="none" xmlns="http://www.w3.org/2000/svg">
<rect opacity="0.01" x="2" width="32" height="32" fill="#D8D8D8"/>
<circle cx="21" cy="14" r="12.5" fill="url(#paint0_linear_11163_54381)"/>
<g filter="url(#filter0_bd_11163_54381)">
<circle cx="15" cy="18" r="12.5" fill="#E5D6FC" fill-opacity="0.3"/>
<circle cx="15" cy="18" r="12" stroke="white"/>
</g>
<g filter="url(#filter1_d_11163_54381)">
<path fill-rule="evenodd" clip-rule="evenodd" d="M13.8156 22.97C12.8757 23.2981 12.0991 24.016 11.486 25.1234C10.9934 26.0132 10.5469 25.4424 11.184 22.8063C11.3399 22.1612 11.7382 21.2759 12.1143 20.72C12.365 20.3494 12.6313 20.0418 12.9133 19.7973C13.2325 20.4005 13.4417 20.8923 13.5411 21.2728C13.6405 21.6532 13.732 22.219 13.8156 22.97Z" fill="white" fill-opacity="0.8"/>
<path fill-rule="evenodd" clip-rule="evenodd" d="M16.2821 23.0288C17.2316 23.3195 18.0297 24.0061 18.6766 25.0886C19.1962 25.9583 19.6249 25.3702 18.9071 22.761C18.7314 22.1224 18.3062 21.2534 17.9132 20.7127C17.6513 20.3523 17.3756 20.0555 17.0863 19.8223C16.7859 20.4377 16.5918 20.9375 16.5042 21.3217C16.4166 21.7058 16.3426 22.2748 16.2821 23.0288Z" fill="white" fill-opacity="0.8"/>
</g>
<path fill-rule="evenodd" clip-rule="evenodd" d="M15.6329 11.5979C15.3906 11.2874 15.1601 11.0757 14.9584 11.0796C14.7566 11.0836 14.5328 11.3044 14.3002 11.6242C14.0264 12.0008 13.7531 12.5366 13.5191 13.1874C13.1235 14.2876 12.8421 15.7134 12.866 17.2654C12.8887 18.7384 13.1296 20.2024 13.4438 21.3426C13.6212 21.9867 13.8214 22.5263 14.0194 22.902C14.1094 23.0727 14.1972 23.2076 14.39 23.3796L15.9416 23.346L15.9636 23.3295C16.0382 23.2605 16.1144 23.0601 16.2076 22.815C16.2247 22.7699 16.2424 22.7233 16.2608 22.6758C16.44 22.2123 16.6291 21.5807 16.7931 20.8703C17.0585 19.721 17.2582 18.3655 17.2399 17.1789C17.216 15.6269 16.8908 14.2131 16.4616 13.1292C16.2077 12.488 15.9181 11.9634 15.6329 11.5979ZM15.0003 19C16.1049 19 17.0003 18.1046 17.0003 17C17.0003 15.8954 16.1049 15 15.0003 15C13.8957 15 13.0003 15.8954 13.0003 17C13.0003 18.1046 13.8957 19 15.0003 19Z" fill="white"/>
<path d="M14.9584 11.0796L14.9485 10.5797L14.9584 11.0796ZM15.6329 11.5979L16.027 11.2903V11.2903L15.6329 11.5979ZM14.3002 11.6242L14.7046 11.9183L14.3002 11.6242ZM13.5191 13.1874L13.0486 13.0183L13.5191 13.1874ZM12.866 17.2654L12.366 17.2731L12.866 17.2654ZM13.4438 21.3426L13.9258 21.2098L13.4438 21.3426ZM14.0194 22.902L14.4617 22.6689H14.4617L14.0194 22.902ZM14.39 23.3796L14.0573 23.7528L14.2041 23.8838L14.4009 23.8795L14.39 23.3796ZM15.9416 23.346L15.9524 23.8459L16.1128 23.8424L16.2413 23.7462L15.9416 23.346ZM15.9636 23.3295L16.2633 23.7297L16.2841 23.7141L16.3032 23.6965L15.9636 23.3295ZM16.2076 22.815L16.6749 22.9927L16.2076 22.815ZM16.2608 22.6758L15.7945 22.4955L15.7944 22.4955L16.2608 22.6758ZM16.7931 20.8703L17.2803 20.9828V20.9828L16.7931 20.8703ZM17.2399 17.1789L17.7399 17.1712L17.2399 17.1789ZM16.4616 13.1292L16.9265 12.9451L16.9265 12.9451L16.4616 13.1292ZM14.9682 11.5795C14.8943 11.581 14.8873 11.5462 14.9665 11.61C15.0363 11.6664 15.1273 11.7627 15.2387 11.9055L16.027 11.2903C15.8962 11.1226 15.7507 10.9578 15.5943 10.8317C15.4472 10.713 15.2242 10.5743 14.9485 10.5797L14.9682 11.5795ZM14.7046 11.9183C14.8117 11.771 14.8999 11.6707 14.9685 11.6111C15.0464 11.5436 15.0416 11.5781 14.9682 11.5795L14.9485 10.5797C14.6734 10.5852 14.4558 10.7321 14.3132 10.8559C14.1613 10.9877 14.0213 11.1576 13.8958 11.3302L14.7046 11.9183ZM13.9896 13.3566C14.2129 12.7357 14.4665 12.2458 14.7046 11.9183L13.8958 11.3302C13.5863 11.7558 13.2934 12.3375 13.0486 13.0183L13.9896 13.3566ZM13.3659 17.2577C13.343 15.7682 13.6137 14.4022 13.9896 13.3566L13.0486 13.0183C12.6334 14.173 12.3412 15.6586 12.366 17.2731L13.3659 17.2577ZM13.9258 21.2098C13.622 20.1074 13.3879 18.6854 13.3659 17.2577L12.366 17.2731C12.3894 18.7914 12.6371 20.2975 12.9617 21.4754L13.9258 21.2098ZM14.4617 22.6689C14.287 22.3373 14.0982 21.8355 13.9258 21.2098L12.9617 21.4754C13.1443 22.1379 13.3559 22.7154 13.5771 23.1351L14.4617 22.6689ZM14.7228 23.0064C14.5847 22.8833 14.531 22.8003 14.4617 22.6689L13.5771 23.1351C13.6878 23.3452 13.8097 23.532 14.0573 23.7528L14.7228 23.0064ZM15.9308 22.8461L14.3792 22.8797L14.4009 23.8795L15.9524 23.8459L15.9308 22.8461ZM15.6639 22.9293L15.6419 22.9458L16.2413 23.7462L16.2633 23.7297L15.6639 22.9293ZM15.7402 22.6373C15.6919 22.7643 15.6551 22.8606 15.6223 22.9339C15.6062 22.9698 15.5954 22.9903 15.5895 23.0003C15.5812 23.0145 15.5913 22.9928 15.624 22.9625L16.3032 23.6965C16.4247 23.584 16.4976 23.4261 16.5349 23.3426C16.5821 23.2373 16.63 23.1107 16.6749 22.9927L15.7402 22.6373ZM15.7944 22.4955C15.7755 22.5445 15.7573 22.5924 15.7402 22.6373L16.6749 22.9927C16.6921 22.9474 16.7094 22.9021 16.7272 22.856L15.7944 22.4955ZM16.3059 20.7578C16.1456 21.4522 15.9628 22.0599 15.7945 22.4955L16.7272 22.856C16.9171 22.3646 17.1126 21.7092 17.2803 20.9828L16.3059 20.7578ZM16.74 17.1866C16.7574 18.3195 16.5658 19.6325 16.3059 20.7578L17.2803 20.9828C17.5512 19.8095 17.759 18.4115 17.7399 17.1712L16.74 17.1866ZM15.9967 13.3133C16.4045 14.3429 16.7171 15.6971 16.74 17.1866L17.7399 17.1712C17.715 15.5567 17.3772 14.0832 16.9265 12.9451L15.9967 13.3133ZM15.2387 11.9055C15.4863 12.2227 15.7546 12.7019 15.9967 13.3133L16.9265 12.9451C16.6608 12.2742 16.35 11.704 16.027 11.2903L15.2387 11.9055ZM16.5003 17C16.5003 17.8284 15.8287 18.5 15.0003 18.5V19.5C16.381 19.5 17.5003 18.3807 17.5003 17H16.5003ZM15.0003 15.5C15.8287 15.5 16.5003 16.1716 16.5003 17H17.5003C17.5003 15.6193 16.381 14.5 15.0003 14.5V15.5ZM13.5003 17C13.5003 16.1716 14.1719 15.5 15.0003 15.5V14.5C13.6196 14.5 12.5003 15.6193 12.5003 17H13.5003ZM15.0003 18.5C14.1719 18.5 13.5003 17.8284 13.5003 17H12.5003C12.5003 18.3807 13.6196 19.5 15.0003 19.5V18.5Z" fill="white"/>
<path fill-rule="evenodd" clip-rule="evenodd" d="M15.0333 24C15.0333 24 14 24.7033 14 25.461C14 26.2188 15.0333 27 15.0333 27C15.0333 27 16 26.1988 16 25.461C16 24.7233 15.0333 24 15.0333 24Z" fill="white" fill-opacity="0.8"/>
<defs>
<filter id="filter0_bd_11163_54381" x="-2.5" y="0.5" width="36" height="35" filterUnits="userSpaceOnUse" color-interpolation-filters="sRGB">
<feFlood flood-opacity="0" result="BackgroundImageFix"/>
<feGaussianBlur in="BackgroundImage" stdDeviation="2.5"/>
<feComposite in2="SourceAlpha" operator="in" result="effect1_backgroundBlur_11163_54381"/>
<feColorMatrix in="SourceAlpha" type="matrix" values="0 0 0 0 0 0 0 0 0 0 0 0 0 0 0 0 0 0 127 0" result="hardAlpha"/>
<feOffset dx="2"/>
<feGaussianBlur stdDeviation="2"/>
<feColorMatrix type="matrix" values="0 0 0 0 0.65313 0 0 0 0 0.486901 0 0 0 0 0.949734 0 0 0 0.803107 0"/>
<feBlend mode="normal" in2="effect1_backgroundBlur_11163_54381" result="effect2_dropShadow_11163_54381"/>
<feBlend mode="normal" in="SourceGraphic" in2="effect2_dropShadow_11163_54381" result="shape"/>
</filter>
<filter id="filter1_d_11163_54381" x="4.86877" y="13.7974" width="20.4178" height="17.7168" filterUnits="userSpaceOnUse" color-interpolation-filters="sRGB">
<feFlood flood-opacity="0" result="BackgroundImageFix"/>
<feColorMatrix in="SourceAlpha" type="matrix" values="0 0 0 0 0 0 0 0 0 0 0 0 0 0 0 0 0 0 127 0" result="hardAlpha"/>
<feOffset/>
<feGaussianBlur stdDeviation="3"/>
<feColorMatrix type="matrix" values="0 0 0 0 0.552941 0 0 0 0 0.341176 0 0 0 0 0.917647 0 0 0 0.496404 0"/>
<feBlend mode="normal" in2="BackgroundImageFix" result="effect1_dropShadow_11163_54381"/>
<feBlend mode="normal" in="SourceGraphic" in2="effect1_dropShadow_11163_54381" result="shape"/>
</filter>
<linearGradient id="paint0_linear_11163_54381" x1="16.6241" y1="-2.28964" x2="4.7368" y2="19.0202" gradientUnits="userSpaceOnUse">
<stop stop-color="#D1BAFF"/>
<stop offset="1" stop-color="#A070F0"/>
</linearGradient>
</defs>
</svg>
