<svg width="34" height="35" viewBox="0 0 34 35" fill="none" xmlns="http://www.w3.org/2000/svg">
<rect opacity="0.01" x="2" width="32" height="32" fill="#D8D8D8"/>
<circle cx="21" cy="14" r="12.5" fill="url(#paint0_linear_10973_99540)"/>
<g filter="url(#filter0_bd_10973_99540)">
<circle cx="15" cy="18" r="12.5" fill="#98E0AC" fill-opacity="0.3"/>
<circle cx="15" cy="18" r="12" stroke="white"/>
</g>
<path d="M19.4546 11.6362H10.5455C10.2046 11.6362 9.90912 11.9317 9.90912 12.2726V23.7271C9.90912 24.068 10.2046 24.3635 10.5455 24.3635H19.4546C19.7955 24.3635 20.0909 24.068 20.0909 23.7271V12.2726C20.0909 11.9317 19.7955 11.6362 19.4546 11.6362ZM12.8409 15.5226C12.9773 15.3862 13.2046 15.3862 13.3409 15.5226L14.3637 16.5453L16.6591 14.2499C16.7955 14.1135 17.0228 14.1135 17.1591 14.2499C17.2955 14.3862 17.2955 14.6135 17.1591 14.7499L14.6137 17.2953C14.5455 17.3635 14.4546 17.409 14.3637 17.409C14.2728 17.409 14.1818 17.3635 14.1137 17.2953L12.8409 16.0226C12.7046 15.8862 12.7046 15.659 12.8409 15.5226ZM15 22.1817H12.7728C12.5682 22.1817 12.4091 22.0226 12.4091 21.818C12.4091 21.6135 12.5682 21.4544 12.7728 21.4544H15C15.2046 21.4544 15.3637 21.6135 15.3637 21.818C15.3637 22.0226 15.2046 22.1817 15 22.1817ZM17.2273 20.2726H12.7728C12.5682 20.2726 12.4091 20.1135 12.4091 19.909C12.4091 19.7044 12.5682 19.5453 12.7728 19.5453H17.2273C17.4318 19.5453 17.5909 19.7044 17.5909 19.909C17.5909 20.1135 17.4318 20.2726 17.2273 20.2726Z" fill="white"/>
<defs>
<filter id="filter0_bd_10973_99540" x="-2.5" y="0.5" width="36" height="35" filterUnits="userSpaceOnUse" color-interpolation-filters="sRGB">
<feFlood flood-opacity="0" result="BackgroundImageFix"/>
<feGaussianBlur in="BackgroundImage" stdDeviation="2.5"/>
<feComposite in2="SourceAlpha" operator="in" result="effect1_backgroundBlur_10973_99540"/>
<feColorMatrix in="SourceAlpha" type="matrix" values="0 0 0 0 0 0 0 0 0 0 0 0 0 0 0 0 0 0 127 0" result="hardAlpha"/>
<feOffset dx="2"/>
<feGaussianBlur stdDeviation="2"/>
<feColorMatrix type="matrix" values="0 0 0 0 0.327378 0 0 0 0 0.720833 0 0 0 0 0.436671 0 0 0 0.5 0"/>
<feBlend mode="normal" in2="effect1_backgroundBlur_10973_99540" result="effect2_dropShadow_10973_99540"/>
<feBlend mode="normal" in="SourceGraphic" in2="effect2_dropShadow_10973_99540" result="shape"/>
</filter>
<linearGradient id="paint0_linear_10973_99540" x1="16.6241" y1="-2.28964" x2="4.7368" y2="19.0202" gradientUnits="userSpaceOnUse">
<stop stop-color="#B3E9C2"/>
<stop offset="1" stop-color="#78B78E"/>
</linearGradient>
</defs>
</svg>
