<svg width="34" height="34" viewBox="0 0 34 34" fill="none" xmlns="http://www.w3.org/2000/svg">
<rect opacity="0.01" x="2" width="32" height="32" fill="#D8D8D8"/>
<circle cx="21" cy="13.5" r="12.5" fill="url(#paint0_linear_10973_99565)"/>
<g filter="url(#filter0_bd_10973_99565)">
<circle cx="15" cy="17.5" r="12.5" fill="#FFCF9B" fill-opacity="0.301672"/>
<circle cx="15" cy="17.5" r="12" stroke="white"/>
</g>
<path d="M21.8246 21.6652C21.5056 22.04 21.1067 22.3881 20.6289 22.6999L20.6158 22.7085L20.6151 22.7089C19.1867 23.6363 17.2397 24.1469 15.1308 24.1469C13.3289 24.1469 11.5819 23.7569 10.2112 23.0489C9.43643 22.6484 8.80783 22.1552 8.34578 21.6032C8.44755 22.6083 9.21167 23.593 10.6143 24.3177C11.9113 24.9879 13.526 25.3178 15.1308 25.3178C16.9833 25.3178 18.8223 24.8784 20.1464 24.0152L20.1491 24.0137C21.187 23.3363 21.7363 22.5065 21.8246 21.6652ZM20.6289 20.6508L20.6158 20.6593L20.6151 20.6598C19.1867 21.5872 17.2397 22.0977 15.1308 22.0977C13.3289 22.0977 11.5819 21.7078 10.2112 20.9997C9.43643 20.5993 8.80783 20.106 8.34578 19.5541C8.44755 20.5592 9.21167 21.5439 10.6143 22.2686C11.9113 22.9388 13.526 23.2687 15.1308 23.2687C16.9833 23.2687 18.8223 22.8292 20.1464 21.9661L20.1491 21.9645C21.1871 21.2872 21.7363 20.4574 21.8246 19.616C21.5056 19.9908 21.1067 20.339 20.6289 20.6508ZM20.6289 18.6016L20.6158 18.6102L20.6151 18.6107C19.1867 19.538 17.2397 20.0486 15.1308 20.0486C13.3289 20.0486 11.5819 19.6587 10.2112 18.9506C9.43643 18.5502 8.80783 18.0569 8.34578 17.5048C8.44755 18.51 9.21167 19.4947 10.6143 20.2193C11.9113 20.8897 13.526 21.2195 15.1308 21.2195C16.9833 21.2195 18.8223 20.7801 20.1464 19.917L20.1491 19.9154C21.1871 19.2379 21.7363 18.4083 21.8246 17.5669C21.5056 17.9417 21.1067 18.2899 20.6289 18.6016ZM8.33726 15.0951C8.27093 16.2234 9.04185 17.3628 10.6143 18.175C13.4085 19.6188 17.6752 19.4838 20.1464 17.8728L20.1491 17.8711C21.2325 17.1641 21.7897 16.2913 21.8393 15.4125C21.8426 15.3576 21.8363 15.3028 21.8354 15.2478C21.8346 15.1791 21.838 15.1102 21.8306 15.0414C21.7262 14.0386 20.9621 13.0566 19.5627 12.3336C18.2657 11.6635 16.6514 11.3335 15.0468 11.3335C14.9261 11.3335 14.8057 11.3405 14.6854 11.3442C14.6786 11.3444 14.6719 11.3447 14.6651 11.3448C14.4565 11.3517 14.2491 11.3641 14.0426 11.3819C14.0337 11.3828 14.025 11.3835 14.0164 11.3844C13.8106 11.4029 13.6067 11.4264 13.4043 11.4557C13.3961 11.457 13.3878 11.4583 13.3795 11.4595C13.1759 11.4896 12.9752 11.5246 12.777 11.5658C12.7717 11.5668 12.7669 11.5679 12.762 11.5691C11.7434 11.7816 10.7981 12.1357 10.0283 12.6374L10.0264 12.6385C8.94446 13.3446 8.3869 14.2167 8.33726 15.0951ZM19.4249 17.4928L19.4244 17.4933C17.307 18.8741 13.6476 18.9908 11.254 17.7539C8.85804 16.516 8.63536 14.3934 10.7526 13.0126C12.8712 11.6305 16.5271 11.5139 18.9229 12.7517C21.3165 13.9886 21.5435 16.111 19.4249 17.4928ZM11.0327 13.1574C9.05589 14.4516 9.2672 16.4315 11.5019 17.5922C13.7471 18.7462 17.1593 18.6383 19.1443 17.3483C21.1211 16.0542 20.9117 14.073 18.675 12.9134C16.4318 11.7583 13.0179 11.8674 11.0327 13.1574ZM12.9942 16.923L12.6854 17.1243C12.5681 17.2007 12.5257 17.201 12.3871 17.1295L12.3441 17.1072L12.2312 17.0489C12.0913 16.9767 12.0868 16.9519 12.2039 16.8756L12.5128 16.6742C12.2503 16.5386 11.3217 15.873 11.5277 15.7387C11.5486 15.725 11.5486 15.725 11.6045 15.707L12.407 15.4464C12.4269 15.4404 12.5005 15.4294 12.5321 15.4457C12.5793 15.4701 12.8297 15.9137 13.2563 16.1892L14.602 15.3115C14.3132 14.9461 13.662 14.328 14.5679 13.7371C15.5784 13.0781 16.8748 13.4114 17.2463 13.5868L17.5831 13.3671C17.6996 13.2909 17.7443 13.2895 17.8834 13.3614L18.0415 13.4428C18.1785 13.5138 18.1811 13.5399 18.0644 13.6158L17.7276 13.8355C17.9407 13.9619 18.7831 14.5728 18.5492 14.7252C18.5215 14.7436 18.4927 14.7531 18.4489 14.763L17.7419 14.9427C17.6933 14.9583 17.6488 14.9599 17.617 14.9434C17.5698 14.9189 17.3424 14.479 17.0067 14.3057L15.736 15.1345C16.0216 15.539 16.5811 16.1728 15.7014 16.7466C14.7468 17.3694 13.5841 17.1379 12.9942 16.923ZM14.7675 16.313C15.1654 16.0535 14.967 15.7816 14.8711 15.6362L13.6846 16.4104C13.9635 16.4914 14.3903 16.5589 14.7675 16.313ZM15.4601 14.8163L16.5807 14.0854C16.3899 14.0277 15.9207 13.8976 15.5159 14.1616C15.144 14.4042 15.358 14.6821 15.4601 14.8163Z" fill="white"/>
<defs>
<filter id="filter0_bd_10973_99565" x="-2.5" y="0" width="36" height="35" filterUnits="userSpaceOnUse" color-interpolation-filters="sRGB">
<feFlood flood-opacity="0" result="BackgroundImageFix"/>
<feGaussianBlur in="BackgroundImage" stdDeviation="2.5"/>
<feComposite in2="SourceAlpha" operator="in" result="effect1_backgroundBlur_10973_99565"/>
<feColorMatrix in="SourceAlpha" type="matrix" values="0 0 0 0 0 0 0 0 0 0 0 0 0 0 0 0 0 0 127 0" result="hardAlpha"/>
<feOffset dx="2"/>
<feGaussianBlur stdDeviation="2"/>
<feColorMatrix type="matrix" values="0 0 0 0 0.909804 0 0 0 0 0.580392 0 0 0 0 0.341176 0 0 0 0.615862 0"/>
<feBlend mode="normal" in2="effect1_backgroundBlur_10973_99565" result="effect2_dropShadow_10973_99565"/>
<feBlend mode="normal" in="SourceGraphic" in2="effect2_dropShadow_10973_99565" result="shape"/>
</filter>
<linearGradient id="paint0_linear_10973_99565" x1="16.6241" y1="-2.78964" x2="4.7368" y2="18.5202" gradientUnits="userSpaceOnUse">
<stop stop-color="#FCEADA"/>
<stop offset="1" stop-color="#EE9C5E"/>
</linearGradient>
</defs>
</svg>
