<svg width="34" height="35" viewBox="0 0 34 35" fill="none" xmlns="http://www.w3.org/2000/svg">
<rect opacity="0.01" x="2" width="32" height="32" fill="#D8D8D8"/>
<circle cx="21" cy="14" r="12.5" fill="url(#paint0_linear_10973_99573)"/>
<g filter="url(#filter0_bd_10973_99573)">
<circle cx="15" cy="18" r="12.5" fill="#CEEBF2" fill-opacity="0.3"/>
<circle cx="15" cy="18" r="12" stroke="white"/>
</g>
<path d="M21.3667 21.3667C20.7 21.1 17.3667 19.8 16.7333 19.7C16.3667 19.6333 15.9667 19.8 15.7667 20.1333C15.6 20.3667 15.5333 20.7 15.6333 20.9667C15.8 21.2667 16 21.5667 16.2333 21.8333C15.2333 21.8333 14.2 21.6667 13.2667 21.3C12.8 21.1333 12.2 20.5333 11.6667 20C10.9333 19.2333 10.2333 18.5333 9.46666 18.5333C9.16666 18.5333 8.9 18.6333 8.7 18.8333C8.4 19.0667 8.13333 19.5667 8.46666 20.5333C9.03333 22.1 11.2 24.5667 13.2333 24.7H21.1667C21.4333 24.7 21.6333 24.5 21.6667 24.2333V21.8667C21.6667 21.6 21.5333 21.4333 21.3667 21.3667ZM14.9667 11.3333C11.8667 11.3 9.33333 13.7333 9.26666 16.8C9.26666 17.2 9.33333 17.6333 9.4 18.0333H9.43333C10.4 18.0333 11.1667 18.8333 12 19.6667C12.4 20.1333 12.8667 20.5333 13.4 20.8667C13.9667 21.0667 14.5667 21.2333 15.2 21.3C15.1667 21.2667 15.1667 21.2 15.1333 21.1667C14.9667 20.7333 15.0333 20.2667 15.3 19.9C15.5667 19.5 16.0333 19.2667 16.5333 19.2333C16.6 19.2333 16.7 19.2333 16.7667 19.2667C17.6667 19.5 18.5667 19.8 19.4667 20.1667C20.2333 19.2333 20.6333 18.0667 20.6333 16.8333C20.5667 13.7333 18.0333 11.3 14.9667 11.3333Z" fill="white"/>
<path d="M14.4614 18.8188V17.1821C13.951 17.0363 13.576 16.8162 13.3364 16.522C13.0994 16.2251 12.9809 15.8657 12.9809 15.4438C12.9809 15.0168 13.115 14.6587 13.3833 14.3696C13.6541 14.078 14.0135 13.91 14.4614 13.8657V13.479H15.0278V13.8657C15.4418 13.9152 15.7713 14.0571 16.0161 14.2915C16.2609 14.5233 16.4171 14.8345 16.4848 15.2251L15.4965 15.354C15.4366 15.0467 15.2804 14.8384 15.0278 14.729V16.2563C15.6528 16.4256 16.0786 16.6457 16.3051 16.9165C16.5317 17.1847 16.645 17.5298 16.645 17.9517C16.645 18.423 16.5017 18.8201 16.2153 19.1431C15.9314 19.466 15.5356 19.6639 15.0278 19.7368V20.4673H14.4614V19.7563C14.0109 19.7017 13.645 19.5337 13.3637 19.2524C13.0825 18.9712 12.9028 18.5741 12.8247 18.061L13.8442 17.9517C13.8859 18.16 13.964 18.3397 14.0786 18.4907C14.1931 18.6418 14.3208 18.7511 14.4614 18.8188ZM14.4614 14.7173C14.3077 14.7694 14.1853 14.8579 14.0942 14.9829C14.003 15.1079 13.9575 15.2459 13.9575 15.397C13.9575 15.535 13.9991 15.6639 14.0825 15.7837C14.1658 15.9009 14.2921 15.9959 14.4614 16.0688V14.7173ZM15.0278 18.8735C15.2231 18.8371 15.382 18.7472 15.5043 18.604C15.6267 18.4582 15.6879 18.2876 15.6879 18.0923C15.6879 17.9178 15.6359 17.7681 15.5317 17.6431C15.4301 17.5155 15.2622 17.4178 15.0278 17.3501V18.8735Z" fill="#85C6D6"/>
<defs>
<filter id="filter0_bd_10973_99573" x="-2.5" y="0.5" width="36" height="35" filterUnits="userSpaceOnUse" color-interpolation-filters="sRGB">
<feFlood flood-opacity="0" result="BackgroundImageFix"/>
<feGaussianBlur in="BackgroundImage" stdDeviation="2.5"/>
<feComposite in2="SourceAlpha" operator="in" result="effect1_backgroundBlur_10973_99573"/>
<feColorMatrix in="SourceAlpha" type="matrix" values="0 0 0 0 0 0 0 0 0 0 0 0 0 0 0 0 0 0 127 0" result="hardAlpha"/>
<feOffset dx="2"/>
<feGaussianBlur stdDeviation="2"/>
<feColorMatrix type="matrix" values="0 0 0 0 0.352941 0 0 0 0 0.666667 0 0 0 0 0.74902 0 0 0 0.796322 0"/>
<feBlend mode="normal" in2="effect1_backgroundBlur_10973_99573" result="effect2_dropShadow_10973_99573"/>
<feBlend mode="normal" in="SourceGraphic" in2="effect2_dropShadow_10973_99573" result="shape"/>
</filter>
<linearGradient id="paint0_linear_10973_99573" x1="16.6241" y1="-2.28964" x2="4.7368" y2="19.0202" gradientUnits="userSpaceOnUse">
<stop stop-color="#BAE2EC"/>
<stop offset="1" stop-color="#5AAEC4"/>
</linearGradient>
</defs>
</svg>
