<svg width="16" height="18" viewBox="0 0 16 18" fill="none" xmlns="http://www.w3.org/2000/svg">
<path fill-rule="evenodd" clip-rule="evenodd" d="M11.7807 6.84153L11.7318 6.83435C11.4446 6.79222 11.1568 6.75001 10.8571 6.75001C9.52824 6.75001 8.29989 7.16103 7.28486 7.85363C7.22429 7.85558 7.16499 7.85965 7.10574 7.86373C7.02383 7.86936 6.94201 7.87498 6.85704 7.87498C3.06962 7.87498 2.09214e-05 6.3639 2.09214e-05 4.4999V3.37508C2.09214e-05 1.51108 3.06962 0 6.85704 0C10.6442 0 13.7145 1.51108 13.7145 3.37508V4.4999C13.7145 5.41099 12.9735 6.23439 11.7807 6.84153ZM13.7145 7.45562V5.97658C13.7145 6.43003 13.5265 6.83992 13.1967 7.20346C13.3325 7.25725 13.46 7.32369 13.5881 7.3904C13.6301 7.41226 13.6721 7.43414 13.7145 7.45562ZM5.71424 12.9375C5.71424 15.7335 8.01672 18 10.8571 18C13.6976 18 16 15.7335 16 12.9375C16 10.1415 13.6976 7.87496 10.8571 7.87496C8.01672 7.87496 5.71424 10.1415 5.71424 12.9375ZM7.9999 12.9375C7.9999 11.3842 9.27908 10.1249 10.8571 10.1249C12.4352 10.1249 13.7145 11.3842 13.7144 12.9375C13.7144 14.4909 12.4352 15.75 10.8571 15.75C9.27908 15.75 7.9999 14.4909 7.9999 12.9375ZM11.4288 14.6248H10.2854V13.4998H9.14269V12.3749H10.2854V11.2499H11.4288V12.3749H12.5716V13.4998H11.4288V14.6248ZM4.88781 11.0916C5.14007 10.3023 5.5419 9.58719 6.07079 8.96964C2.659 8.8186 0 7.70804 0 5.97658V7.87498C0 9.3996 2.06733 10.6731 4.88781 11.0916ZM4.64457 12.2202C4.63685 12.2854 4.62786 12.3503 4.61887 12.4151C4.59502 12.5871 4.57118 12.759 4.57118 12.9375C4.57118 13.4625 4.65763 13.9638 4.78286 14.4507C2.01648 14.0159 2.09214e-05 12.7556 2.09214e-05 11.2499V9.35151C0 10.8321 1.9496 11.8569 4.64457 12.2202ZM7.23583 17.9811C6.38715 17.3896 5.70832 16.5924 5.24312 15.6682C2.23848 15.3849 0 14.3156 0 12.7264V14.6248C0 16.4888 3.0696 18 6.85702 18C6.92985 18 6.99998 17.9951 7.07017 17.9902C7.12492 17.9864 7.1797 17.9826 7.23583 17.9811Z" fill="currentColor"/>
</svg>
