<svg width="22" height="22" viewBox="0 0 22 22" fill="none" xmlns="http://www.w3.org/2000/svg">
<path d="M13.1421 16.7138C13.0483 16.7139 12.9555 16.6956 12.8688 16.6598C12.7822 16.6239 12.7034 16.5714 12.6371 16.5051C12.5708 16.4388 12.5183 16.36 12.4825 16.2733C12.4467 16.1867 12.4283 16.0938 12.4285 16V8.1425C12.4285 7.95304 12.5037 7.77133 12.6377 7.63736C12.7716 7.50339 12.9533 7.42813 13.1427 7.42813C13.3322 7.42813 13.5138 7.50339 13.6478 7.63736C13.7817 7.77133 13.857 7.95304 13.857 8.1425V16C13.8571 16.0939 13.8387 16.1869 13.8029 16.2736C13.767 16.3604 13.7143 16.4392 13.6479 16.5055C13.5814 16.5718 13.5026 16.6244 13.4158 16.6601C13.329 16.6959 13.236 16.7141 13.1421 16.7138V16.7138ZM8.8579 16.7138C8.76404 16.7141 8.67103 16.6959 8.58423 16.6601C8.49743 16.6244 8.41855 16.5718 8.35212 16.5055C8.28569 16.4392 8.23302 16.3604 8.19714 16.2736C8.16126 16.1869 8.14287 16.0939 8.14304 16V8.1425C8.14304 7.95304 8.21829 7.77133 8.35223 7.63736C8.48618 7.50339 8.66785 7.42813 8.85728 7.42813C9.0467 7.42813 9.22838 7.50339 9.36232 7.63736C9.49627 7.77133 9.57152 7.95304 9.57152 8.1425V16C9.57168 16.0938 9.55334 16.1867 9.51753 16.2733C9.48173 16.36 9.42917 16.4388 9.36287 16.5051C9.29657 16.5714 9.21784 16.6239 9.13119 16.6598C9.04453 16.6956 8.95166 16.7139 8.8579 16.7138V16.7138ZM20.2845 4.57125H16.7114V3.1425C16.7128 2.57689 16.4899 2.03382 16.0917 1.63223C15.6934 1.23065 15.1523 1.00331 14.5868 1H7.42817C6.24714 1 5.28607 1.96125 5.28607 3.1425V4.57125H1.71424C1.52481 4.57125 1.34314 4.64651 1.2092 4.78049C1.07525 4.91446 1 5.09616 1 5.28563C1 5.47509 1.07525 5.65679 1.2092 5.79076C1.34314 5.92474 1.52481 6 1.71424 6H20.2858C20.4752 6 20.6569 5.92474 20.7908 5.79076C20.9247 5.65679 21 5.47509 21 5.28563C21 5.09616 20.9247 4.91446 20.7908 4.78049C20.6569 4.64651 20.4752 4.57125 20.2858 4.57125H20.2845ZM6.7133 3.1425C6.7133 2.74875 7.03449 2.42875 7.42817 2.42875H14.5856C14.9768 2.42875 15.2842 2.74125 15.2842 3.1425V4.57125H6.7133V3.1425ZM16.0003 21H6.00219C4.81991 21 3.85884 20.0375 3.85884 18.8563V8.1325C3.86655 7.94821 3.94517 7.77402 4.07827 7.64635C4.21137 7.51867 4.38866 7.44739 4.57308 7.44739C4.7575 7.44739 4.93479 7.51867 5.06789 7.64635C5.20099 7.77402 5.27961 7.94821 5.28732 8.1325V18.8575C5.28732 19.2525 5.60726 19.5725 6.00094 19.5725H16.0003C16.1899 19.5725 16.3717 19.4972 16.5058 19.3631C16.6399 19.229 16.7152 19.0471 16.7152 18.8575V8.16125C16.7152 7.97179 16.7904 7.79008 16.9244 7.65611C17.0583 7.52214 17.24 7.44688 17.4294 7.44688C17.6188 7.44688 17.8005 7.52214 17.9345 7.65611C18.0684 7.79008 18.1437 7.97179 18.1437 8.16125V18.8563C18.1437 20.0388 17.1813 21 16.0003 21V21Z" fill="currentColor" stroke="currentColor" stroke-width="0.4"/>
</svg>
