<svg width="20" height="20" viewBox="0 0 20 20" fill="none" xmlns="http://www.w3.org/2000/svg">
<path d="M9.99964 18C8.92023 18 7.87181 17.8054 6.88577 17.4194C5.9326 17.0482 5.07784 16.5163 4.34331 15.8386C3.60868 15.1607 3.03218 14.371 2.62884 13.4922C2.21168 12.5823 2 11.6156 2 10.6189C2 9.4265 2.3169 8.24258 2.91575 7.19385C3.49474 6.18055 4.33585 5.29081 5.34866 4.621C5.63005 4.4349 6.02103 4.49524 6.22215 4.75426C6.42327 5.01336 6.3591 5.3735 6.07759 5.55846C5.22172 6.12602 4.51135 6.87607 4.02325 7.73153C3.51094 8.62812 3.25144 9.59942 3.25144 10.619C3.25144 12.2824 3.95355 13.8465 5.22862 15.0224C6.50285 16.1988 8.19745 16.8467 9.99968 16.8467C11.8014 16.8467 13.4965 16.1988 14.7715 15.0224C16.0465 13.8465 16.748 12.2825 16.748 10.619C16.748 9.60056 16.4891 8.62755 15.9762 7.73153C15.488 6.87677 14.7772 6.12606 13.9211 5.55961C13.6404 5.37473 13.5749 5.01451 13.7767 4.75551C13.9784 4.49649 14.3687 4.4356 14.6495 4.62225C15.6629 5.29194 16.5052 6.18168 17.0837 7.195C17.6831 8.24375 18 9.42773 18 10.6202C18 11.6167 17.7884 12.5835 17.3706 13.4939C16.9678 14.3728 16.3908 15.1625 15.6563 15.8403C14.9215 16.5181 14.0667 17.0493 13.1137 17.4223C12.1271 17.8059 11.0792 18 9.99975 18H9.99964ZM10.1877 9.99057C9.84207 9.99057 9.562 9.73327 9.562 9.41389V2.57725C9.562 2.25904 9.84211 2 10.1877 2C10.5333 2 10.8139 2.25902 10.8139 2.57725V9.41389C10.8139 9.73325 10.5332 9.99057 10.1877 9.99057Z" fill="black" fill-opacity="0.5"/>
</svg>
