<svg width="22" height="16" viewBox="0 0 22 16" fill="none" xmlns="http://www.w3.org/2000/svg">
<path d="M3.84146 1.60068C3.84719 1.5898 3.85666 1.58127 3.8682 1.57662C5.20252 0.975354 6.6106 0.546604 8.05721 0.3011C8.07036 0.298701 8.08393 0.300432 8.09602 0.306048C8.1081 0.311664 8.11807 0.320879 8.12452 0.332382C8.31626 0.674169 8.49031 1.02524 8.64602 1.38426C10.2054 1.15177 11.7916 1.15177 13.3509 1.38426C13.5077 1.02433 13.6845 0.673169 13.8807 0.332382C13.8874 0.321129 13.8974 0.312126 13.9094 0.306547C13.9214 0.300967 13.9349 0.299069 13.948 0.3011C15.3948 0.546089 16.8029 0.974871 18.1371 1.57665C18.1485 1.58141 18.1581 1.58953 18.1646 1.59989C20.8327 5.51307 21.5635 9.33004 21.205 13.0997C21.204 13.109 21.2011 13.1179 21.1965 13.126C21.1919 13.1342 21.1857 13.1413 21.1782 13.147C19.6247 14.2768 17.887 15.1391 16.0393 15.6973C16.0263 15.7011 16.0124 15.7009 15.9995 15.6968C15.9866 15.6926 15.9753 15.6847 15.9671 15.674C15.5703 15.1437 15.2187 14.5822 14.9158 13.9951C14.9117 13.987 14.9093 13.9782 14.9089 13.9692C14.9084 13.9601 14.91 13.9511 14.9133 13.9427C14.9167 13.9343 14.9218 13.9267 14.9284 13.9204C14.935 13.9141 14.9429 13.9092 14.9515 13.9061C15.506 13.6977 16.0428 13.4466 16.5569 13.1549C16.5662 13.1495 16.5741 13.142 16.5797 13.1329C16.5854 13.1238 16.5887 13.1135 16.5893 13.1029C16.59 13.0923 16.5879 13.0816 16.5834 13.072C16.5789 13.0623 16.572 13.0539 16.5634 13.0475C16.4552 12.9681 16.3489 12.8863 16.2446 12.8021C16.2354 12.7947 16.2243 12.79 16.2126 12.7884C16.2008 12.7869 16.1889 12.7886 16.1781 12.7933C12.81 14.303 9.1637 14.303 5.83555 12.7933C5.82471 12.7883 5.81262 12.7863 5.8007 12.7877C5.78878 12.7892 5.77752 12.7939 5.76822 12.8013C5.66376 12.8859 5.55718 12.968 5.44859 13.0475C5.43992 13.0538 5.43298 13.0622 5.42838 13.0718C5.42379 13.0815 5.42167 13.092 5.42224 13.1027C5.4228 13.1133 5.42601 13.1236 5.4316 13.1327C5.43718 13.1418 5.44497 13.1495 5.45426 13.1549C5.96719 13.449 6.50448 13.7 7.06041 13.9053C7.06905 13.9085 7.07689 13.9135 7.08343 13.9199C7.08997 13.9263 7.09505 13.934 7.09836 13.9425C7.10166 13.951 7.10311 13.96 7.1026 13.9691C7.10209 13.9782 7.09964 13.987 7.09541 13.9951C6.78751 14.5789 6.4364 15.1397 6.04492 15.6731C6.03698 15.684 6.02573 15.6922 6.01277 15.6966C5.99982 15.7009 5.9858 15.7011 5.97272 15.6971C4.12177 15.1409 2.38106 14.2785 0.82555 13.147C0.817976 13.1416 0.811668 13.1346 0.807053 13.1266C0.802435 13.1186 0.799612 13.1097 0.798775 13.1005C0.369534 8.74236 1.5174 4.95668 3.84146 1.60068ZM14.4129 10.8044C15.4269 10.8044 16.2624 9.89045 16.2624 8.76804C16.2624 7.64563 15.4431 6.73163 14.4129 6.73163C13.3746 6.73163 12.5472 7.65357 12.5634 8.76797C12.5634 9.89045 13.3827 10.8044 14.4129 10.8044ZM7.57456 10.8044C8.58855 10.8044 9.42407 9.89045 9.42407 8.76804C9.42407 7.64563 8.60475 6.73163 7.57456 6.73163C6.53622 6.73163 5.70882 7.65357 5.72502 8.76797C5.72502 9.89045 6.53622 10.8044 7.57456 10.8044Z" fill="currentColor"/>
<defs>
<radialGradient id="paint0_radial_1543_23081" cx="0" cy="0" r="1" gradientUnits="userSpaceOnUse" gradientTransform="translate(21.29 15.7) rotate(-146.016) scale(29.0729 52.5962)">
<stop stop-color="#5331F4"/>
<stop offset="0.716911" stop-color="#9783F8"/>
<stop offset="1" stop-color="#B46AF9"/>
</radialGradient>
</defs>
</svg>
