<svg width="14" height="18" viewBox="0 0 14 18" fill="none" xmlns="http://www.w3.org/2000/svg">
<path d="M8.73356 0.333496H1.80023C1.5726 0.333496 1.34721 0.37833 1.13691 0.465438C0.926612 0.552546 0.735531 0.680223 0.574576 0.841178C0.413621 1.00213 0.285945 1.19321 0.198837 1.40351C0.111728 1.61381 0.0668945 1.8392 0.0668945 2.06683V15.9335C0.0668945 16.1611 0.111728 16.3865 0.198837 16.5968C0.285945 16.8071 0.413621 16.9982 0.574576 17.1591C0.735531 17.3201 0.926612 17.4478 1.13691 17.5349C1.34721 17.622 1.5726 17.6668 1.80023 17.6668H12.2002C12.4279 17.6668 12.6533 17.622 12.8635 17.5349C13.0738 17.4478 13.2649 17.3201 13.4259 17.1591C13.5868 16.9982 13.7145 16.8071 13.8016 16.5968C13.8887 16.3865 13.9336 16.1611 13.9336 15.9335V5.5335L8.73356 0.333496ZM4.53456 13.727C4.16536 14.0338 3.60463 14.1785 2.9191 14.1785C2.50743 14.1785 2.2171 14.1525 2.0195 14.1265V10.685C2.37394 10.6339 2.73174 10.6099 3.08983 10.613C3.75543 10.613 4.18703 10.7326 4.52416 10.9874C4.88816 11.2578 5.11696 11.6894 5.11696 12.3065C5.11696 12.9782 4.87256 13.441 4.53456 13.727ZM7.1259 14.2002C6.0859 14.2002 5.47836 13.415 5.47836 12.4166C5.47836 11.367 6.1483 10.5827 7.1831 10.5827C8.25863 10.5827 8.84623 11.3878 8.84623 12.355C8.84536 13.5034 8.14856 14.2002 7.1259 14.2002ZM11.1602 13.5398C11.3986 13.5398 11.6638 13.4869 11.8206 13.4254L11.9402 14.0433C11.7946 14.1161 11.467 14.1941 11.0415 14.1941C9.83076 14.1941 9.20676 13.441 9.20676 12.4426C9.20676 11.2474 10.0587 10.5827 11.1195 10.5827C11.5303 10.5827 11.8414 10.6659 11.9818 10.7387L11.8206 11.3679C11.6096 11.2807 11.3833 11.2365 11.155 11.2379C10.5258 11.2379 10.037 11.6175 10.037 12.3975C10.037 13.0986 10.453 13.5398 11.1602 13.5398ZM8.73356 6.40016H7.8669V2.06683L12.2002 6.40016H8.73356Z" fill="currentColor"/>
<defs>
<radialGradient id="paint0_radial_1543_23096" cx="0" cy="0" r="1" gradientUnits="userSpaceOnUse" gradientTransform="translate(0.0668948 17.6668) rotate(-48.393) scale(24.4621 47.4067)">
<stop stop-color="#5331F4"/>
<stop offset="0.716911" stop-color="#9783F8"/>
<stop offset="1" stop-color="#B46AF9"/>
</radialGradient>
</defs>
</svg>
