<svg width="24" height="24" viewBox="0 0 24 24" fill="none" xmlns="http://www.w3.org/2000/svg">
<g filter="url(#filter0_b_15941_63343)">
<circle cx="12" cy="12" r="12" fill="#00CCF1"/>
</g>
<g clip-path="url(#clip0_15941_63343)">
<path fill-rule="evenodd" clip-rule="evenodd" d="M16.0891 10.5974C15.8911 10.5479 15.6831 10.5216 15.4679 10.5216C15.4679 10.5216 15.4679 10.5216 15.4679 10.5216C15.6831 10.5216 15.8911 10.5479 16.0891 10.5974ZM14.9728 16.4621V16.4621H15.4679C17.3985 16.4621 18.9331 14.9274 18.9331 12.9968C18.9331 11.4127 17.8441 10.0267 16.3591 9.63061C16.0322 7.95575 14.7615 6.61802 13.1034 6.20154C14.7615 6.61806 16.0321 7.95576 16.3589 9.63057C17.8439 10.0267 18.9329 11.4127 18.9329 12.9968C18.9329 14.9274 17.3984 16.4621 15.4678 16.4621H14.9728ZM7.83421 16.3924C8.0609 16.4381 8.29599 16.4621 8.53728 16.4621H9.03236V15.4719H9.03249V16.4621H8.53741C8.29608 16.4621 8.06094 16.4381 7.83421 16.3924ZM7.79427 15.3623C6.78112 15.0531 6.06213 14.123 6.06213 12.9968C6.06213 11.6106 7.15129 10.5216 8.53728 10.5216C8.53728 8.59098 10.072 7.05644 12.0026 7.05644C12.3024 7.05644 12.5926 7.09344 12.8691 7.16318C12.5927 7.09346 12.3025 7.05647 12.0027 7.05647C10.0721 7.05647 8.53741 8.59101 8.53741 10.5216C7.15142 10.5216 6.06226 11.6107 6.06226 12.9968C6.06226 14.123 6.78119 15.0531 7.79427 15.3623ZM12.0029 5.93311C9.78897 5.93311 7.97136 7.47311 7.5322 9.52412C6.03028 9.96333 4.93903 11.3805 4.9389 12.9968C4.9389 15.0011 6.53313 16.5954 8.53741 16.5954H9.16582V15.3386H8.53741C7.22492 15.3386 6.19559 14.3093 6.19559 12.9968C6.19559 11.6843 7.22505 10.655 8.53741 10.655H8.67074V10.5216C8.67074 8.66466 10.1457 7.1898 12.0027 7.1898C13.8597 7.1898 15.3346 8.66465 15.3346 10.5216V10.655H15.4679C16.7804 10.655 17.8097 11.6844 17.8097 12.9968C17.8097 14.3093 16.7803 15.3386 15.4679 15.3386H14.8395V16.5954H15.4679C17.4722 16.5954 19.0664 15.0011 19.0664 12.9968C19.0664 11.3805 17.9753 9.96333 16.4734 9.52412C16.0342 7.47311 14.2166 5.93311 12.0029 5.93311Z" fill="white"/>
<path fill-rule="evenodd" clip-rule="evenodd" d="M11.6064 17.7965L10.1213 16.3609C9.92335 16.1628 9.92335 15.8658 10.1213 15.6679C10.2072 15.5819 10.3211 15.5333 10.4386 15.5219C10.3211 15.5333 10.2073 15.582 10.1215 15.6678C9.92348 15.8658 9.92348 16.1628 10.1215 16.3609L11.6066 17.7965C11.6561 17.846 11.7057 17.8954 11.7551 17.8954C11.841 17.9384 11.9268 17.9534 12.0127 17.9446C11.9268 17.9535 11.8409 17.9384 11.755 17.8955C11.7056 17.8955 11.656 17.846 11.6064 17.7965ZM12.3491 17.7965L12.4291 17.9031C12.2142 18.0643 11.9698 18.1402 11.718 18.0255C11.6673 18.0166 11.6271 17.991 11.6008 17.9713C11.5682 17.9468 11.5376 17.9161 11.5147 17.8933L11.5147 17.8933L11.513 17.8915L10.0287 16.4568L10.027 16.4552C9.77703 16.205 9.77698 15.8236 10.0271 15.5736C10.2765 15.3241 10.7056 15.3234 10.9561 15.5714L11.3246 15.9092L11.3246 12.0046C11.3246 11.6254 11.6406 11.3763 11.953 11.3763C12.3321 11.3763 12.5813 11.6922 12.5813 12.0046L12.5813 15.9094L12.9499 15.5716C13.2002 15.3235 13.6294 15.3242 13.8787 15.5737C14.129 15.8237 14.1289 16.2052 13.8788 16.4553L12.4434 17.8907L12.3491 17.7965C12.3491 17.7965 12.3491 17.7965 12.3491 17.7965ZM13.3592 15.522C13.2417 15.5334 13.1279 15.5821 13.042 15.668L12.4481 16.2124L12.4481 16.2125L13.0421 15.668C13.128 15.5821 13.2417 15.5334 13.3592 15.522ZM11.9038 11.5122C11.6737 11.5364 11.458 11.7273 11.458 12.0045L11.458 16.2123L11.4579 16.2122L11.4579 12.0046C11.4579 11.7273 11.6737 11.5363 11.9038 11.5122Z" fill="white"/>
</g>
<defs>
<filter id="filter0_b_15941_63343" x="-6" y="-6" width="36" height="36" filterUnits="userSpaceOnUse" color-interpolation-filters="sRGB">
<feFlood flood-opacity="0" result="BackgroundImageFix"/>
<feGaussianBlur in="BackgroundImageFix" stdDeviation="3"/>
<feComposite in2="SourceAlpha" operator="in" result="effect1_backgroundBlur_15941_63343"/>
<feBlend mode="normal" in="SourceGraphic" in2="effect1_backgroundBlur_15941_63343" result="shape"/>
</filter>
<clipPath id="clip0_15941_63343">
<rect width="16" height="16" fill="white" transform="matrix(-1 0 0 1 20 4)"/>
</clipPath>
</defs>
</svg>
