<svg width="24" height="24" viewBox="0 0 24 24" fill="none" xmlns="http://www.w3.org/2000/svg">
<path d="M4 10C5.10457 10 6 9.10457 6 8C6 6.89543 5.10457 6 4 6C2.89543 6 2 6.89543 2 8C2 9.10457 2.89543 10 4 10Z" fill="currentColor"/>
<path d="M4 18C5.10457 18 6 17.1046 6 16C6 14.8954 5.10457 14 4 14C2.89543 14 2 14.8954 2 16C2 17.1046 2.89543 18 4 18Z" fill="currentColor"/>
<path d="M14 8C14 9.10457 13.1046 10 12 10C10.8954 10 10 9.10457 10 8C10 6.89543 10.8954 6 12 6C13.1046 6 14 6.89543 14 8Z" fill="currentColor"/>
<path d="M12 18C13.1046 18 14 17.1046 14 16C14 14.8954 13.1046 14 12 14C10.8954 14 10 14.8954 10 16C10 17.1046 10.8954 18 12 18Z" fill="currentColor"/>
<path d="M22 8C22 9.10457 21.1046 10 20 10C18.8954 10 18 9.10457 18 8C18 6.89543 18.8954 6 20 6C21.1046 6 22 6.89543 22 8Z" fill="currentColor"/>
<path d="M20 18C21.1046 18 22 17.1046 22 16C22 14.8954 21.1046 14 20 14C18.8954 14 18 14.8954 18 16C18 17.1046 18.8954 18 20 18Z" fill="currentColor"/>
</svg>
