<svg width="18" height="18" viewBox="0 0 18 18" fill="none" xmlns="http://www.w3.org/2000/svg">
<path fill-rule="evenodd" clip-rule="evenodd" d="M2.47507 2.80118C4.11403 1.07651 6.43182 0 9 0C11.478 0 13.7231 1.00232 15.3501 2.62214C16.9862 4.25122 18 6.50779 18 9C18 11.4922 16.9862 13.7488 15.35 15.3778C14.6892 16.0358 13.9264 16.5919 13.0875 17.0202C13.0887 17.0196 13.09 17.0189 13.0912 17.0182L13.0645 17.0318C13.0722 17.0281 13.0799 17.0243 13.0875 17.0202C11.8609 17.6466 10.4715 18 9 18C4.02944 18 0 13.9706 0 9C0 6.59796 0.941823 4.41458 2.47507 2.80118ZM7.03638 1.5067C6.58338 1.62503 6.14655 1.78335 5.72988 1.9777C6.67441 2.89271 8.12084 4.48129 9.24059 6.25808C9.12534 6.31158 9.00928 6.36337 8.8925 6.41325C7.64966 6.94404 6.01629 7.20255 4.46058 7.31052C3.30623 7.39064 2.225 7.38608 1.42984 7.35922C1.34229 7.76517 1.28658 8.18299 1.26541 8.60995C2.10463 8.64165 3.28195 8.65116 4.54753 8.56332C6.15014 8.45209 7.9495 8.18153 9.38573 7.56814C9.54867 7.49856 9.71024 7.42558 9.87019 7.34972C10.1182 7.82578 10.3328 8.30794 10.4997 8.7877C10.5131 8.8261 10.5263 8.86461 10.5395 8.90324C10.1946 9.0123 9.85089 9.13985 9.51181 9.28876C6.55386 10.5877 4.30246 12.5132 3.05185 13.9599C3.32154 14.2829 3.61706 14.5837 3.93522 14.859C5.04809 13.5464 7.1782 11.6851 10.0168 10.4386C10.311 10.3094 10.6084 10.1982 10.9068 10.1026C11.2127 11.2097 11.4473 12.3509 11.6323 13.3797C11.756 14.0672 11.8566 14.6992 11.9419 15.2348L11.954 15.311C12.0007 15.6042 12.0438 15.8738 12.084 16.1059C12.4928 15.9282 12.8833 15.7162 13.2519 15.4736C13.2337 15.3615 13.2146 15.2414 13.1942 15.1135L13.1816 15.0346C13.0966 14.5002 12.9942 13.8575 12.8683 13.1574C12.682 12.1216 12.4421 10.9484 12.1243 9.79374C13.7978 9.47091 15.3988 9.54619 16.5104 9.59845C16.5825 9.60184 16.6525 9.60514 16.7204 9.60822C16.736 9.40757 16.7439 9.20473 16.7439 8.99996C16.7439 8.78031 16.7347 8.56279 16.7168 8.34779L16.6652 8.34516C15.5584 8.28895 13.7075 8.19494 11.759 8.58971C11.735 8.51787 11.7106 8.44633 11.6858 8.37514C11.4978 7.8345 11.2575 7.29506 10.9815 6.76591C12.6602 5.80116 14.0671 4.62835 14.8657 3.94374C14.7371 3.79479 14.603 3.65077 14.4637 3.51201C14.3049 3.3539 14.1393 3.20265 13.9673 3.05874C13.1645 3.74338 11.8719 4.80701 10.3578 5.67679C9.31435 4 8.01108 2.5026 7.03638 1.5067Z" fill="#7F7F7F"/>
</svg>
