<svg width="20" height="20" viewBox="0 0 20 20" fill="none" xmlns="http://www.w3.org/2000/svg">
<path d="M0.729441 20C0.527939 19.9742 0.342673 19.8752 0.208382 19.7215C0.0740918 19.5678 0 19.3699 0 19.165C0 18.9602 0.0740918 18.7623 0.208382 18.6086C0.342673 18.4549 0.527939 18.3558 0.729441 18.3301H19.2706C19.4721 18.3558 19.6573 18.4549 19.7916 18.6086C19.9259 18.7623 20 18.9602 20 19.165C20 19.3699 19.9259 19.5678 19.7916 19.7215C19.6573 19.8752 19.4721 19.9742 19.2706 20H0.729441ZM15.9994 0.38848L17.8667 2.27215C18.1134 2.52245 18.2518 2.86105 18.2518 3.21398C18.2518 3.56692 18.1134 3.90551 17.8667 4.15582L6.0269 16.059C5.90315 16.1828 5.75639 16.2808 5.59504 16.3472C5.43368 16.4137 5.2609 16.4474 5.0866 16.4464H2.62328C2.44766 16.4464 2.27923 16.376 2.15505 16.2508C2.03087 16.1255 1.9611 15.9556 1.9611 15.7784V13.2268C1.96009 13.051 1.9935 12.8767 2.05941 12.7139C2.12531 12.5512 2.22242 12.4031 2.34517 12.2783L14.132 0.38848C14.3802 0.139661 14.7158 0 15.0657 0C15.4156 0 15.7512 0.139661 15.9994 0.38848ZM3.61656 13.3604V14.7765H5.02039L16.4761 3.22066L15.0723 1.79121L3.61656 13.3604Z" fill="#5331F4"/>
</svg>
