<svg width="320" height="320" viewBox="0 0 320 320" fill="none"
    xmlns="http://www.w3.org/2000/svg">
    <path d="M159.25 300C228.562 300 284.75 243.812 284.75 174.5C284.75 105.188 228.562 49 159.25 49C89.9383 49 33.75 105.188 33.75 174.5C33.75 243.812 89.9383 300 159.25 300Z" fill="url(#paint0_linear_12113_60812)"/>
    <path d="M187.935 145.5H135.77L139.69 131.5H184.135L187.935 145.5Z" fill="#9B9B9B"/>
    <path opacity="0.52" d="M80.585 118.545C62 126.27 71.585 142.605 74.465 146.795C74.6605 147.082 74.9523 147.291 75.2877 147.382C75.6232 147.474 75.9804 147.443 76.295 147.295C97.9 137.19 85.455 122.265 82.215 118.875C82.0084 118.661 81.7421 118.516 81.4512 118.457C81.1602 118.398 80.8583 118.429 80.585 118.545Z" fill="#DCE0E2"/>
    <path opacity="0.52" d="M84.215 157.195C70.165 142.74 58.53 157.74 55.715 161.96C55.5224 162.249 55.4384 162.597 55.4777 162.942C55.5171 163.287 55.6773 163.607 55.93 163.845C73.305 180.205 82.585 163.1 84.53 158.845C84.6531 158.571 84.6889 158.266 84.6325 157.97C84.5762 157.675 84.4304 157.405 84.215 157.195Z" fill="#DCE0E2"/>
    <path d="M98.1448 179.92C84.1048 165.465 72.4698 180.46 69.6448 184.685C69.4518 184.974 69.368 185.322 69.4083 185.668C69.4486 186.013 69.6104 186.333 69.8648 186.57C87.2348 202.91 96.4998 185.815 98.4448 181.57C98.569 181.297 98.6068 180.993 98.5532 180.698C98.4996 180.403 98.3571 180.131 98.1448 179.92Z" fill="url(#paint1_linear_12113_60812)"/>
    <path d="M109.835 207.19C95.6402 192.63 81.9602 206.775 78.7352 210.575C78.5246 210.826 78.4043 211.141 78.3934 211.469C78.3825 211.797 78.4817 212.12 78.6752 212.385C95.6752 235.825 107.755 213.765 110.12 208.855C110.25 208.582 110.293 208.275 110.242 207.977C110.191 207.679 110.049 207.404 109.835 207.19Z" fill="url(#paint2_linear_12113_60812)"/>
    <path opacity="0.52" d="M111.145 145.265C91.2798 142.11 90.8998 161.065 91.1448 166.145C91.1618 166.492 91.302 166.822 91.5403 167.075C91.7786 167.328 92.0993 167.487 92.4448 167.525C116.13 170.23 113.345 150.985 112.355 146.4C112.292 146.11 112.143 145.847 111.927 145.644C111.711 145.441 111.438 145.309 111.145 145.265Z" fill="#DCE0E2"/>
    <path d="M126.43 172.66C106.57 169.575 106.19 188.455 106.43 193.52C106.447 193.868 106.587 194.198 106.825 194.452C107.064 194.705 107.384 194.866 107.73 194.905C131.42 197.62 128.635 178.405 127.645 173.795C127.577 173.507 127.426 173.246 127.209 173.044C126.993 172.842 126.722 172.708 126.43 172.66Z" fill="#D1D6DB"/>
    <path d="M143.625 201.765C125.305 187.16 116.165 210.765 114.25 216.555C114.138 216.901 114.158 217.276 114.306 217.608C114.455 217.94 114.722 218.205 115.055 218.351C137.055 228.175 143.09 207.85 144.15 203.245C144.212 202.974 144.196 202.691 144.103 202.429C144.01 202.167 143.844 201.937 143.625 201.765Z" fill="url(#paint3_linear_12113_60812)"/>
    <path d="M53.1001 131.12C101.495 155.07 117.225 230.12 117.225 230.12" stroke="#F2F3F4" stroke-width="3.28" stroke-miterlimit="10"/>
    <path opacity="0.52" d="M33.5448 130.03C43.4448 146.03 59.0448 140.115 63.3298 138.07C63.6485 137.915 63.9004 137.65 64.0392 137.323C64.1779 136.997 64.1941 136.632 64.0848 136.295C56.7848 114.015 38.6098 124.82 33.9548 128.055C33.6465 128.269 33.4321 128.593 33.3558 128.96C33.2795 129.328 33.3472 129.711 33.5448 130.03Z" fill="#DCE0E2"/>
    <path d="M155.85 214.345L174.97 211.165C175.193 211.128 175.404 211.039 175.587 210.906C175.77 210.773 175.92 210.599 176.024 210.399C176.129 210.198 176.186 209.976 176.19 209.75C176.195 209.524 176.147 209.3 176.05 209.095C169.773 195.601 159.506 184.358 146.635 176.885C146.347 176.719 146.01 176.655 145.681 176.706C145.351 176.757 145.05 176.919 144.825 177.165L141.295 181.03C141.074 181.277 140.776 181.442 140.449 181.498C140.122 181.553 139.786 181.496 139.496 181.336C139.205 181.176 138.978 180.922 138.851 180.616C138.724 180.309 138.704 179.969 138.795 179.65L140.11 174.91C140.204 174.573 140.173 174.213 140.023 173.896C139.874 173.58 139.615 173.327 139.295 173.185C131.98 169.99 124.186 168.026 116.23 167.375C115.858 167.347 115.489 167.462 115.2 167.697C114.911 167.933 114.723 168.27 114.675 168.64L111.375 193.395C111.329 193.736 111.163 194.05 110.908 194.28C110.654 194.511 110.325 194.645 109.982 194.657C109.638 194.67 109.301 194.561 109.03 194.349C108.759 194.137 108.571 193.837 108.5 193.5C107.12 187.27 105.1 178.155 103.035 168.79C102.957 168.437 102.751 168.125 102.456 167.914C102.162 167.704 101.8 167.61 101.44 167.65C83.9103 169.796 67.772 178.283 56.0701 191.51C55.8167 191.8 55.6886 192.179 55.7139 192.563C55.7392 192.948 55.9159 193.306 56.2051 193.56L70.2051 206.02C70.4678 206.25 70.6395 206.566 70.6891 206.912C70.7387 207.257 70.663 207.609 70.4756 207.903C70.2882 208.198 70.0015 208.415 69.6676 208.517C69.3336 208.618 68.9744 208.596 68.6551 208.455L50.6301 200.645C50.3105 200.507 49.9519 200.487 49.619 200.59C49.2862 200.693 49.0011 200.911 48.8151 201.205C41.6037 212.706 37.7904 226.011 37.8151 239.585V240.63C37.8151 241.018 37.9689 241.389 38.2427 241.663C38.5165 241.937 38.8878 242.09 39.2751 242.09H181.21C181.598 242.09 181.97 241.937 182.244 241.663C182.519 241.389 182.674 241.018 182.675 240.63V239.585C182.675 232.767 181.716 225.982 179.825 219.43C179.735 219.141 179.559 218.886 179.32 218.698C179.082 218.511 178.793 218.4 178.49 218.38L155.99 217.225C155.645 217.187 155.325 217.027 155.087 216.774C154.849 216.521 154.709 216.192 154.692 215.845C154.675 215.498 154.782 215.157 154.995 214.882C155.207 214.607 155.51 214.417 155.85 214.345Z" fill="url(#paint4_linear_12113_60812)"/>
    <path d="M230.025 225.705L235.755 224.75C235.979 224.713 236.192 224.624 236.376 224.49C236.56 224.356 236.71 224.182 236.815 223.98C236.92 223.778 236.976 223.555 236.98 223.327C236.983 223.1 236.934 222.875 236.835 222.67C233.04 214.876 227.047 208.364 219.595 203.935C219.307 203.767 218.97 203.703 218.641 203.754C218.311 203.805 218.009 203.968 217.785 204.215L217.545 204.475C217.326 204.727 217.027 204.897 216.698 204.955C216.369 205.014 216.03 204.958 215.737 204.796C215.444 204.635 215.216 204.377 215.09 204.068C214.964 203.758 214.948 203.415 215.045 203.095L215.075 202.98C215.171 202.641 215.142 202.279 214.992 201.96C214.842 201.641 214.582 201.387 214.26 201.245C210.11 199.484 205.713 198.375 201.225 197.955C200.847 197.916 200.468 198.026 200.168 198.261C199.869 198.496 199.673 198.838 199.62 199.215L198.12 210.61C198.077 210.951 197.914 211.266 197.66 211.5C197.407 211.733 197.079 211.869 196.735 211.884C196.391 211.899 196.053 211.791 195.781 211.581C195.508 211.371 195.318 211.071 195.245 210.735C194.51 207.43 193.62 203.405 192.715 199.275C192.635 198.914 192.421 198.597 192.117 198.387C191.813 198.176 191.441 198.088 191.075 198.14C180.789 199.54 171.324 204.514 164.335 212.19C164.204 212.333 164.103 212.501 164.038 212.684C163.972 212.867 163.944 213.06 163.953 213.254C163.963 213.448 164.011 213.638 164.095 213.813C164.178 213.988 164.296 214.145 164.44 214.275L169.91 219.13C170.173 219.36 170.345 219.676 170.394 220.021C170.444 220.367 170.368 220.718 170.181 221.013C169.993 221.307 169.707 221.525 169.373 221.626C169.039 221.727 168.679 221.706 168.36 221.565L161.06 218.41C160.74 218.269 160.38 218.248 160.046 218.351C159.712 218.454 159.426 218.673 159.24 218.97C155.017 225.898 152.783 233.856 152.785 241.97V242.045C152.785 242.237 152.822 242.427 152.895 242.605C152.968 242.783 153.075 242.944 153.211 243.08C153.347 243.217 153.508 243.325 153.685 243.398C153.863 243.472 154.053 243.51 154.245 243.51H239.79C240.178 243.509 240.549 243.354 240.823 243.079C241.096 242.804 241.25 242.433 241.25 242.045V242C241.254 237.974 240.707 233.967 239.625 230.09C239.541 229.797 239.367 229.537 239.127 229.348C238.888 229.159 238.595 229.049 238.29 229.035L230.19 228.625C229.998 228.636 229.806 228.609 229.625 228.545C229.444 228.482 229.277 228.383 229.134 228.256C228.99 228.128 228.874 227.973 228.79 227.8C228.707 227.627 228.659 227.439 228.648 227.247C228.637 227.056 228.664 226.864 228.727 226.682C228.791 226.501 228.889 226.334 229.017 226.191C229.145 226.048 229.3 225.931 229.473 225.848C229.646 225.764 229.833 225.716 230.025 225.705Z" fill="url(#paint5_linear_12113_60812)"/>
    <path d="M226.75 228.5H97.25C96.6977 228.5 96.25 228.948 96.25 229.5V241.5C96.25 242.052 96.6977 242.5 97.25 242.5H226.75C227.302 242.5 227.75 242.052 227.75 241.5V229.5C227.75 228.948 227.302 228.5 226.75 228.5Z" fill="#DADFE2"/>
    <path d="M184.135 131.5H139.69L154.51 78.5H169.765L184.135 131.5Z" fill="#DADFE2"/>
    <path d="M199.05 186.5H124.305L135.77 145.5H187.935L199.05 186.5Z" fill="#DADFE2"/>
    <path d="M187.935 145.5H135.77L139.69 131.5H184.135L187.935 145.5Z" fill="#FCFCFF"/>
    <path d="M202.845 200.5H120.39L124.305 186.5H199.05L202.845 200.5Z" fill="#FCFCFF"/>
    <path d="M210.44 228.5H112.56L120.39 200.5H202.845L210.44 228.5Z" fill="#DADFE2"/>
    <path d="M277.41 76.0005C277.135 76.0005 276.87 76.0005 276.6 76.0255C273.07 71.1855 267.8 68.1055 261.9 68.1055C253.315 68.1055 246.075 74.6055 243.57 83.6055C237.54 84.7205 232.935 90.7755 232.935 98.1055C232.935 98.6055 232.935 99.0605 232.995 99.5255H292.615C293.038 97.8483 293.252 96.1252 293.25 94.3955C293.25 84.2105 286.155 76.0005 277.41 76.0005Z" fill="#EAEDEF"/>
    <path d="M231.695 114.345C231.498 114.335 231.302 114.335 231.105 114.345C228.53 110.815 224.685 108.57 220.38 108.57C214.12 108.57 208.835 113.32 207.01 119.88C202.61 120.69 199.25 125.105 199.25 130.445C199.25 130.795 199.265 131.14 199.295 131.48H242.795C243.1 130.255 243.255 128.998 243.255 127.735C243.25 120.345 238.075 114.345 231.695 114.345Z" fill="#EAEDEF"/>
    <path d="M284.92 242H38.08C37.7597 242 37.5 242.26 37.5 242.58V243.92C37.5 244.24 37.7597 244.5 38.08 244.5H284.92C285.24 244.5 285.5 244.24 285.5 243.92V242.58C285.5 242.26 285.24 242 284.92 242Z" fill="#2B2B2B"/>
    <path d="M278 242C278 240.555 277.715 239.125 277.163 237.79C276.61 236.456 275.8 235.243 274.778 234.222C273.757 233.2 272.544 232.39 271.21 231.837C269.875 231.285 268.445 231 267 231C265.555 231 264.125 231.285 262.79 231.837C261.456 232.39 260.243 233.2 259.222 234.222C258.2 235.243 257.39 236.456 256.837 237.79C256.285 239.125 256 240.555 256 242L267 242H278Z" fill="#E8EEF2"/>
    <path d="M261 242C261 241.212 260.845 240.432 260.543 239.704C260.242 238.976 259.8 238.315 259.243 237.757C258.685 237.2 258.024 236.758 257.296 236.457C256.568 236.155 255.788 236 255 236C254.212 236 253.432 236.155 252.704 236.457C251.976 236.758 251.315 237.2 250.757 237.757C250.2 238.315 249.758 238.976 249.457 239.704C249.155 240.432 249 241.212 249 242L255 242H261Z" fill="#E8EEF2"/>
    <defs>
        <linearGradient id="paint0_linear_12113_60812" x1="157.92" y1="299.58" x2="160.59" y2="48.595" gradientUnits="userSpaceOnUse">
            <stop offset="0.28" stop-color="#E8ECF2" stop-opacity="0"/>
            <stop offset="1" stop-color="#EEF1F5"/>
        </linearGradient>
        <linearGradient id="paint1_linear_12113_60812" x1="68.0903" y1="186.615" x2="96.7198" y2="179.827" gradientUnits="userSpaceOnUse">
            <stop offset="0.1" stop-color="#FECE63"/>
            <stop offset="1" stop-color="#F55850"/>
        </linearGradient>
        <linearGradient id="paint2_linear_12113_60812" x1="77.5588" y1="214.902" x2="108.444" y2="207.578" gradientUnits="userSpaceOnUse">
            <stop offset="0.1" stop-color="#FECE63"/>
            <stop offset="1" stop-color="#F55850"/>
        </linearGradient>
        <linearGradient id="paint3_linear_12113_60812" x1="114.933" y1="199.561" x2="131.983" y2="211.981" gradientUnits="userSpaceOnUse">
            <stop offset="0.1" stop-color="#FECE63"/>
            <stop offset="1" stop-color="#F55850"/>
        </linearGradient>
        <linearGradient id="paint4_linear_12113_60812" x1="37.8351" y1="204.74" x2="182.675" y2="204.74" gradientUnits="userSpaceOnUse">
            <stop stop-color="#EBEFF2"/>
            <stop offset="1" stop-color="#E8EEF2"/>
        </linearGradient>
        <linearGradient id="paint5_linear_12113_60812" x1="152.785" y1="220.735" x2="241.25" y2="220.735" gradientUnits="userSpaceOnUse">
            <stop stop-color="#F5F5F5"/>
            <stop offset="1" stop-color="#E8EEF2"/>
        </linearGradient>
    </defs>
</svg>
