<svg width="32" height="32" viewBox="0 0 32 32" fill="none" xmlns="http://www.w3.org/2000/svg">
<path d="M16 2C23.732 2 30 8.26802 30 16C30 23.732 23.732 30 16 30C8.26802 30 2 23.732 2 16C2 8.26802 8.26802 2 16 2Z" fill="currentColor"/>
<path fill-rule="evenodd" clip-rule="evenodd" d="M20.3275 10.7143L21.3175 11.7042C21.6299 12.0167 21.6299 12.5232 21.3175 12.8356L18.1346 16.018L21.3175 19.2007C21.6299 19.5132 21.6299 20.0197 21.3175 20.3321L20.3275 21.3221C20.0151 21.6345 19.5086 21.6345 19.1962 21.3221L16.0126 18.138L12.8322 21.3209C12.5198 21.6333 12.0132 21.6333 11.7008 21.3209L10.7109 20.3309C10.3985 20.0185 10.3985 19.512 10.7109 19.1996L13.8906 16.018L10.7109 12.8368C10.3985 12.5244 10.3985 12.0178 10.7109 11.7054L11.7008 10.7155C12.0132 10.403 12.5198 10.403 12.8322 10.7155L16.0126 13.896L19.1962 10.7143C19.5086 10.4019 20.0151 10.4019 20.3275 10.7143Z" fill="white"/>
</svg>
