<svg width="48" height="48" viewBox="0 0 48 48" fill="none" xmlns="http://www.w3.org/2000/svg">
<rect width="48" height="48" rx="8" fill="#F5F6FA"/>
<g clip-path="url(#clip0_1850_24689)">
<path d="M18.1529 37C21.7454 37 24.7188 35.7015 25.8265 33.8479C27.0464 34.2455 28.4171 34.4627 29.8579 34.4627C34.4291 34.4627 38.0061 32.3674 38.0061 29.6925V15.7718C38.0061 13.0953 34.4275 11 29.8579 11C25.2882 11 21.7081 13.0953 21.7081 15.7718V20.9626C20.5493 20.6508 19.3527 20.4954 18.1513 20.5007C13.5817 20.5007 10 22.5929 10 25.2679V32.2313C10 34.9078 13.5817 37 18.1529 37ZM36.3102 29.6925C36.3102 31.1378 33.662 32.7467 29.8594 32.7467C28.601 32.7526 27.3506 32.5494 26.1611 32.1456V30.3272C27.362 30.6739 28.6078 30.847 29.8594 30.8411C32.5387 30.8411 34.8678 30.1115 36.3117 28.9782V29.6925H36.3102ZM36.3102 26.808C35.7189 28.134 33.2373 29.408 29.8594 29.408C28.5229 29.408 27.2611 29.1969 26.1611 28.8176V26.8508C27.3625 27.1944 28.6082 27.3654 29.8594 27.3586C32.5387 27.3586 34.8678 26.6291 36.3117 25.4958V26.808H36.3102ZM36.3102 23.3301C35.7189 24.6561 33.2373 25.9271 29.8594 25.9271C28.5993 25.9318 27.347 25.7318 26.1533 25.3352C26.1533 25.3122 26.1595 25.2893 26.1595 25.2679C26.1595 24.4588 25.8172 23.6972 25.1902 23.0304C26.4971 23.5641 28.1013 23.8776 29.8579 23.8776C32.5387 23.8776 34.8678 23.1496 36.3102 22.0133V23.3286V23.3301ZM36.3102 19.8476C35.7189 21.1736 33.2373 22.4461 29.8594 22.4461C26.4816 22.4461 23.9999 21.1736 23.404 19.8476V18.5324C24.851 19.6672 27.1786 20.3982 29.8594 20.3982C32.5387 20.3982 34.8678 19.6672 36.3117 18.5324V19.8476H36.3102ZM23.7121 14.9C24.5087 13.7484 26.8145 12.7175 29.8594 12.7175C33.6636 12.7175 36.3117 14.3249 36.3117 15.7718C36.3117 17.2951 34.7309 17.9894 33.508 18.4024C32.3317 18.7866 31.0989 18.9768 29.8594 18.9652C27.2455 18.9652 25.1715 18.2035 24.0871 17.2461C23.4025 16.6374 23.1504 15.7014 23.7121 14.9ZM12.0024 24.3976C12.5097 23.6681 13.619 22.9906 15.136 22.5884C16.1204 22.336 17.134 22.211 18.1513 22.2167C19.505 22.2167 20.8928 22.4247 22.1858 22.8315C22.8859 23.0533 23.5456 23.3821 24.0948 23.9327C24.5149 24.3533 24.7452 24.8121 24.7452 25.2679C24.7452 26.7789 22.0379 28.4644 18.1513 28.4644C15.7086 28.4644 13.731 27.7975 12.603 26.9288C11.8048 26.3125 11.3645 25.3168 12.0024 24.3976ZM11.6975 28.0331C13.1445 29.1679 15.4721 29.8959 18.1513 29.8959C20.9177 29.8959 23.3138 29.122 24.7452 27.9229V28.7519C24.7452 30.2629 22.0379 31.9453 18.1513 31.9453C14.775 31.9453 12.2918 30.6759 11.6975 29.3484V28.0331ZM11.6975 31.514C13.1445 32.6488 15.4721 33.3768 18.1513 33.3768C20.9177 33.3768 23.3138 32.6045 24.7452 31.4054L24.7872 32.8385C24.7872 32.8385 23.3231 35.1632 18.1513 35.2825C14.3487 35.3696 11.6975 33.6751 11.6975 32.2313V31.514Z" fill="#5331F4"/>
</g>
<defs>
<clipPath id="clip0_1850_24689">
<rect width="28" height="26" fill="white" transform="translate(10 11)"/>
</clipPath>
</defs>
</svg>
