<svg width="26" height="26" viewBox="0 0 26 26" fill="none" xmlns="http://www.w3.org/2000/svg">
<path d="M5.59051 13.0024C5.59051 12.1221 5.7382 11.2782 6 10.4867L1.40165 7C0.476683 8.86483 -0.00316035 10.9197 1.56639e-05 13.0024C1.56639e-05 15.1593 0.503484 17.1937 1.39898 19L5.99599 15.5072C5.72747 14.6996 5.59119 13.8537 5.59051 13.0024Z" fill="#FBBC05"/>
<path d="M13.1086 5.52648C14.9171 5.52281 16.6714 6.15131 18.0751 7.3058L22 3.37682C19.6085 1.29021 16.5424 0 13.1086 0C7.77693 0 3.19404 3.05744 1 7.52385L5.54245 11C6.58812 7.81573 9.57004 5.52585 13.1099 5.52585" fill="#EA4335"/>
<path d="M13.168 20.474C9.61003 20.474 6.61392 18.1846 5.56176 15L1 18.477C3.20437 22.9437 7.8092 26 13.168 26C16.4736 26 19.63 24.8293 22 22.6338L17.6688 19.2932C16.4477 20.0608 14.9086 20.4747 13.1667 20.4747" fill="#34A853"/>
<path d="M26 13.3398C26 12.5796 25.8755 11.7602 25.6905 11H13V15.9716H20.304C19.9399 17.6669 18.9463 18.97 17.5233 19.8177L21.8734 23C24.374 20.8049 26 17.5344 26 13.3398Z" fill="#4285F4"/>
</svg>
