<svg width="14" height="12" viewBox="0 0 14 12" fill="none" xmlns="http://www.w3.org/2000/svg">
<path d="M6.68025 6.37843C7.66192 5.72565 8.24405 4.59449 8.21762 3.39112C8.17857 1.58771 6.78334 0.100095 5.0351 0.00515715C3.51137 -0.0801945 2.12261 0.901334 1.6515 2.39657C1.18039 3.8918 1.74486 5.52644 3.02679 6.37924C3.11416 6.43775 3.16275 6.54142 3.15291 6.64829C3.14307 6.75516 3.07642 6.84757 2.97993 6.88812C1.42352 7.55019 0.303304 8.98551 0.0098378 10.6937C-0.0247406 10.9044 0.0328115 11.1201 0.167084 11.283C0.301356 11.4459 0.498632 11.5394 0.706088 11.5384H9.00017C9.20756 11.5393 9.40472 11.4457 9.53891 11.2828C9.67309 11.1199 9.7306 10.9043 9.69603 10.6937C9.40235 8.98599 8.28211 7.55125 6.72594 6.88972C6.62863 6.8492 6.56145 6.75609 6.55183 6.64842C6.54221 6.54076 6.59176 6.43657 6.68025 6.37843Z" fill="#DF4F51"/>
<path d="M9.9921 11.0179L10.241 11.2157L10.4899 11.0179L10.5577 10.964C10.6475 10.8947 10.7712 10.8165 10.9332 10.7141C10.9838 10.6821 11.0382 10.6477 11.0965 10.6105C11.3291 10.4619 11.6009 10.2815 11.8582 10.0667C12.3654 9.64319 12.882 9.03092 12.882 8.18346C12.882 7.28189 12.1008 6.6 11.2073 6.6C10.8453 6.6 10.5129 6.71248 10.2412 6.89889C9.96934 6.71225 9.63678 6.6 9.27422 6.6C8.38046 6.6 7.6 7.28257 7.6 8.18346C7.6 9.03086 8.11627 9.64302 8.62344 10.0665C8.88071 10.2813 9.15242 10.4617 9.38511 10.6103C9.44349 10.6476 9.498 10.6821 9.54876 10.7142C9.71062 10.8165 9.83438 10.8947 9.92437 10.964L9.9921 11.0179Z" fill="#DF4F51" stroke="#F5F6FA" stroke-width="0.8"/>
</svg>
