<svg width="18" height="18" viewBox="0 0 18 18" fill="none" xmlns="http://www.w3.org/2000/svg">
<path d="M15.4 9V16.52C15.4 16.583 15.3876 16.6455 15.3635 16.7037C15.3393 16.7619 15.304 16.8148 15.2594 16.8594C15.2148 16.904 15.1619 16.9393 15.1037 16.9635C15.0455 16.9876 14.983 17 14.92 17H3.08C3.01697 17 2.95455 16.9876 2.89631 16.9635C2.83808 16.9393 2.78516 16.904 2.74059 16.8594C2.69602 16.8148 2.66066 16.7619 2.63654 16.7037C2.61242 16.6455 2.6 16.583 2.6 16.52V9M9 17V5M16.52 5H1.48C1.3527 5 1.23061 5.05057 1.14059 5.14059C1.05057 5.23061 1 5.3527 1 5.48V8.52C1 8.6473 1.05057 8.76939 1.14059 8.85941C1.23061 8.94943 1.3527 9 1.48 9H16.52C16.6473 9 16.7694 8.94943 16.8594 8.85941C16.9494 8.76939 17 8.6473 17 8.52V5.48C17 5.3527 16.9494 5.23061 16.8594 5.14059C16.7694 5.05057 16.6473 5 16.52 5V5ZM9 5H5.4C4.86957 5 4.36086 4.78929 3.98579 4.41421C3.61071 4.03914 3.4 3.53043 3.4 3C3.4 2.46957 3.61071 1.96086 3.98579 1.58579C4.36086 1.21071 4.86957 1 5.4 1C8.2 1 9 5 9 5ZM9 5H12.6C13.1304 5 13.6391 4.78929 14.0142 4.41421C14.3893 4.03914 14.6 3.53043 14.6 3C14.6 2.46957 14.3893 1.96086 14.0142 1.58579C13.6391 1.21071 13.1304 1 12.6 1C9.8 1 9 5 9 5Z" stroke="black" stroke-opacity="0.5" stroke-width="1.3" stroke-linecap="round" stroke-linejoin="round"/>
</svg>
