<svg width="16" height="16" viewBox="0 0 16 16" fill="none" xmlns="http://www.w3.org/2000/svg">
<path d="M2.66667 0H16V13.3333C16 14.8061 14.8061 16 13.3333 16H0V2.66667C0 1.19391 1.19391 0 2.66667 0Z" fill="url(#paint0_radial_1855_25219)"/>
<path fill-rule="evenodd" clip-rule="evenodd" d="M5.24 4.6875C5.12 5 5 5.5 5 6.125H6.2C6.2 4.875 6.8 4 8 4C8.54 4 8.96 4.1875 9.26 4.5C9.56 4.8125 9.74 5.125 9.74 5.5625C9.74 6 9.62 6.3125 9.5 6.5C9.38 6.6875 9.08 7 8.66001 7.43749L8.66 7.4375C8.33087 7.78034 8.14913 8.04642 7.99927 8.26582C7.95789 8.32639 7.91895 8.38341 7.88 8.4375C7.7 8.6875 7.58 8.9375 7.52 9.25C7.46 9.5625 7.4 9.875 7.4 10.5H8.6C8.6 10.3169 8.59485 10.1714 8.59059 10.0509C8.58029 9.7598 8.57515 9.61428 8.66 9.4375C8.69502 9.36455 8.72492 9.2916 8.75419 9.22021C8.82523 9.04692 8.89252 8.88279 9.02 8.75C9.07907 8.68846 9.13815 8.61346 9.20783 8.525C9.35046 8.34392 9.53753 8.10642 9.86 7.8125C10.34 7.375 10.64 7 10.76 6.6875C10.88 6.375 11 6.0625 11 5.6875C11 4.875 10.7 4.25 10.16 3.75C9.56 3.25 8.9 3 8.06 3C7.64 3 7.28 3.0625 6.92 3.1875C6.5 3.3125 6.2 3.5 5.9 3.8125C5.6 4.0625 5.36 4.375 5.24 4.6875ZM7.4 11.75V13H8.6V11.75H7.4Z" fill="white"/>
<defs>
<radialGradient id="paint0_radial_1855_25219" cx="0" cy="0" r="1" gradientUnits="userSpaceOnUse" gradientTransform="translate(2.85772e-07 16) rotate(-42.0138) scale(25.2256 48.964)">
<stop stop-color="#5331F4"/>
<stop offset="0.716911" stop-color="#9783F8"/>
<stop offset="1" stop-color="#B46AF9"/>
</radialGradient>
</defs>
</svg>
