<svg width="30" height="30" viewBox="0 0 30 30" fill="none" xmlns="http://www.w3.org/2000/svg">
<g clip-path="url(#clip0_6977_2301)">
<path d="M29.4 0.799988H0.599976V29.6H29.4V0.799988Z" fill="white" fill-opacity="0.01"/>
<path d="M3 22.2C3 23.3046 3.89543 24.2 5 24.2H25C26.1046 24.2 27 23.3046 27 22.2V15.2V8.20001C27 7.09544 26.1046 6.20001 25 6.20001H15H5C3.89543 6.20001 3 7.09544 3 8.20001V15.2V22.2Z" fill="currentColor" stroke="#5331F4" stroke-width="1.33333" stroke-linejoin="round"/>
<path d="M4.19995 6.79999L15 15.2L25.8 6.79999" stroke="white" stroke-width="1.33333" stroke-linecap="round" stroke-linejoin="round"/>
<path d="M15 6.20001H5C3.89543 6.20001 3 7.09544 3 8.20001V15.2" stroke="#5331F4" stroke-width="1.33333" stroke-linecap="round" stroke-linejoin="round"/>
<path d="M27 15.2V8.20001C27 7.09544 26.1046 6.20001 25 6.20001H15" stroke="#5331F4" stroke-width="1.33333" stroke-linecap="round" stroke-linejoin="round"/>
</g>
<defs>
<clipPath id="clip0_6977_2301">
<rect width="28.8" height="28.8" fill="white" transform="translate(0.599976 0.799988)"/>
</clipPath>
</defs>
</svg>
