<svg width="24" height="24" viewBox="0 0 24 24" fill="none" xmlns="http://www.w3.org/2000/svg">
<g clip-path="url(#clip0_11602_63889)">
<path d="M12 24C18.6273 24 24 18.6273 24 12C24 5.37269 18.6273 0 12 0C5.37269 0 0 5.37269 0 12C0 18.6273 5.37269 24 12 24Z" fill="#2775CA"/>
<path d="M9.86192 20.4016C9.86192 20.68 9.63681 20.8389 9.37198 20.7594C7.55555 20.179 5.97081 19.0358 4.84694 17.4953C3.72307 15.9548 3.11831 14.0967 3.12012 12.1898C3.12012 8.17647 5.75598 4.77261 9.37171 3.62006C9.64978 3.54061 9.86164 3.6995 9.86164 3.97757V4.67964C9.86164 4.86502 9.71598 5.09012 9.5306 5.15661C6.66964 6.18971 4.61667 8.94474 4.61667 12.1765C4.61667 15.4082 6.66964 18.1633 9.54385 19.2229C9.71598 19.2891 9.87488 19.5009 9.87488 19.6998V20.4016H9.86164H9.86192ZM12.7783 17.6289C12.7783 17.8408 12.6062 17.9997 12.4076 17.9997H11.6658C11.4539 17.9997 11.2947 17.8276 11.2947 17.6289V16.4369C9.65254 16.2118 8.85778 15.2979 8.64592 14.0529C8.63764 14.0027 8.64032 13.9513 8.65376 13.9023C8.6672 13.8532 8.69108 13.8076 8.72378 13.7686C8.75647 13.7296 8.79721 13.6982 8.84319 13.6764C8.88917 13.6546 8.93931 13.643 8.99019 13.6425H9.83792C10.0101 13.6425 10.1689 13.7749 10.2087 13.947C10.3678 14.6888 10.7916 15.2582 12.116 15.2582C13.0829 15.2582 13.7717 14.715 13.7717 13.9073C13.7717 13.0996 13.3612 12.7947 11.9438 12.5564C9.83791 12.2916 8.84453 11.6557 8.84453 9.99995C8.84453 8.72847 9.79819 7.74833 11.2947 7.53619V6.37068C11.2947 6.15881 11.4672 5.99992 11.6658 5.99992H12.4076C12.6194 5.99992 12.7783 6.17206 12.7783 6.37068V7.56268C13.9836 7.77454 14.7518 8.46337 15.0034 9.6024C15.0564 9.81426 14.8843 10.0264 14.6592 10.0264H13.8644C13.6923 10.0264 13.5598 9.90723 13.5069 9.74833C13.2947 9.01978 12.7783 8.71523 11.8776 8.71523C10.8843 8.71523 10.3678 9.19192 10.3678 9.8675C10.3678 10.5829 10.6592 10.9404 12.1822 11.1522C14.2484 11.4303 15.3083 12.0264 15.3083 13.7749C15.3083 15.1125 14.3149 16.1856 12.7783 16.4372V17.6292V17.6289ZM14.6633 20.7773C14.3852 20.8568 14.1734 20.6979 14.1734 20.4198V19.7178C14.1734 19.5059 14.3058 19.3205 14.5044 19.2411C17.3786 18.1815 19.4316 15.4265 19.4316 12.1947C19.4316 8.96295 17.3654 6.22116 14.4912 5.16157C14.319 5.09537 14.1601 4.8835 14.1601 4.68488V3.98281C14.1601 3.70474 14.3852 3.53261 14.6501 3.6253C16.4665 4.20574 18.0512 5.34889 19.1751 6.88942C20.299 8.42996 20.9037 10.2881 20.9019 12.195C20.9152 16.2082 18.2925 19.6121 14.6633 20.7776V20.7773Z" fill="white"/>
</g>
<defs>
<clipPath id="clip0_11602_63889">
<rect width="24" height="24" fill="white"/>
</clipPath>
</defs>
</svg>
