<svg width="28" height="28" viewBox="0 0 28 28" fill="none" xmlns="http://www.w3.org/2000/svg">
<rect width="28" height="28" rx="6" fill="#F8F8F8"/>
<path d="M5.44446 13.9996C5.44446 13.1405 6.1409 12.4441 7.00001 12.4441C7.85912 12.4441 8.55557 13.1405 8.55557 13.9996C8.55557 14.8587 7.85912 15.5552 7.00001 15.5552C6.1409 15.5552 5.44446 14.8587 5.44446 13.9996Z" fill="#6E6D7A"/>
<path d="M12.4445 13.9996C12.4445 13.1405 13.1409 12.4441 14 12.4441C14.8591 12.4441 15.5556 13.1405 15.5556 13.9996C15.5556 14.8587 14.8591 15.5552 14 15.5552C13.1409 15.5552 12.4445 14.8587 12.4445 13.9996Z" fill="#6E6D7A"/>
<path d="M19.4445 13.9996C19.4445 13.1405 20.1409 12.4441 21 12.4441C21.8591 12.4441 22.5556 13.1405 22.5556 13.9996C22.5556 14.8587 21.8591 15.5552 21 15.5552C20.1409 15.5552 19.4445 14.8587 19.4445 13.9996Z" fill="#6E6D7A"/>
</svg>
