<svg width="24" height="24" viewBox="0 0 24 24" fill="none" xmlns="http://www.w3.org/2000/svg">
<path d="M5 2H19C19.7956 2 20.5587 2.31607 21.1213 2.87868C21.6839 3.44129 22 4.20435 22 5V19C22 19.7956 21.6839 20.5587 21.1213 21.1213C20.5587 21.6839 19.7956 22 19 22H5C4.83552 21.9977 4.67155 21.981 4.51 21.95L4.21 21.88H4.14H4.09L3.72 21.74L3.59 21.67C3.49 21.61 3.38 21.56 3.28 21.49C3.14647 21.3918 3.01953 21.2849 2.9 21.17L2.83 21.08C2.73182 20.9805 2.64155 20.8735 2.56 20.76L2.47 20.63C2.40015 20.5187 2.33994 20.4016 2.29 20.28C2.26256 20.232 2.23915 20.1818 2.22 20.13C2.17 20.01 2.14 19.88 2.1 19.75V19.6C2.04331 19.4046 2.00974 19.2032 2 19V5C2 4.20435 2.31607 3.44129 2.87868 2.87868C3.44129 2.31607 4.20435 2 5 2ZM19 20C19.2652 20 19.5196 19.8946 19.7071 19.7071C19.8946 19.5196 20 19.2652 20 19V14.69L16.71 11.39C16.617 11.2963 16.5064 11.2219 16.3846 11.1711C16.2627 11.1203 16.132 11.0942 16 11.0942C15.868 11.0942 15.7373 11.1203 15.6154 11.1711C15.4936 11.2219 15.383 11.2963 15.29 11.39L6.69 20H19ZM4 19C4.00094 19.1233 4.02467 19.2453 4.07 19.36C4.09285 19.4087 4.11961 19.4556 4.15 19.5C4.17676 19.5423 4.20685 19.5825 4.24 19.62L9.59 14.27L8.71 13.39C8.61704 13.2963 8.50644 13.2219 8.38458 13.1711C8.26272 13.1203 8.13201 13.0942 8 13.0942C7.86799 13.0942 7.73728 13.1203 7.61542 13.1711C7.49356 13.2219 7.38296 13.2963 7.29 13.39L4 16.69V19ZM4 13.86L5.88 12C6.45228 11.457 7.2111 11.1543 8 11.1543C8.7889 11.1543 9.54772 11.457 10.12 12L11 12.88L13.88 10C14.4523 9.45699 15.2111 9.15428 16 9.15428C16.7889 9.15428 17.5477 9.45699 18.12 10L20 11.86V5C20 4.73478 19.8946 4.48043 19.7071 4.29289C19.5196 4.10536 19.2652 4 19 4H5C4.73478 4 4.48043 4.10536 4.29289 4.29289C4.10536 4.48043 4 4.73478 4 5V13.86ZM10.5 6C10.7967 6 11.0867 6.08797 11.3334 6.2528C11.58 6.41762 11.7723 6.65189 11.8858 6.92597C11.9994 7.20006 12.0291 7.50166 11.9712 7.79264C11.9133 8.08361 11.7704 8.35088 11.5607 8.56066C11.3509 8.77044 11.0836 8.9133 10.7926 8.97118C10.5017 9.02906 10.2001 8.99935 9.92597 8.88582C9.65189 8.77229 9.41762 8.58003 9.2528 8.33335C9.08797 8.08668 9 7.79667 9 7.5C9 7.10218 9.15804 6.72064 9.43934 6.43934C9.72064 6.15804 10.1022 6 10.5 6Z" fill="currentColor"/>
</svg>
