<svg width="32" height="32" viewBox="0 0 32 32" fill="none" xmlns="http://www.w3.org/2000/svg">
<rect width="32" height="32" rx="4" fill="#F8F8F8"/>
<path d="M23 6H9C8.46429 6 8 6.46429 8 7V25C8 25.5357 8.46429 26 9 26H23C23.5357 26 24 25.5357 24 25V7C24 6.46429 23.5357 6 23 6ZM12.6071 12.1071C12.8214 11.8929 13.1786 11.8929 13.3929 12.1071L15 13.7143L18.6071 10.1071C18.8214 9.89286 19.1786 9.89286 19.3929 10.1071C19.6071 10.3214 19.6071 10.6786 19.3929 10.8929L15.3929 14.8929C15.2857 15 15.1429 15.0714 15 15.0714C14.8571 15.0714 14.7143 15 14.6071 14.8929L12.6071 12.8929C12.3929 12.6786 12.3929 12.3214 12.6071 12.1071ZM16 22.5714H12.5C12.1786 22.5714 11.9286 22.3214 11.9286 22C11.9286 21.6786 12.1786 21.4286 12.5 21.4286H16C16.3214 21.4286 16.5714 21.6786 16.5714 22C16.5714 22.3214 16.3214 22.5714 16 22.5714ZM19.5 19.5714H12.5C12.1786 19.5714 11.9286 19.3214 11.9286 19C11.9286 18.6786 12.1786 18.4286 12.5 18.4286H19.5C19.8214 18.4286 20.0714 18.6786 20.0714 19C20.0714 19.3214 19.8214 19.5714 19.5 19.5714Z" fill="currentColor"/>
</svg>
