<svg width="100%" height="100%" viewBox="0 0 24 24" fill="none" xmlns="http://www.w3.org/2000/svg">
<path fill-rule="evenodd" clip-rule="evenodd" d="M12.25 2.49951C17.6348 2.49951 22 6.86474 22 12.2495C22 17.6343 17.6348 21.9995 12.25 21.9995C6.86522 21.9995 2.5 17.6343 2.5 12.2495C2.5 6.86474 6.86522 2.49951 12.25 2.49951ZM12.25 4.27224C7.84427 4.27224 4.27273 7.84379 4.27273 12.2495C4.27273 16.6552 7.84427 20.2268 12.25 20.2268C16.6557 20.2268 20.2273 16.6552 20.2273 12.2495C20.2273 7.84379 16.6557 4.27224 12.25 4.27224ZM12.6932 15.795C12.9379 15.795 13.1364 15.9934 13.1364 16.2381V17.1245C13.1364 17.3693 12.9379 17.5677 12.6932 17.5677H11.8068C11.5621 17.5677 11.3636 17.3693 11.3636 17.1245V16.2381C11.3636 15.9934 11.5621 15.795 11.8068 15.795H12.6932ZM12.1241 6.93133C13.1777 6.93133 14.053 7.18648 14.75 7.69679C15.447 8.2071 15.7955 8.9631 15.7955 9.96481C15.7955 10.5791 15.6439 11.0965 15.3409 11.517C15.1638 11.7721 14.8234 12.0982 14.3199 12.4951L13.8234 12.8849C13.553 13.0975 13.3735 13.3456 13.285 13.6291C13.2609 13.7065 13.2397 13.8503 13.2214 14.0606C13.2015 14.2896 13.0098 14.4654 12.7799 14.4654H11.7877C11.5429 14.4654 11.3445 14.267 11.3445 14.0222C11.3445 14.0086 11.3451 13.995 11.3464 13.9814C11.4035 13.3646 11.4646 12.9743 11.5297 12.8105C11.6509 12.5057 11.9633 12.1549 12.4668 11.758L12.9773 11.354C13.1451 11.2264 14.0099 10.6174 14.0099 10.0782C14.0099 9.53902 13.916 9.3407 13.6453 9.04478C13.3746 8.74886 12.7652 8.65361 12.215 8.65361C11.6742 8.65361 11.2121 8.79723 10.986 9.16106C10.8813 9.32957 10.7956 9.50933 10.7339 9.69274C10.7096 9.7649 10.6881 9.85568 10.6693 9.96508C10.6328 10.1778 10.4484 10.3334 10.2325 10.3334H9.18909C8.94432 10.3334 8.7459 10.135 8.7459 9.89018C8.7459 9.87346 8.74685 9.85674 8.74874 9.84012C8.76 9.74105 8.77154 9.65864 8.78335 9.59288C8.95613 8.63065 9.39373 7.92303 10.0962 7.46999C10.6463 7.11088 11.3223 6.93133 12.1241 6.93133Z" fill="currentColor"/>
</svg>
