<svg width="24" height="24" viewBox="0 0 24 24" fill="none" xmlns="http://www.w3.org/2000/svg">
<path d="M16.6667 4C16.0478 4 15.4543 4.25286 15.0168 4.70294C14.5792 5.15303 14.3333 5.76348 14.3333 6.4C14.3338 6.55052 14.3481 6.70066 14.3759 6.84844L8.8418 10.1688C8.42029 9.80148 7.88576 9.59994 7.33333 9.6C6.71449 9.6 6.121 9.85286 5.68342 10.3029C5.24583 10.753 5 11.3635 5 12C5 12.6365 5.24583 13.247 5.68342 13.6971C6.121 14.1471 6.71449 14.4 7.33333 14.4C7.8849 14.3989 8.41826 14.1968 8.83876 13.8297L14.3759 17.1516C14.3481 17.2993 14.3338 17.4495 14.3333 17.6C14.3333 18.2365 14.5792 18.847 15.0168 19.2971C15.4543 19.7471 16.0478 20 16.6667 20C17.2855 20 17.879 19.7471 18.3166 19.2971C18.7542 18.847 19 18.2365 19 17.6C19 16.9635 18.7542 16.353 18.3166 15.9029C17.879 15.4529 17.2855 15.2 16.6667 15.2C16.1146 15.2007 15.5806 15.4028 15.1597 15.7703L9.62413 12.4484C9.65195 12.3007 9.66619 12.1505 9.66667 12C9.66619 11.8495 9.65195 11.6993 9.62413 11.5516L15.1582 8.23125C15.5797 8.59852 16.1142 8.80006 16.6667 8.8C17.2855 8.8 17.879 8.54714 18.3166 8.09706C18.7542 7.64697 19 7.03652 19 6.4C19 5.76348 18.7542 5.15303 18.3166 4.70294C17.879 4.25286 17.2855 4 16.6667 4Z" fill="black"/>
</svg>
