<svg width="20" height="20" viewBox="0 0 20 20" fill="none" xmlns="http://www.w3.org/2000/svg">
<path d="M17.769 9.89478L14.577 12.7798C14.4548 12.8913 14.2954 12.9531 14.13 12.9531C13.9646 12.9531 13.8051 12.8913 13.683 12.7798C13.6231 12.7308 13.5749 12.6692 13.5418 12.5993C13.5087 12.5294 13.4915 12.4531 13.4915 12.3758C13.4915 12.2985 13.5087 12.2221 13.5418 12.1522C13.5749 12.0824 13.6231 12.0207 13.683 11.9718L15.79 10.0678H9.65997C9.27797 10.0678 9.02197 9.83678 9.02197 9.49078C9.02197 9.14378 9.27797 8.91378 9.66097 8.91378H15.79L13.683 7.00878C13.6231 6.95982 13.5749 6.89818 13.5418 6.82831C13.5087 6.75844 13.4915 6.68209 13.4915 6.60478C13.4915 6.52746 13.5087 6.45111 13.5418 6.38125C13.5749 6.31138 13.6231 6.24974 13.683 6.20078C13.7419 6.14321 13.8119 6.09819 13.8887 6.06845C13.9656 6.03872 14.0476 6.02488 14.13 6.02778C14.2123 6.02494 14.2944 6.0388 14.3712 6.06853C14.448 6.09827 14.518 6.14325 14.577 6.20078L17.769 9.14378C17.769 9.14378 17.769 9.20178 17.833 9.20178C17.8812 9.24809 17.9184 9.30468 17.9417 9.36734C17.9651 9.42999 17.974 9.49711 17.9679 9.56369C17.9617 9.63028 17.9407 9.69462 17.9062 9.75194C17.8718 9.80926 17.8249 9.85808 17.769 9.89478Z" fill="black" fill-opacity="0.5" stroke="black" stroke-opacity="0.5" stroke-width="0.2"/>
<path d="M2 3.84398C2 2.79898 2.845 1.99998 3.95 1.99998H15.005C16.11 1.99998 16.955 2.79898 16.955 3.84398V5.07398C16.955 5.44198 16.695 5.68798 16.305 5.68798C15.915 5.68798 15.655 5.44198 15.655 5.07298V3.84298C15.655 3.47498 15.395 3.22898 15.005 3.22898H3.95C3.56 3.22898 3.3 3.47498 3.3 3.84398V16.136C3.3 16.505 3.56 16.751 3.95 16.751H15.004C15.394 16.751 15.654 16.505 15.654 16.136V14.907C15.654 14.538 15.914 14.292 16.304 14.292C16.694 14.292 16.954 14.538 16.954 14.907V16.137C16.955 17.18 16.11 17.98 15.005 17.98H3.95C2.845 17.98 2 17.181 2 16.136" fill="black" fill-opacity="0.5"/>
</svg>
