<svg width="80" height="80" viewBox="0 0 80 80" fill="none" xmlns="http://www.w3.org/2000/svg">
<path d="M47.9426 21.3622C47.1263 21.3248 46.3132 21.4873 45.5739 21.8357C44.8346 22.184 44.1915 22.7076 43.7003 23.361C43.5809 23.5122 43.4293 23.635 43.2565 23.7203C43.0837 23.8056 42.894 23.8513 42.7014 23.8542V23.8542V13.6916C42.7014 12.7175 42.3146 11.7832 41.626 11.0944C40.9375 10.4055 40.0036 10.0186 39.0299 10.0186H13.7059C12.7321 10.0186 11.7983 10.4055 11.1098 11.0944C10.4212 11.7832 10.0344 12.7175 10.0344 13.6916V23.8542C9.85285 23.8421 9.67586 23.7919 9.51493 23.707C9.35401 23.622 9.21275 23.5041 9.10033 23.361C8.46593 22.4609 7.55274 21.795 6.50203 21.4664C5.45132 21.1377 4.32164 21.1646 3.28774 21.5429C2.25385 21.9212 1.37336 22.6298 0.782479 23.559C0.191598 24.4883 -0.0767427 25.5864 0.0189671 26.6836C0.102926 27.9084 0.632339 29.06 1.50719 29.9209C2.38204 30.7818 3.54175 31.2923 4.76722 31.356C5.5994 31.4158 6.43316 31.2639 7.19082 30.9144C7.94848 30.5649 8.60538 30.0292 9.10033 29.3573C9.21978 29.206 9.3714 29.0833 9.5442 28.9979C9.71699 28.9126 9.90661 28.8669 10.0993 28.8641V28.8641V39.0266C10.0993 40.0008 10.4861 40.935 11.1746 41.6239C11.8632 42.3127 12.797 42.6997 13.7707 42.6997H16.8584C16.8584 42.4012 16.8584 42.1156 16.8584 41.8171C16.9725 39.462 17.952 37.2321 19.6089 35.5553C21.2658 33.8785 23.4834 32.873 25.836 32.7318H26.4328C28.9744 32.7352 31.411 33.7469 33.2082 35.5449C35.0055 37.3429 36.0167 39.7805 36.0201 42.3233C36.0201 42.4661 36.0201 42.5959 36.0201 42.7386H42.7014V28.8641C42.894 28.8669 43.0837 28.9126 43.2565 28.9979C43.4293 29.0833 43.5809 29.206 43.7003 29.3573C44.2056 30.0291 44.8722 30.5625 45.6384 30.9081C46.4045 31.2537 47.2454 31.4003 48.0832 31.3343C48.9211 31.2683 49.7287 30.992 50.4314 30.5307C51.134 30.0695 51.709 29.4384 52.1031 28.6957C52.4971 27.9531 52.6975 27.123 52.6856 26.2823C52.6738 25.4416 52.4501 24.6175 52.0352 23.8863C51.6204 23.1551 51.0279 22.5404 50.3125 22.0992C49.5971 21.658 48.782 21.4045 47.9426 21.3622Z" fill="black" fill-opacity="0.5"/>
<path d="M79.5336 16.7672H79.9488V13.6912C79.9488 12.7171 79.5619 11.7828 78.8734 11.094C78.1849 10.4052 77.251 10.0182 76.2773 10.0182H66.184C66.1809 9.82439 66.224 9.63266 66.3098 9.45887C66.3955 9.28508 66.5214 9.13422 66.677 9.01879C67.5181 8.38808 68.1396 7.50856 68.4532 6.50485C68.7669 5.50113 68.7569 4.42411 68.4247 3.4264C68.0924 2.42868 67.4548 1.56086 66.6021 0.945895C65.7494 0.330928 64.7248 0 63.6737 0C62.6225 0 61.598 0.330928 60.7453 0.945895C59.8926 1.56086 59.2549 2.42868 58.9227 3.4264C58.5904 4.42411 58.5804 5.50113 58.8941 6.50485C59.2078 7.50856 59.8292 8.38808 60.6703 9.01879C60.8259 9.13422 60.9518 9.28508 61.0375 9.45887C61.1233 9.63266 61.1664 9.82439 61.1633 10.0182H50.9533C49.9818 10.0216 49.0513 10.4101 48.3655 11.0986C47.6798 11.787 47.2948 12.7193 47.2948 13.6912V16.7802H48.164C50.518 16.8944 52.747 17.8743 54.4231 19.5319C56.0992 21.1896 57.1042 23.4081 57.2454 25.7617C57.2392 25.8611 57.2392 25.9608 57.2454 26.0602V26.3587C57.2454 28.9026 56.2353 31.3422 54.4373 33.1409C52.6393 34.9397 50.2007 35.9502 47.658 35.9502H47.2559V42.6993H61.1114C61.1086 42.892 61.0629 43.0818 60.9776 43.2546C60.8923 43.4275 60.7696 43.5792 60.6184 43.6987C59.7798 44.3279 59.1603 45.2052 58.8477 46.2063C58.5352 47.2074 58.5453 48.2814 58.8768 49.2764C59.2083 50.2713 59.8444 51.1367 60.6948 51.7499C61.5452 52.3631 62.567 52.6931 63.6153 52.6931C64.6636 52.6931 65.6853 52.3631 66.5358 51.7499C67.3862 51.1367 68.0222 50.2713 68.3537 49.2764C68.6852 48.2814 68.6954 47.2074 68.3828 46.2063C68.0703 45.2052 67.4508 44.3279 66.6121 43.6987C66.4728 43.573 66.3623 43.4185 66.2884 43.246C66.2145 43.0735 66.1789 42.8869 66.184 42.6993H76.3292C77.3029 42.6993 78.2368 42.3123 78.9253 41.6235C79.6138 40.9346 80.0007 40.0004 80.0007 39.0262V35.9372C79.7152 35.9372 79.4169 35.9372 79.1185 35.9372C76.7665 35.8234 74.5393 34.8453 72.8635 33.1904C71.1877 31.5354 70.1813 29.32 70.0371 26.9687C70.0309 26.8693 70.0309 26.7696 70.0371 26.6702C70.0371 26.5664 70.0371 26.4626 70.0371 26.3717C70.037 23.8423 71.0341 21.415 72.8122 19.6168C74.5902 17.8186 77.0055 16.7946 79.5336 16.7672V16.7672Z" fill="black" fill-opacity="0.1"/>
<path d="M42.285 54.0289H42.7002V47.2799H28.8705C28.8734 47.0871 28.9191 46.8974 29.0044 46.7245C29.0896 46.5517 29.2123 46.4 29.3635 46.2805C30.228 45.6367 30.8611 44.7304 31.1683 43.697C31.4756 42.6636 31.4405 41.5585 31.0684 40.5467C30.6962 39.5349 30.007 38.6707 29.1035 38.083C28.2 37.4953 27.1307 37.2157 26.0553 37.286C25.0337 37.3513 24.0566 37.7283 23.2557 38.3663C22.4548 39.0042 21.8685 39.8723 21.5759 40.8538C21.2833 41.8352 21.2984 42.8828 21.6191 43.8554C21.9399 44.828 22.5509 45.6789 23.3698 46.2934C23.5194 46.4116 23.6411 46.5612 23.7263 46.7317C23.8115 46.9021 23.8581 47.0893 23.8628 47.2799H13.7047C12.7332 47.2798 11.8013 47.665 11.1131 48.3511C10.425 49.0371 10.0366 49.968 10.0332 50.9399V76.2879C10.0332 77.2621 10.42 78.1963 11.1086 78.8852C11.7971 79.574 12.7309 79.961 13.7047 79.961H16.7923C16.7923 79.6754 16.7923 79.3769 16.7923 79.0784C16.9064 76.7233 17.8859 74.4934 19.5428 72.8166C21.1998 71.1398 23.4173 70.1343 25.7699 69.9931H26.3667C28.9083 69.9965 31.3449 71.0082 33.1422 72.8062C34.9394 74.6042 35.9506 77.0418 35.954 79.5846C35.954 79.7274 35.954 79.8701 35.954 79.9999H39.0417C40.0154 79.9999 40.9493 79.6129 41.6378 78.9241C42.3263 78.2353 42.7131 77.301 42.7131 76.3269V73.2119C42.4148 73.2119 42.1293 73.2119 41.8309 73.2119C39.4779 73.0949 37.2505 72.1141 35.575 70.457C33.8995 68.8 32.8935 66.583 32.7496 64.2304C32.7431 64.131 32.7431 64.0313 32.7496 63.9319C32.7434 63.8325 32.7434 63.7328 32.7496 63.6334C32.7495 61.0973 33.7521 58.6642 35.5385 56.8649C37.3249 55.0655 39.7501 54.0461 42.285 54.0289V54.0289Z" fill="black" fill-opacity="0.1"/>
<path d="M76.2766 47.2938H73.2019C73.2019 47.5794 73.2019 47.8779 73.2019 48.1634C73.085 50.5175 72.1045 52.7459 70.4482 54.4221C68.7919 56.0983 66.5759 57.1047 64.2243 57.2487H63.5886C61.0469 57.2453 58.6104 56.2336 56.8131 54.4356C55.0159 52.6376 54.0047 50.2 54.0013 47.6572C54.0013 47.5274 54.0013 47.3847 54.0013 47.2549H47.2551V61.1164C47.0625 61.1136 46.8728 61.0679 46.7 60.9826C46.5273 60.8973 46.3756 60.7745 46.2562 60.6233C45.6272 59.7842 44.7503 59.1645 43.7497 58.8518C42.749 58.5391 41.6754 58.5493 40.6809 58.8809C39.6864 59.2126 38.8214 59.8489 38.2084 60.6997C37.5955 61.5505 37.2656 62.5726 37.2656 63.6214C37.2656 64.6702 37.5955 65.6923 38.2084 66.5431C38.8214 67.394 39.6864 68.0302 40.6809 68.3619C41.6754 68.6935 42.749 68.7037 43.7497 68.391C44.7503 68.0783 45.6272 67.4586 46.2562 66.6196C46.3716 66.4681 46.521 66.3457 46.6922 66.2623C46.8634 66.1789 47.0517 66.1368 47.2422 66.1393V76.2889C47.2404 76.7706 47.3338 77.248 47.5169 77.6935C47.7 78.1391 47.9692 78.5441 48.3091 78.8854C48.649 79.2266 49.0529 79.4974 49.4976 79.6821C49.9423 79.8669 50.4191 79.962 50.9006 79.962H54.0013C54.0013 79.6764 54.0013 79.3779 54.0013 79.0794C54.1122 76.7255 55.089 74.4957 56.7438 72.8186C58.3986 71.1415 60.6146 70.1356 62.9659 69.9941H63.5886C66.1291 69.9941 68.5657 71.0028 70.3633 72.7988C72.1609 74.5947 73.1725 77.031 73.1759 79.5726C73.1759 79.7154 73.1759 79.8581 73.1759 79.9879H76.2636C76.7462 79.9896 77.2244 79.8958 77.6706 79.7118C78.1168 79.5278 78.5223 79.2574 78.8635 78.9159C79.2048 78.5745 79.4752 78.1689 79.6591 77.7225C79.843 77.2761 79.9368 76.7977 79.9351 76.3149V50.9539C79.9351 50.4732 79.8404 49.9973 79.6566 49.5532C79.4727 49.1092 79.2032 48.7057 78.8635 48.3658C78.5238 48.026 78.1205 47.7564 77.6766 47.5724C77.2327 47.3885 76.757 47.2938 76.2766 47.2938V47.2938Z" fill="black" fill-opacity="0.3"/>
</svg>
