<svg width="16" height="14" viewBox="0 0 16 14" fill="none" xmlns="http://www.w3.org/2000/svg">
<path d="M15.8001 2.16798C15.2264 2.41548 14.602 2.5936 13.9589 2.66298C14.6226 2.26735 15.127 1.64298 15.3651 0.900478C14.752 1.2661 14.0582 1.53423 13.3364 1.67298C12.7514 1.0486 11.9207 0.662354 11.0001 0.662354C9.22824 0.662354 7.80324 2.0986 7.80324 3.8611C7.80324 4.1086 7.83324 4.3561 7.88199 4.59423C5.22887 4.45548 2.86262 3.18798 1.28949 1.24735C1.01199 1.7236 0.854492 2.26735 0.854492 2.86173C0.854492 3.97173 1.41887 4.95048 2.27949 5.5261C1.75449 5.50548 1.25949 5.35735 0.833867 5.11923V5.1586C0.833867 6.71298 1.93262 8.0011 3.39699 8.29735C3.12887 8.36673 2.84199 8.4061 2.55512 8.4061C2.34699 8.4061 2.15012 8.38548 1.95137 8.35736C2.35637 9.62486 3.53574 10.5455 4.94012 10.5755C3.84137 11.4361 2.46512 11.9424 0.970742 11.9424C0.702617 11.9424 0.455117 11.933 0.198242 11.903C1.61574 12.8124 3.29762 13.3374 5.10887 13.3374C10.9889 13.3374 14.2064 8.4661 14.2064 4.23798C14.2064 4.09923 14.2064 3.96048 14.197 3.82173C14.8195 3.3661 15.3651 2.80173 15.8001 2.16798Z" fill="currentColor"/>
<defs>
<radialGradient id="paint0_radial_1543_23086" cx="0" cy="0" r="1" gradientUnits="userSpaceOnUse" gradientTransform="translate(0.198242 13.3374) rotate(-36.1983) scale(22.6473 42.1296)">
<stop stop-color="#5331F4"/>
<stop offset="0.716911" stop-color="#9783F8"/>
<stop offset="1" stop-color="#B46AF9"/>
</radialGradient>
</defs>
</svg>
