<svg width="26" height="26" viewBox="0 0 26 26" fill="none" xmlns="http://www.w3.org/2000/svg">
  <path d="M4.83768 8.55739C5.58035 4.75184 8.92176 1.87457 13.0058 1.87457C17.0897 1.87457 20.4311 4.75184 21.1738 8.55739C23.9581 9.30006 26 11.8988 26 14.869C26 18.4889 23.1227 21.3664 19.5028 21.3664H18.5745V19.5099H19.5028C22.1015 19.5099 24.1437 17.468 24.1437 14.869C24.1437 12.2703 22.1018 10.2281 19.5028 10.2281C19.5028 6.60815 16.6255 3.73088 13.0056 3.73088C9.38565 3.73088 6.50813 6.60815 6.50813 10.2281C3.9094 10.2281 1.86723 12.27 1.86723 14.869C1.86723 17.468 3.90914 19.5099 6.50813 19.5099H7.43641V21.3664H6.50813C2.88819 21.3664 0.0109197 18.4889 0.0109197 14.869C0.0111736 11.8988 2.05334 9.30006 4.83768 8.55739V8.55739Z" fill="currentColor"/>
  <path d="M12.1703 12.3629C12.5417 12.0844 12.9127 11.9915 13.2841 12.1773C13.3768 12.1773 13.4697 12.27 13.5627 12.3629L16.3473 15.0546C16.7185 15.4261 16.7185 15.9829 16.3473 16.3541C15.9758 16.7256 15.3263 16.7256 14.9548 16.3541L13.8412 15.3331V23.2228C13.8412 23.7796 13.3771 24.1508 12.9129 24.1508C12.3561 24.1508 11.9849 23.6869 11.9849 23.2228V15.3329L10.871 16.3538C10.4998 16.7253 9.85006 16.7253 9.47885 16.3538C9.10738 15.9826 9.10738 15.4258 9.47885 15.0543L12.1703 12.3629V12.3629Z" fill="currentColor"/>
</svg>
