<svg width="20" height="20" viewBox="0 0 20 20" fill="none" xmlns="http://www.w3.org/2000/svg">
<path d="M8.30294 7.69706C7.85286 7.24697 7.6 6.63652 7.6 6C7.6 5.36348 7.85286 4.75303 8.30294 4.30294C8.75303 3.85286 9.36348 3.6 10 3.6C10.6365 3.6 11.247 3.85286 11.6971 4.30294C12.1471 4.75303 12.4 5.36348 12.4 6C12.4 6.63652 12.1471 7.24697 11.6971 7.69706C11.247 8.14714 10.6365 8.4 10 8.4C9.36348 8.4 8.75303 8.14714 8.30294 7.69706Z" stroke="black" stroke-opacity="0.5" stroke-width="1.2"/>
<path d="M8.33333 10.6H11.6667C14.281 10.6 16.4 12.719 16.4 15.3333V15.6667C16.4 15.8612 16.3227 16.0477 16.1852 16.1852C16.0477 16.3227 15.8612 16.4 15.6667 16.4H4.33333C4.13884 16.4 3.95232 16.3227 3.81479 16.1852L3.39705 16.6029L3.81479 16.1852C3.67726 16.0477 3.6 15.8612 3.6 15.6667V15.3333C3.6 12.719 5.71904 10.6 8.33333 10.6Z" stroke="black" stroke-opacity="0.5" stroke-width="1.2"/>
</svg>
