<svg width="20" height="21" viewBox="0 0 20 21" fill="none" xmlns="http://www.w3.org/2000/svg">
<path d="M19.1498 1.85977C18.7678 1.47033 18.2833 1.19698 17.7524 1.07134C17.2215 0.945697 16.6659 0.972887 16.1498 1.14977L1.9998 5.87977C1.42912 6.06657 0.930493 6.42591 0.572758 6.9082C0.215023 7.39049 0.0158211 7.97193 0.00265102 8.57227C-0.010519 9.1726 0.162992 9.76223 0.499233 10.2597C0.835473 10.7572 1.31786 11.1381 1.87981 11.3498L7.1198 13.3498C7.23912 13.3954 7.34776 13.4651 7.43895 13.5546C7.53014 13.644 7.60191 13.7513 7.6498 13.8698L9.64981 19.1198C9.85339 19.6738 10.2228 20.1515 10.7078 20.4879C11.1927 20.8244 11.7696 21.0031 12.3598 20.9998H12.4298C13.0308 20.9888 13.6134 20.7901 14.0958 20.4314C14.5781 20.0728 14.9362 19.5722 15.1198 18.9998L19.8498 4.82977C20.0218 4.3187 20.0474 3.76971 19.9237 3.24485C19.8 2.72 19.5319 2.24022 19.1498 1.85977ZM17.9998 4.19977L13.2198 18.3798C13.1643 18.5592 13.0528 18.7162 12.9017 18.8278C12.7505 18.9394 12.5677 18.9996 12.3798 18.9998C12.1931 19.0028 12.0098 18.949 11.8544 18.8454C11.699 18.7418 11.5788 18.5933 11.5098 18.4198L9.50981 13.1698C9.36481 12.7883 9.14119 12.4416 8.85349 12.1521C8.56578 11.8627 8.22041 11.637 7.83981 11.4898L2.58981 9.48977C2.4127 9.42487 2.26046 9.30597 2.15459 9.14985C2.04872 8.99374 1.99458 8.80832 1.9998 8.61977C1.99996 8.43191 2.06022 8.24903 2.17178 8.09789C2.28334 7.94675 2.44034 7.83527 2.6198 7.77977L16.7998 3.04977C16.9626 2.98341 17.1411 2.96564 17.3138 2.99859C17.4865 3.03154 17.646 3.11381 17.7729 3.23545C17.8998 3.35709 17.9888 3.5129 18.0291 3.68403C18.0693 3.85516 18.0592 4.03429 17.9998 4.19977Z" fill="currentColor"/>
</svg>
