<svg width="36" height="36" viewBox="0 0 36 36" fill="none" xmlns="http://www.w3.org/2000/svg">
<path d="M9.14386 12.3257C14.035 7.53683 21.9651 7.53683 26.8562 12.3257L27.4448 12.902C27.6894 13.1414 27.6894 13.5296 27.4448 13.7691L25.4312 15.7406C25.3089 15.8604 25.1106 15.8604 24.9884 15.7406L24.1783 14.9475C20.7661 11.6067 15.2339 11.6067 11.8217 14.9475L10.9542 15.7969C10.832 15.9166 10.6337 15.9166 10.5114 15.7969L8.49776 13.8253C8.2532 13.5859 8.2532 13.1977 8.49776 12.9582L9.14386 12.3257ZM31.0206 16.403L32.8128 18.1577C33.0574 18.3972 33.0574 18.7854 32.8128 19.0248L24.7318 26.9369C24.4872 27.1764 24.0907 27.1764 23.8462 26.9369C23.8462 26.9369 23.8462 26.9369 23.8462 26.9369L18.1108 21.3215C18.0496 21.2616 17.9505 21.2616 17.8894 21.3215C17.8894 21.3215 17.8894 21.3215 17.8894 21.3215L12.1541 26.9369C11.9095 27.1764 11.513 27.1764 11.2685 26.9369C11.2684 26.9369 11.2684 26.9369 11.2684 26.9369L3.1872 19.0247C2.94265 18.7853 2.94265 18.3971 3.1872 18.1576L4.97938 16.4029C5.22393 16.1635 5.62044 16.1635 5.86499 16.4029L11.6005 22.0185C11.6616 22.0783 11.7608 22.0783 11.8219 22.0185C11.8219 22.0185 11.8219 22.0185 11.8219 22.0185L17.5571 16.4029C17.8017 16.1635 18.1982 16.1635 18.4427 16.4029C18.4427 16.4029 18.4427 16.4029 18.4427 16.4029L24.1782 22.0185C24.2394 22.0783 24.3385 22.0783 24.3996 22.0185L30.135 16.403C30.3796 16.1636 30.7761 16.1636 31.0206 16.403Z" fill="#3B99FC"/>
</svg>
