<svg width="30" height="30" viewBox="0 0 30 30" fill="none" xmlns="http://www.w3.org/2000/svg">
<path d="M15 30C23.2843 30 30 23.2843 30 15C30 6.71573 23.2843 0 15 0C6.71573 0 0 6.71573 0 15C0 23.2843 6.71573 30 15 30Z" fill="#FF9900"/>
<path fill-rule="evenodd" clip-rule="evenodd" d="M16.082 19.0419C16.5423 19.0419 16.9154 19.415 16.9154 19.8753V22.0419C16.9154 22.5022 16.5423 22.8753 16.082 22.8753H13.9154C13.4551 22.8753 13.082 22.5022 13.082 22.0419V19.8753C13.082 19.415 13.4551 19.0419 13.9154 19.0419H16.082ZM16.082 6.80273C16.5423 6.80273 16.9154 7.17583 16.9154 7.63607V16.4031C16.9154 16.8633 16.5423 17.2364 16.082 17.2364H13.9154C13.4551 17.2364 13.082 16.8633 13.082 16.4031V7.63607C13.082 7.17583 13.4551 6.80273 13.9154 6.80273H16.082Z" fill="white"/>
</svg>
