<svg width="18" height="18" viewBox="0 0 18 18" fill="none" xmlns="http://www.w3.org/2000/svg">
<path d="M9.0001 0.599854C4.3609 0.599854 0.600098 4.36065 0.600098 8.99985C0.600098 13.6391 4.3609 17.3999 9.0001 17.3999C13.6393 17.3999 17.4001 13.6391 17.4001 8.99985C17.4001 4.36065 13.6393 0.599854 9.0001 0.599854ZM11.7871 12.7121L11.4043 13.0943C11.3029 13.1963 11.2315 13.3211 11.1955 13.4567C11.1439 13.6487 11.1031 13.8425 11.0335 14.0285L10.4449 15.6155C9.9787 15.7169 9.4963 15.7739 9.0001 15.7739V14.8469C9.0571 14.4191 8.7415 13.6187 8.2339 13.1111C8.13312 13.0104 8.05317 12.8909 7.9986 12.7593C7.94404 12.6277 7.91594 12.4867 7.9159 12.3443V11.2601C7.9163 11.0667 7.86479 10.8768 7.76674 10.7101C7.66869 10.5435 7.52771 10.4062 7.3585 10.3127C6.81248 10.0086 6.2614 9.71379 5.7055 9.42825C5.31683 9.23158 4.95623 8.98378 4.6333 8.69145L4.6063 8.66745C4.37487 8.45863 4.1694 8.22274 3.9943 7.96485C3.6769 7.49865 3.1591 6.73125 2.8231 6.23265C3.51846 4.6875 4.76478 3.45701 6.3187 2.78145L7.1317 3.18825C7.21434 3.22973 7.30623 3.24936 7.3986 3.24528C7.49098 3.2412 7.58077 3.21354 7.65944 3.16495C7.73811 3.11635 7.80303 3.04843 7.84802 2.96765C7.89302 2.88687 7.91659 2.79592 7.9165 2.70345V2.32065C8.1865 2.27685 8.4625 2.24925 8.7421 2.23905L9.7009 3.19725C9.75129 3.24757 9.79128 3.30734 9.81856 3.37313C9.84583 3.43891 9.85988 3.50943 9.85988 3.58065C9.85988 3.65187 9.84583 3.72239 9.81856 3.78818C9.79128 3.85397 9.75129 3.91373 9.7009 3.96405L9.5419 4.12245L9.1921 4.47285C9.14146 4.52368 9.11303 4.59251 9.11303 4.66425C9.11303 4.736 9.14146 4.80482 9.1921 4.85565L9.3505 5.01465C9.40113 5.06548 9.42956 5.13431 9.42956 5.20605C9.42956 5.2778 9.40113 5.34662 9.3505 5.39745L9.0799 5.66865C9.05467 5.69382 9.02472 5.71377 8.99178 5.72736C8.95883 5.74095 8.92353 5.74791 8.8879 5.74785H8.5837C8.51309 5.74782 8.44526 5.77538 8.3947 5.82465L8.0587 6.15165C8.01737 6.19172 7.98986 6.2439 7.98015 6.30063C7.97044 6.35737 7.97904 6.41573 8.0047 6.46725L8.5327 7.52325C8.6227 7.70325 8.4919 7.91565 8.2909 7.91565H8.1001C8.03488 7.91577 7.97181 7.89234 7.9225 7.84965L7.6081 7.57605C7.53696 7.51432 7.45098 7.47217 7.35861 7.45376C7.26624 7.43535 7.17066 7.44131 7.0813 7.47105L6.0253 7.82325C5.94934 7.84862 5.8826 7.89594 5.83353 7.95923C5.78446 8.02252 5.75525 8.09893 5.7496 8.17882C5.74395 8.2587 5.76211 8.33847 5.80178 8.40804C5.84146 8.4776 5.90087 8.53384 5.9725 8.56965L6.3481 8.75685C6.66664 8.91622 7.01792 8.99921 7.3741 8.99925C7.7311 8.99925 8.1397 9.92385 8.4583 10.0835H10.7191C11.0071 10.0835 11.2825 10.1975 11.4859 10.4009L11.9497 10.8647C12.1435 11.0585 12.2521 11.3207 12.2521 11.5949C12.2521 12.0149 12.0847 12.4169 11.7871 12.7121ZM14.7241 9.61785C14.5281 9.56868 14.3574 9.44825 14.2453 9.28005L13.6363 8.36685C13.5471 8.23338 13.4996 8.07647 13.4996 7.91595C13.4996 7.75544 13.5471 7.59853 13.6363 7.46505L14.2993 6.47025C14.3779 6.35265 14.4853 6.25725 14.6125 6.19425L15.0523 5.97405C15.5262 6.91233 15.7734 7.94869 15.7741 8.99985C15.7741 9.29385 15.7495 9.58125 15.7129 9.86505L14.7241 9.61785Z" fill="currentColor"/>
<defs>
<radialGradient id="paint0_radial_1988_2693" cx="0" cy="0" r="1" gradientUnits="userSpaceOnUse" gradientTransform="translate(0.600098 17.3999) rotate(-42.0138) scale(26.4869 51.4122)">
<stop stop-color="#5331F4"/>
<stop offset="0.716911" stop-color="#9783F8"/>
<stop offset="1" stop-color="#B46AF9"/>
</radialGradient>
</defs>
</svg>
