<svg width="440" height="160" viewBox="0 0 440 160" fill="none" xmlns="http://www.w3.org/2000/svg">
<g clip-path="url(#clip0_386_11746)">
<path fill-rule="evenodd" clip-rule="evenodd" d="M0 38.9435H21.6544C21.6544 38.9435 24.7495 89.1127 58.654 97.1892C92.5586 105.266 110.941 140.52 110.941 140.52H102.676C102.676 140.52 87.3674 113.342 51.2015 105.266C15.0357 97.1892 0 38.9435 0 38.9435Z" fill="#FBB222"/>
<path fill-rule="evenodd" clip-rule="evenodd" d="M418.94 117.878L409.96 110.978C409.96 110.978 392.15 130.796 375.43 123.342C358.71 115.887 339.474 124.649 339.474 124.649L342.901 127.283C342.901 127.283 358.202 120.891 375.86 129.065C393.518 137.24 418.94 117.878 418.94 117.878Z" fill="#880CE8"/>
<path fill-rule="evenodd" clip-rule="evenodd" d="M138.988 3.30766C138.988 3.30766 145.476 17.9386 138.988 24.9764C143.518 29.6769 154.219 32.0143 154.219 32.0143V8.6931L138.988 3.30766Z" fill="#880CE8"/>
<path fill-rule="evenodd" clip-rule="evenodd" d="M337.503 20.5784C337.503 20.5784 327.085 24.6018 326.759 31.1454C322.22 31.2651 315.842 27.2723 315.842 27.2723L327.406 15.8995L337.503 20.5784Z" fill="#EB1E2F"/>
<path fill-rule="evenodd" clip-rule="evenodd" d="M64.9329 35.4761L76.5728 30.0618L85.843 35.4761L75.3879 39.9606L64.9329 35.4761Z" fill="#50E2D9"/>
<path fill-rule="evenodd" clip-rule="evenodd" d="M379.96 99.8185L391.6 94.4042L400.87 99.8185L390.415 104.303L379.96 99.8185Z" fill="#50E2D9"/>
<path fill-rule="evenodd" clip-rule="evenodd" d="M39.771 125.555L51.4109 120.141L60.6811 125.555L50.2261 130.04L39.771 125.555Z" fill="#F67331"/>
<path fill-rule="evenodd" clip-rule="evenodd" d="M360.196 59.185V63.9027C360.196 63.9027 372.131 61.2769 380.4 55.3743C388.668 49.4716 400.67 24.5671 411.999 19.8494C423.329 15.1316 440 11.0024 440 11.0024V0C440 0 412.572 7.02852 404.955 15.0645C397.338 23.1005 385.628 44.0207 380.4 48.0126C375.172 52.0046 360.196 59.185 360.196 59.185Z" fill="#FF691D"/>
<path d="M119.266 86L110.882 62.96H115.362L120.93 78.16L126.498 62.96H130.626L136.194 78.16L141.73 62.96H146.242L137.858 86H134.53L128.546 69.68L122.594 86H119.266ZM151.404 86C150.188 86 149.142 85.5733 148.268 84.72C147.414 83.8453 146.988 82.8 146.988 81.584V71.856C146.988 70.64 147.414 69.6053 148.268 68.752C149.142 67.8773 150.188 67.44 151.404 67.44H161.42C162.636 67.44 163.67 67.8773 164.524 68.752C165.398 69.6053 165.836 70.64 165.836 71.856V78.832H151.18V80.688C151.18 81.2853 151.212 81.6267 151.276 81.712C151.361 81.776 151.702 81.808 152.3 81.808H165.836V86H151.404ZM151.18 75.056H161.644V72.752C161.644 72.1547 161.601 71.824 161.516 71.76C161.452 71.6747 161.121 71.632 160.524 71.632H152.3C151.702 71.632 151.361 71.6747 151.276 71.76C151.212 71.824 151.18 72.1547 151.18 72.752V75.056ZM172.811 86C171.595 86 170.549 85.5733 169.675 84.72C168.821 83.8453 168.395 82.8 168.395 81.584V61.328H172.619V80.688C172.619 81.2853 172.651 81.6267 172.715 81.712C172.8 81.776 173.131 81.808 173.707 81.808H176.555V86H172.811ZM183.216 86C182 86 180.955 85.5733 180.08 84.72C179.227 83.8453 178.8 82.8 178.8 81.584V71.856C178.8 70.64 179.227 69.6053 180.08 68.752C180.955 67.8773 182 67.44 183.216 67.44H197.616V71.632H184.112C183.515 71.632 183.174 71.6747 183.088 71.76C183.024 71.824 182.992 72.1547 182.992 72.752V80.688C182.992 81.2853 183.024 81.6267 183.088 81.712C183.174 81.776 183.515 81.808 184.112 81.808H197.648V86H183.216ZM205.247 86C204.031 86 202.986 85.5733 202.111 84.72C201.258 83.8453 200.831 82.8 200.831 81.584V71.856C200.831 70.64 201.258 69.6053 202.111 68.752C202.986 67.8773 204.031 67.44 205.247 67.44H215.263C216.479 67.44 217.514 67.8773 218.367 68.752C219.242 69.6053 219.679 70.64 219.679 71.856V81.584C219.679 82.8 219.242 83.8453 218.367 84.72C217.514 85.5733 216.479 86 215.263 86H205.247ZM206.143 81.808H214.367C214.965 81.808 215.295 81.776 215.359 81.712C215.445 81.6267 215.487 81.2853 215.487 80.688V72.752C215.487 72.1547 215.445 71.824 215.359 71.76C215.295 71.6747 214.965 71.632 214.367 71.632H206.143C205.546 71.632 205.205 71.6747 205.119 71.76C205.055 71.824 205.023 72.1547 205.023 72.752V80.688C205.023 81.2853 205.055 81.6267 205.119 81.712C205.205 81.776 205.546 81.808 206.143 81.808ZM223.084 86V67.44H246.092C247.308 67.44 248.342 67.8773 249.196 68.752C250.07 69.6053 250.508 70.64 250.508 71.856V86H246.348V72.752C246.348 72.1547 246.305 71.824 246.22 71.76C246.134 71.6747 245.804 71.632 245.228 71.632H240.044C239.446 71.632 239.105 71.6747 239.02 71.76C238.956 71.824 238.924 72.1547 238.924 72.752V86H234.7V72.752C234.7 72.1547 234.657 71.824 234.572 71.76C234.508 71.6747 234.177 71.632 233.58 71.632H228.396C227.798 71.632 227.457 71.6747 227.372 71.76C227.308 71.824 227.276 72.1547 227.276 72.752V86H223.084ZM257.779 86C256.563 86 255.517 85.5733 254.643 84.72C253.789 83.8453 253.363 82.8 253.363 81.584V71.856C253.363 70.64 253.789 69.6053 254.643 68.752C255.517 67.8773 256.563 67.44 257.779 67.44H267.795C269.011 67.44 270.045 67.8773 270.899 68.752C271.773 69.6053 272.211 70.64 272.211 71.856V78.832H257.555V80.688C257.555 81.2853 257.587 81.6267 257.651 81.712C257.736 81.776 258.077 81.808 258.675 81.808H272.211V86H257.779ZM257.555 75.056H268.019V72.752C268.019 72.1547 267.976 71.824 267.891 71.76C267.827 71.6747 267.496 71.632 266.899 71.632H258.675C258.077 71.632 257.736 71.6747 257.651 71.76C257.587 71.824 257.555 72.1547 257.555 72.752V75.056ZM289.78 86C288.564 86 287.519 85.5733 286.644 84.72C285.791 83.8453 285.364 82.8 285.364 81.584V61.744H289.556V67.44H296.788V71.632H289.556V80.688C289.556 81.2853 289.588 81.6267 289.652 81.712C289.738 81.776 290.079 81.808 290.676 81.808H296.788V86H289.78ZM303.747 86C302.531 86 301.486 85.5733 300.611 84.72C299.758 83.8453 299.331 82.8 299.331 81.584V71.856C299.331 70.64 299.758 69.6053 300.611 68.752C301.486 67.8773 302.531 67.44 303.747 67.44H313.763C314.979 67.44 316.014 67.8773 316.867 68.752C317.742 69.6053 318.179 70.64 318.179 71.856V81.584C318.179 82.8 317.742 83.8453 316.867 84.72C316.014 85.5733 314.979 86 313.763 86H303.747ZM304.643 81.808H312.867C313.465 81.808 313.795 81.776 313.859 81.712C313.945 81.6267 313.987 81.2853 313.987 80.688V72.752C313.987 72.1547 313.945 71.824 313.859 71.76C313.795 71.6747 313.465 71.632 312.867 71.632H304.643C304.046 71.632 303.705 71.6747 303.619 71.76C303.555 71.824 303.523 72.1547 303.523 72.752V80.688C303.523 81.2853 303.555 81.6267 303.619 81.712C303.705 81.776 304.046 81.808 304.643 81.808ZM138.408 126C137.192 126 136.147 125.563 135.272 124.688C134.398 123.813 133.96 122.768 133.96 121.552V107.408C133.96 106.192 134.398 105.147 135.272 104.272C136.147 103.397 137.192 102.96 138.408 102.96H156.936V107.216H139.304C138.707 107.216 138.366 107.259 138.28 107.344C138.216 107.408 138.184 107.739 138.184 108.336V120.624C138.184 121.221 138.216 121.563 138.28 121.648C138.366 121.712 138.707 121.744 139.304 121.744H156.936V126H138.408ZM164.529 126C163.313 126 162.267 125.573 161.393 124.72C160.539 123.845 160.113 122.8 160.113 121.584V111.856C160.113 110.64 160.539 109.605 161.393 108.752C162.267 107.877 163.313 107.44 164.529 107.44H174.545C175.761 107.44 176.795 107.877 177.649 108.752C178.523 109.605 178.961 110.64 178.961 111.856V121.584C178.961 122.8 178.523 123.845 177.649 124.72C176.795 125.573 175.761 126 174.545 126H164.529ZM165.425 121.808H173.649C174.246 121.808 174.577 121.776 174.641 121.712C174.726 121.627 174.769 121.285 174.769 120.688V112.752C174.769 112.155 174.726 111.824 174.641 111.76C174.577 111.675 174.246 111.632 173.649 111.632H165.425C164.827 111.632 164.486 111.675 164.401 111.76C164.337 111.824 164.305 112.155 164.305 112.752V120.688C164.305 121.285 164.337 121.627 164.401 121.712C164.486 121.776 164.827 121.808 165.425 121.808ZM182.365 126V107.44H205.373C206.589 107.44 207.624 107.877 208.477 108.752C209.352 109.605 209.789 110.64 209.789 111.856V126H205.629V112.752C205.629 112.155 205.586 111.824 205.501 111.76C205.416 111.675 205.085 111.632 204.509 111.632H199.325C198.728 111.632 198.386 111.675 198.301 111.76C198.237 111.824 198.205 112.155 198.205 112.752V126H193.981V112.752C193.981 112.155 193.938 111.824 193.853 111.76C193.789 111.675 193.458 111.632 192.861 111.632H187.677C187.08 111.632 186.738 111.675 186.653 111.76C186.589 111.824 186.557 112.155 186.557 112.752V126H182.365ZM218.03 126C216.814 126 215.769 125.573 214.894 124.72C214.041 123.845 213.614 122.8 213.614 121.584V107.44H217.806V120.688C217.806 121.285 217.838 121.627 217.902 121.712C217.988 121.776 218.329 121.808 218.926 121.808H227.15C227.748 121.808 228.078 121.776 228.142 121.712C228.228 121.627 228.27 121.285 228.27 120.688V107.44H232.462V121.584C232.462 122.8 232.025 123.845 231.15 124.72C230.297 125.573 229.262 126 228.046 126H218.03ZM235.959 126V107.44H250.391C251.607 107.44 252.641 107.877 253.495 108.752C254.369 109.605 254.807 110.64 254.807 111.856V126H250.615V112.752C250.615 112.155 250.572 111.824 250.487 111.76C250.423 111.675 250.092 111.632 249.495 111.632H241.271C240.673 111.632 240.332 111.675 240.247 111.76C240.183 111.824 240.151 112.155 240.151 112.752V126H235.959ZM258.176 126V107.44H262.368V126H258.176ZM258.176 105.584V101.36H262.368V105.584H258.176ZM269.654 126C268.438 126 267.392 125.573 266.518 124.72C265.664 123.845 265.238 122.8 265.238 121.584V111.856C265.238 110.64 265.664 109.605 266.518 108.752C267.392 107.877 268.438 107.44 269.654 107.44H279.67C280.886 107.44 281.92 107.877 282.774 108.752C283.648 109.605 284.086 110.64 284.086 111.856V121.584C284.086 122.8 283.648 123.845 282.774 124.72C281.92 125.573 280.886 126 279.67 126H269.654ZM270.55 121.808H278.774C279.371 121.808 279.702 121.776 279.766 121.712C279.851 121.627 279.894 121.285 279.894 120.688V112.752C279.894 112.155 279.851 111.824 279.766 111.76C279.702 111.675 279.371 111.632 278.774 111.632H270.55C269.952 111.632 269.611 111.675 269.526 111.76C269.462 111.824 269.43 112.155 269.43 112.752V120.688C269.43 121.285 269.462 121.627 269.526 121.712C269.611 121.776 269.952 121.808 270.55 121.808ZM286.677 126V107.44H301.109C302.325 107.44 303.36 107.877 304.213 108.752C305.088 109.605 305.525 110.64 305.525 111.856V126H301.333V112.752C301.333 112.155 301.291 111.824 301.205 111.76C301.141 111.675 300.811 111.632 300.213 111.632H291.989C291.392 111.632 291.051 111.675 290.965 111.76C290.901 111.824 290.869 112.155 290.869 112.752V126H286.677Z" fill="#333333"/>
</g>
<defs>
<clipPath id="clip0_386_11746">
<rect width="440" height="160" fill="white"/>
</clipPath>
</defs>
</svg>
