<svg width="32" height="32" viewBox="0 0 32 32" fill="none" xmlns="http://www.w3.org/2000/svg">
<path d="M8.84049 9.60044C8.84621 9.58955 8.85568 9.58102 8.86723 9.57638C10.2015 8.97511 11.6096 8.54636 13.0562 8.30086C13.0694 8.29846 13.083 8.30019 13.095 8.3058C13.1071 8.31142 13.1171 8.32063 13.1235 8.33214C13.3153 8.67392 13.4893 9.025 13.645 9.38401C15.2044 9.15153 16.7906 9.15153 18.3499 9.38401C18.5067 9.02408 18.6835 8.67293 18.8797 8.33214C18.8864 8.32088 18.8964 8.31188 18.9084 8.3063C18.9204 8.30072 18.9339 8.29883 18.947 8.30086C20.3938 8.54584 21.802 8.97463 23.1361 9.57641C23.1475 9.58116 23.1572 9.58928 23.1637 9.59965C25.8317 13.5128 26.5626 17.3298 26.204 21.0995C26.203 21.1087 26.2001 21.1177 26.1955 21.1258C26.1909 21.1339 26.1847 21.141 26.1772 21.1468C24.6237 22.2765 22.886 23.1389 21.0384 23.697C21.0254 23.7008 21.0115 23.7007 20.9986 23.6965C20.9856 23.6924 20.9743 23.6844 20.9662 23.6738C20.5693 23.1435 20.2177 22.5819 19.9149 21.9948C19.9107 21.9868 19.9083 21.9779 19.9079 21.9689C19.9075 21.9599 19.909 21.9509 19.9124 21.9425C19.9157 21.9341 19.9209 21.9265 19.9274 21.9201C19.934 21.9138 19.9419 21.909 19.9505 21.9059C20.505 21.6975 21.0418 21.4463 21.5559 21.1547C21.5653 21.1493 21.5731 21.1417 21.5788 21.1326C21.5844 21.1236 21.5877 21.1133 21.5883 21.1026C21.589 21.092 21.5869 21.0814 21.5824 21.0717C21.5779 21.0621 21.571 21.0536 21.5624 21.0472C21.4542 20.9678 21.3479 20.886 21.2436 20.8019C21.2344 20.7945 21.2233 20.7897 21.2116 20.7882C21.1999 20.7866 21.1879 20.7883 21.1771 20.7931C17.8091 22.3027 14.1627 22.3027 10.8346 20.7931C10.8237 20.788 10.8116 20.7861 10.7997 20.7875C10.7878 20.7889 10.7765 20.7936 10.7672 20.8011C10.6628 20.8857 10.5562 20.9678 10.4476 21.0472C10.4389 21.0536 10.432 21.0619 10.4274 21.0716C10.4228 21.0812 10.4207 21.0918 10.4213 21.1024C10.4218 21.113 10.425 21.1234 10.4306 21.1325C10.4362 21.1416 10.444 21.1492 10.4533 21.1547C10.9662 21.4488 11.5035 21.6998 12.0594 21.9051C12.0681 21.9083 12.0759 21.9133 12.0824 21.9197C12.089 21.9261 12.0941 21.9338 12.0974 21.9423C12.1007 21.9507 12.1021 21.9598 12.1016 21.9688C12.1011 21.9779 12.0987 21.9868 12.0944 21.9948C11.7865 22.5786 11.4354 23.1395 11.0439 23.6728C11.036 23.6838 11.0248 23.692 11.0118 23.6963C10.9988 23.7006 10.9848 23.7008 10.9717 23.6969C9.12079 23.1406 7.38008 22.2782 5.82457 21.1468C5.817 21.1413 5.81069 21.1344 5.80607 21.1264C5.80146 21.1183 5.79863 21.1095 5.79779 21.1003C5.36856 16.7421 6.51642 12.9564 8.84049 9.60044ZM19.4119 18.8041C20.4259 18.8041 21.2614 17.8902 21.2614 16.7678C21.2614 15.6454 20.4421 14.7314 19.4119 14.7314C18.3736 14.7314 17.5462 15.6533 17.5624 16.7677C17.5624 17.8902 18.3817 18.8041 19.4119 18.8041ZM12.5736 18.8041C13.5876 18.8041 14.4231 17.8902 14.4231 16.7678C14.4231 15.6454 13.6038 14.7314 12.5736 14.7314C11.5352 14.7314 10.7078 15.6533 10.724 16.7677C10.724 17.8902 11.5352 18.8041 12.5736 18.8041Z" fill="white"/>
</svg>
