<svg width="32" height="32" viewBox="0 0 32 32" fill="none" xmlns="http://www.w3.org/2000/svg">
<path fill-rule="evenodd" clip-rule="evenodd" d="M9 10C7.89543 10 7 10.8954 7 12V21C7 22.1046 7.89543 23 9 23H23C24.1046 23 25 22.1046 25 21V12C25 10.8954 24.1046 10 23 10H9ZM16.0007 15.7555L21.772 11.2667H21.9999C22.4783 11.2667 22.8979 11.5187 23.1332 11.8972L16.41 17.1263C16.1693 17.3135 15.8321 17.3135 15.5914 17.1263L8.86719 11.8963C9.10253 11.5183 9.52184 11.2667 9.99992 11.2667H10.2294L16.0007 15.7555Z" fill="white"/>
</svg>
