<svg width="32" height="32" viewBox="0 0 32 32" fill="none" xmlns="http://www.w3.org/2000/svg">
<path d="M16 6C14.6868 6 13.3864 6.25183 12.1732 6.7411C10.9599 7.23037 9.85752 7.94751 8.92893 8.85157C7.05357 10.6774 6 13.1537 6 15.7359C6 20.0391 8.87 23.6901 12.84 24.9849C13.34 25.0628 13.5 24.761 13.5 24.4981V22.8528C10.73 23.4369 10.14 21.5482 10.14 21.5482C9.68 20.4188 9.03 20.117 9.03 20.117C8.12 19.5134 9.1 19.5328 9.1 19.5328C10.1 19.601 10.63 20.5356 10.63 20.5356C11.5 22.0155 12.97 21.5774 13.54 21.3437C13.63 20.7109 13.89 20.2825 14.17 20.0391C11.95 19.7957 9.62 18.9584 9.62 15.2491C9.62 14.1684 10 13.3019 10.65 12.6106C10.55 12.3672 10.2 11.3547 10.75 10.0404C10.75 10.0404 11.59 9.77751 13.5 11.0334C14.29 10.8192 15.15 10.7122 16 10.7122C16.85 10.7122 17.71 10.8192 18.5 11.0334C20.41 9.77751 21.25 10.0404 21.25 10.0404C21.8 11.3547 21.45 12.3672 21.35 12.6106C22 13.3019 22.38 14.1684 22.38 15.2491C22.38 18.9682 20.04 19.786 17.81 20.0294C18.17 20.3312 18.5 20.9251 18.5 21.8305V24.4981C18.5 24.761 18.66 25.0725 19.17 24.9849C23.14 23.6803 26 20.0391 26 15.7359C26 14.4573 25.7413 13.1913 25.2388 12.0101C24.7362 10.8289 23.9997 9.75562 23.0711 8.85157C22.1425 7.94751 21.0401 7.23037 19.8268 6.7411C18.6136 6.25183 17.3132 6 16 6Z" fill="white"/>
</svg>
