<svg width="32" height="32" viewBox="0 0 32 32" fill="none" xmlns="http://www.w3.org/2000/svg">
<path d="M25.7504 9.96016C25.0332 10.2695 24.2527 10.4922 23.4488 10.5789C24.2785 10.0844 24.909 9.30391 25.2066 8.37578C24.4402 8.83281 23.573 9.16797 22.6707 9.34141C21.9395 8.56094 20.9012 8.07812 19.7504 8.07812C17.5355 8.07812 15.7543 9.87344 15.7543 12.0766C15.7543 12.3859 15.7918 12.6953 15.8527 12.993C12.5363 12.8195 9.57852 11.2352 7.61211 8.80937C7.26523 9.40469 7.06836 10.0844 7.06836 10.8273C7.06836 12.2148 7.77383 13.4383 8.84961 14.1578C8.19336 14.132 7.57461 13.9469 7.04258 13.6492V13.6984C7.04258 15.6414 8.41602 17.2516 10.2465 17.6219C9.91133 17.7086 9.55273 17.7578 9.19414 17.7578C8.93398 17.7578 8.68789 17.732 8.43945 17.6969C8.9457 19.2813 10.4199 20.432 12.1754 20.4695C10.802 21.5453 9.08164 22.1781 7.21367 22.1781C6.87852 22.1781 6.56914 22.1664 6.24805 22.1289C8.01992 23.2656 10.1223 23.9219 12.3863 23.9219C19.7363 23.9219 23.7582 17.8328 23.7582 12.5477C23.7582 12.3742 23.7582 12.2008 23.7465 12.0273C24.5246 11.4578 25.2066 10.7523 25.7504 9.96016Z" fill="white"/>
</svg>
